<?xml version="1.0" encoding="utf-8"?>
<!-- Generator: Adobe Illustrator 16.0.0, SVG Export Plug-In . SVG Version: 6.00 Build 0)  -->
<!DOCTYPE svg PUBLIC "-//W3C//DTD SVG 1.1//EN" "http://www.w3.org/Graphics/SVG/1.1/DTD/svg11.dtd">
<svg version="1.1" xmlns="http://www.w3.org/2000/svg" xmlns:xlink="http://www.w3.org/1999/xlink" x="0px" y="0px" width="1200px"
	 height="224.301px" viewBox="0 0 1200 224.301" enable-background="new 0 0 1200 224.301" xml:space="preserve">
<g id="Layer_1">
	<path fill="#2B2A29" d="M0,225.35V88.893c0,0,96.851-7.548,145.613,19.5c48.763,27.049,88.316,34.498,119.154,34.498
		c30.838,0,82.708-7.086,111.833-16.59c29.125-9.502,79.366-14.984,105.018-7.53c25.095,7.292,74.207,32.686,104.96,28.251
		c23.007-3.317,59.95-10.131,108.006-10.131c59.997,0,63.657-23.999,94.495-23.999c30.839,0,112.955-11.256,169.492,3
		c56.536,14.254,105.564,11.002,142.492,1.5S1200,70.894,1200,70.894v155.407L0,225.35z"/>
</g>
<g id="Layer_2">
	<path fill="#2B2A29" d="M810.205,93.235c-3.438-2.349-8.814-4.124-12.278-0.941c-0.168,0.156-1.267-0.033-1.774,0.238
		c-1.013,0.537-2.002,1.149-2.934,1.817c-1.902,1.356-3.76,2.984-5.361,4.681c-0.05-1.107-0.351-1.632,0.7-2.223
		c0.587-0.327,1.238-0.552,1.776-0.963c0.988-0.75,1.339-1.861,2.04-2.78c0.988-1.293,1.339-2.899,1.223-4.525
		c-0.095-1.343-1.218-1.768-1.682-2.814c-1.032-2.347-4.475-4.791-6.673-5.976c-1.029-0.553-1.941-0.967-3.114-0.826
		c-0.388,0.045-2.813,0.322-2.764,0.973c-0.006-0.093,3.492,0.868,3.798,1.096c0.367,0.273,2.6,2.772,2.469,3.312
		c0.191-0.78-3.421-0.711-3.601-0.834c-0.196-0.129-2.166-0.623-2.332-0.507c-1.399,0.974,2.205,2.536,2.715,2.703
		c1.516,0.497,6.318,3.348,5.86,5.159c-0.315,1.251-1.368,2.366-2.632,2.395c-0.929,0.02-2.957,0.153-3.603-0.714
		c0.829-0.423,3.11-0.296,2.896-1.71c-0.297-1.909-1.65-0.342-2.343-0.111c-0.952,0.317-1.759-0.204-2.98,0.146
		c-1.597,0.454-2.973,1.295-4.657,1.493c-1.482,0.174-3.259-0.314-4.585,0.488c-1.099,0.664-1.054,0.92-2.318,0.666
		c-0.735-0.146-2.299,0.96-1.145,1.521c1.228,0.593,1.764-0.159,3.034,0.045c-0.15,2.189-3.223,1.247-4.187,1.643
		c-0.896-1.371-3.867-1.119-3.655-2.515c0.043-0.28,1.702-1.497,1.937-2.123c0.204-0.555,0.088-1.703,0.675-2.027
		c0.426-0.236,5.168-3.564,3.703-4.101c-0.141-0.052-7.496,4.483-3.917,0.418c0.408-0.461,3.705-3.038,1.767-2.774
		c-2.137,0.292-3.746,1.792-4.821,3.555c-0.735,1.205-2.068,1.818-2.806,3.105c-0.922,1.61-1.668,4.569-0.953,6.358
		c0.776,1.946,2.744,1.97,3.74,3.4c0.324,0.471,0.841,0.812,1.371,1.01c0.543,0.194,1.105,0.273,1.683,0.235
		c1.381-0.069,1.081,0.63,1.534,1.86c-2.27-1.028-4.685-1.98-7.16-2.345c-0.927-0.138-1.467,0.379-2.248,0.444
		c-1.234,0.106-2.274-0.566-3.609-0.189c-1.606,0.453-3.254,1.994-4.374,3.211c-0.377,0.411-2.573,4.549-2.39,4.56
		c0.247-0.169,0.458-0.378,0.63-0.631c0.003,0.097,0.047,1.897-0.079,1.88c0.099-0.193,0.193-0.389,0.283-0.586
		c-0.001-0.006,0.072,1.998-0.09,1.87c0.067,0.054,0.473-0.739,0.484-0.759c0.043,0.098,0.228,1.689,0.1,1.654
		c0.139-0.248,0.26-0.506,0.356-0.775c0.015,0.028,0.773,1.312,1.039,1.106c0.137-0.101-0.316-1.427-0.32-1.448
		c0.243,0.156,0.499,0.287,0.767,0.394c-0.004,0.003-0.864-0.988-0.885-1.242c-0.449-0.192,0.976,0.565,0.989,0.477
		c0.066-0.487-1.029-0.825-1.006-1.571c0.287,0.194,0.595,0.344,0.925,0.443c-0.276,0.107-0.889-1.122-0.866-1.369
		c0.219,0.159,0.457,0.277,0.716,0.35c-0.021,0.008-0.698-0.635-0.653-0.938c0.631-0.135,0.871-0.429,1.265-0.842
		c0.781-0.816,1.831-2.073,2.775-2.656c0.643-0.396,2.877-1.429,3.609-1.242c0.184,1.529,1.632,1.647,2.812,1.869
		c-1.562,0.023-1.933,0.711-3.167,0.998c-2.229,0.517-3.565,2.263-4.24,4.359c-1.163,0.808-2.665,3.308-3.103,4.609
		c-0.051,0.149,0.001,2.877-0.843,2.736c0.163,0.026,0.616-0.481,0.726-0.561c-0.005,0.174-0.13,1.571-0.491,1.463
		c0.221-0.127,0.422-0.279,0.602-0.463c0.029,0.123,0.065,0.238,0.102,0.358l-0.023-0.022c-0.06,0.182-0.357,1.213-0.16,1.229
		c-0.013-0.002,0.334-0.764,0.338-0.77c0.065,0.16,0.368,1.787,0.399,1.795c0.129-0.24,0.163-0.506,0.104-0.795
		c0.112,0.191,0.541,1.617,0.553,1.617c0.041-0.259,0.055-0.52,0.04-0.783c0.018,0.025,1.094,1.381,1.347,1.117
		c0.082-0.085-0.773-1.624-0.772-1.618c0.25,0.188,0.527,0.296,0.827,0.331c-0.011,0.02-1.1-1.214-1.143-1.506
		c0.145,0.048,0.901,0.467,1.078,0.366c-0.32,0.182-1.149-1.071-1.153-1.361c0.175,0.081,1.021,0.719,1.251,0.611
		c-0.301,0.139-1.238-1.218-1.174-1.561c0.134,0.073,0.774,0.674,0.96,0.623c-0.062,0.018-1.204-1.043-0.57-1.462
		c0.906-0.598,1.664-1.354,2.23-2.281c0.553-0.904,1.602-2.107,1.747-3.172c0.491-0.723,1.412-2.26,2.151-2.785
		c0.272,1.73,4.413,1.33,5.556,1.361c-0.935,0.229-2.119,0.398-2.949,0.928c-0.398,0.254-0.603,1.14-0.845,1.253
		c-1.829,0.855-3.223,3.099-3.578,5.03c-0.071,0.339-0.088,0.678-0.057,1.021c0.083,0.637-0.288,0.495-0.581,1.094
		c-0.508,1.031-0.931,2.201-1.332,3.281c-0.388,1.041-0.058,1.482,0.167,2.389c0.054,0.223,0.827,2.066,0.399,2.232
		c0.141-0.054,0.258-0.684,0.308-0.801c0.051,0.064,0.858,1.385,0.528,1.535c0.095-0.266,0.158-0.543,0.184-0.828
		c0.024,0.019,1.141,1.29,0.92,1.382c-0.01,0.004-0.042-0.774-0.041-0.781c0.09,0.052,1.379,0.927,1.299,0.991
		c-0.072-0.18-0.17-0.348-0.291-0.499c0.341,0.199,0.686,0.228,1.025,0.081c-0.073-0.369-0.297-0.637-0.677-0.797
		c0.31,0.014,0.596-0.047,0.861-0.183c0.009,0.083-1.562-0.44-1.714-0.592c0.163-0.066,1.016-0.174,1.096-0.366
		c-0.164,0.389-1.611-0.2-1.788-0.471c0.146-0.057,0.99-0.134,1.074-0.305c0.035-0.074-1.161-0.025-1.271-0.018
		c-0.569-0.988-0.158-0.619,0.291-1.568c0.866-1.849,2.498-2.577,2.662-4.848c0.101-1.398,0.192-3.062,0.637-4.426
		c0.338-1.037,0.497-0.469,1.188-0.244c0.949,0.306,1.768,0.127,2.693-0.157c-0.042,0.72-1.201,1.202-1.456,2.085
		c-0.385,1.342-0.304,2.914-0.26,4.291c0.037,1.236,0.147,2.219,1.06,3.137c0.284,0.287,1.722,1.579,1.437,1.918
		c0.005-0.24-0.019-0.477-0.074-0.712c0.103,0.075,1.444,1.05,0.997,1.374c0.039-0.271,0.042-0.544,0.01-0.816
		c0.116,0.045,1.447,0.799,1.428,0.826c-0.008,0.012-0.456-0.611-0.46-0.62c0.086,0.007,1.774,0.481,1.75,0.507
		c-0.128-0.224-0.322-0.389-0.58-0.489c0.143-0.007,1.375-0.011,1.432-0.349c-0.344-0.291-0.751-0.42-1.225-0.386
		c0.266-0.079,0.503-0.209,0.709-0.387c-0.096,0.413-1.67,0.095-1.944-0.046c0.163-0.099,0.949-0.305,1.001-0.52
		c-0.051,0.221-1.58,0.198-1.806,0.042c0.125-0.083,0.903-0.33,0.947-0.509c0.026-0.098-1.193,0.267-1.249,0.285
		c-0.948-0.752-0.313-0.738-0.088-1.652c0.303-1.227,0.221-2.484,0.105-3.736c-0.101-1.094-0.789-1.909,0.164-2.699
		c0.667-0.552,2.967-0.486,3.833-0.678c2.413-0.533,3.924-2.238,6.336-2.248c2.188-0.008,4.312-0.197,6.444-0.696
		c1.513-0.355,3.595-2.282,5.125-1.854c1.16,0.322,1.889-0.199,3.048,0.053c1.382,0.297,2.877,0.49,4.289,0.344
		c1.104-0.114,2.201-0.32,3.289-0.535c1.227-0.24,0.785,0.658,1.03,1.676c0.292,1.211,0.752,3.236,1.532,4.225
		c0.312,0.395,0.72,1.018,1.23,1.185c-0.056,0.413-1.284,0.989-1.463,0.753c0.115,0.15,0.948,0.062,1.104,0.094
		c-0.149,0.238-1.571,0.856-1.705,0.678c0.14,0.188,0.935,0.051,1.137,0.08c-0.199,0.229-1.526,1.156-1.773,0.818
		c0.261,0.082,0.527,0.107,0.804,0.071c-0.447,0.157-0.771,0.44-0.965,0.845c0.183,0.281,1.303-0.203,1.435-0.254
		c-0.179,0.215-0.272,0.451-0.277,0.713c-0.121-0.035,1.412-1.23,1.392-1.219c0.005,0.021-0.04,0.857-0.056,0.85
		c-0.171-0.078,0.897-1.43,0.954-1.481c0.085,0.27,0.201,0.524,0.347,0.765c-0.448-0.101,0.157-1.285,0.295-1.477
		c0.02,0.192,0.067,0.377,0.144,0.553c-0.324-0.185,0.699-2.314,0.787-2.748c0.262-1.275-0.322-2.693-0.703-3.891
		c-0.356-1.111-0.706-2.627-1.532-3.508c-0.938-1-1.996-0.671-2.705-1.572c1.239-0.067,3.227-1.391,3.986-0.533
		c1.027,1.16,1.068,3.254,1.867,4.599c0.592,0.998,6.069,4.874,2.25,4.845c0.34,0.003,0.794,0.056,1.117,0.074
		c-0.135,0.294-1.476,1.027-1.68,0.703c0.11,0.176,0.971,0.158,1.145,0.195c-0.09,0.125-1.505,1.531-1.274,1.79
		c0.372,0.415,1.726-0.716,1.923-0.878c0.003,0.008,0.092,0.777,0.079,0.773c-0.23-0.053,0.678-1.486,0.697-1.505
		c0.068,0.276,0.172,0.54,0.307,0.79c-0.352-0.099,0.248-1.531,0.286-1.6c0.067,0.105,0.281,0.715,0.427,0.746
		c-0.448-0.098,0.034-2.041,0.054-2.269c0.086-0.951,0.358-1.381-0.206-2.386c-0.568-1.017-1.163-2.106-1.814-3.068
		c-0.377-0.561-0.699-0.332-0.795-0.963c-0.083-0.539-0.359-1.057-0.649-1.51c-0.688-1.082-1.647-1.934-2.752-2.572
		c-0.3-0.172-1.783-0.553-1.896-0.836c-0.781-2.006-5.783-0.477-7.166-0.193c1.214-0.624,8.011-2.412,7.612-4.262
		c1.171,0.301,1.197,1.516,2.107,2.066c0.894,0.538,1.485,1.527,2.276,2.41c0.907,1.01,1.84,1.922,3.229,2.155
		c0.81,0.138-0.219,1.635-0.234,1.634c0.182,0.009,0.634-0.662,0.734-0.756c0.068,0.221-0.131,1.838-0.582,1.74
		c0.197,0.043,0.736-0.579,0.838-0.668c0.035,0.207-0.329,1.551-0.675,1.449c0.291-0.109,0.556-0.27,0.789-0.481
		c0.02,0.264-0.604,1.604-0.527,1.665c0.226-0.131,0.402-0.313,0.531-0.551c-0.004,0.038-0.297,1.514-0.14,1.615
		c0.319,0.215,1.118-1.488,1.131-1.514c0.028,0.225,0.085,0.44,0.173,0.648c-0.056,0.008,0.19-1.564,0.238-1.733
		c0.005,0.261,0.087,0.481,0.25,0.663c0.102-0.049-0.053-1.542-0.029-1.729c0.105,0.168,0.214,0.332,0.33,0.494
		c0.03-0.011-0.285-1.195-0.302-1.42c0.188,0.123,0.388,0.215,0.601,0.279c-0.278,0.151-0.776-1.189-0.812-1.285
		c0.105,0.047,0.626,0.409,0.761,0.354c-0.623,0.251-1.139-1.934-1.278-2.153c-0.705-1.111-1.929-1.851-2.817-2.803
		c-1.311-1.398-2.653-3.701-4.718-4.012c-0.784-0.119-3.183-0.431-3.959-0.217c-2.186,0.603-4.221,1.87-6.161,3.003
		c1.464-0.91,2.946-1.781,4.373-2.747c1.262-0.857,1.656-1.799,2.92-2.525c1.767-1.015,2.323-0.658,4.098-0.483
		c0.221,0.022,3.627,0.47,3.434,0.227c-0.036,0.083-0.524,1.27-0.427,1.259c0.175-0.019,0.613-0.824,0.706-0.927
		c0.609,0.784-0.542,1.443-0.146,1.994c0.007,0.012,0.776-1.024,0.792-1.044c0.19,0.317,0.446,2.049-0.134,2.111
		c0.211-0.022,0.593-0.845,0.695-0.979c0.052,0.13,0.414,2.023,0.591,2.053c0.26-0.254,0.381-0.574,0.362-0.961
		c0.058,0.211,0.142,0.408,0.257,0.592c0.005,0-0.221-2.247-0.217-2.187c0.097,0.238,0.254,0.413,0.465,0.525
		c0.003-0.005-0.601-1.688-0.616-1.76c0.089,0.086,0.184,0.165,0.286,0.233c-0.036,0.028-0.675-1.467-0.729-1.565
		C809.568,93.164,810.844,93.67,810.205,93.235 M787.285,106.742c-0.205,0.102-0.503,0.295-0.832,0.524
		c0.628-0.968,2.046-0.563,3.155-0.563C788.69,106.955,787.869,106.925,787.285,106.742"/>
	<g>
		<path fill-rule="evenodd" clip-rule="evenodd" fill="#2B2A29" d="M196.655,138.136c0.238-1.131,0.44-2.269,0.724-3.39
			c0.514-2.029,1.103-4.042,1.612-6.072c0.452-1.804,0.192-3.488-0.864-4.88c-0.825,0.547-1.666,0.928-2.235,1.558
			c-0.286,0.312-0.072,1.078-0.087,1.744c-0.746-0.033-0.759-1.007-1.254-1.743c-0.27,0.373-0.477,0.658-0.773,1.067
			c-0.282-0.808-0.518-1.544-0.795-2.264c-0.195-0.507-0.417-1.007-0.675-1.484c-0.923-1.698-1.178-1.8-2.878-0.886
			c-0.297,0.161-0.414,0.702-0.563,1.086c-0.272,0.701-0.424,1.468-0.802,2.103c-0.144,0.244-1.022,0.4-1.133,0.258
			c-0.743-0.949-1.5-0.638-2.317-0.198c-0.214,0.114-0.46,0.168-0.934,0.334c0.54-1.194,0.97-2.204,1.449-3.19
			c0.373-0.769,0.262-1.16-0.681-1.161c-0.658,0-1.318-0.091-1.977-0.143c0-0.12,0.001-0.242,0.001-0.363
			c0.292-0.036,0.587-0.119,0.877-0.104c1.836,0.093,2.887-0.902,3.572-2.479c0.359-0.831,0.768-1.644,1.213-2.432
			c0.483-0.858,0.389-1.208-0.616-1.262c-2.065-0.112-4.137-0.111-6.206-0.157c-0.589-0.013-1.177-0.026-1.766-0.039
			c-0.007-0.108-0.014-0.215-0.02-0.323c0.666-0.115,1.331-0.229,1.998-0.345c0.021-0.119,0.041-0.236,0.061-0.355
			c-0.614-0.213-1.216-0.47-1.842-0.633c-3.78-0.983-4.275-1.841-3.443-5.649c0.14-0.645-0.109-1.404-0.286-2.082
			c-0.236-0.896-0.478-1.814-0.894-2.632c-1.113-2.192-0.443-4.576-0.859-6.825c-0.268-1.451-0.844-2.844-1.276-4.266
			c-0.131-0.429-0.241-0.865-0.36-1.298c0.092-0.056,0.185-0.113,0.277-0.168c0.243,0.253,0.513,0.486,0.726,0.763
			c4.49,5.856,8.958,11.734,14.442,16.728c0.759,0.69,1.715,1.195,2.647,1.646c0.373,0.18,0.93-0.021,1.403-0.047
			c-0.027-0.465,0.113-1.038-0.108-1.378c-1.603-2.465-3.271-4.89-4.937-7.314c-1.522-2.215-3.073-4.413-4.601-6.625
			c-0.935-1.354-1.066-2.886-1.022-4.48c0.014-0.52-0.169-1.105-0.436-1.559c-0.566-0.968-1.289-1.844-1.858-2.811
			c-0.274-0.463-0.345-1.046-0.299-1.679c2.675,4.08,6.562,7.282,8.172,12.063c-0.53-2.897-1.779-5.405-3.793-7.508
			c-1.087-1.134-1.695-2.435-1.562-4.031c0.012-0.144,0.035-0.289,0.076-0.426c0.017-0.058,0.088-0.099,0.272-0.289
			c0.094,0.571,0.082,1.077,0.269,1.492c0.278,0.618,0.587,1.295,1.075,1.732c2.513,2.256,3.75,5.249,4.813,8.305
			c1.222,3.514,3.749,6.092,5.996,8.882c0.033,0.041,0.132,0.03,0.43,0.087c-0.08-0.486-0.061-0.941-0.229-1.315
			c-1.118-2.482-2.247-4.96-3.435-7.41c-0.438-0.903-0.891-1.728-0.468-2.782c0.133-0.332-0.038-0.779-0.038-1.174
			c0.002-0.804,0.095-1.615,0.021-2.41c-0.058-0.611-0.257-1.229-0.506-1.795c-0.157-0.359-0.519-0.629-0.789-0.939
			c0.104-0.103,0.208-0.206,0.312-0.309c1.727,1.724,3.453,3.447,5.178,5.17c0.097-0.02,0.193-0.041,0.289-0.06
			c-0.144-0.568-0.251-1.15-0.445-1.699c-0.168-0.477-0.453-0.91-0.653-1.375c-0.391-0.908-0.086-1.42,1.083-1.696
			c0.508,3.98,2.525,7.245,4.947,10.562c0.257-0.448,0.437-0.669,0.521-0.922c0.824-2.483,1.744-4.942,2.408-7.468
			c0.457-1.737,0.542-3.571,0.823-5.357c0.043-0.272,0.247-0.521,0.377-0.781c0.19,0.229,0.478,0.432,0.548,0.693
			c0.1,0.374,0.11,0.804,0.037,1.187c-0.473,2.488-0.982,4.969-1.471,7.455c-0.08,0.406-0.116,0.82-0.177,1.258
			c0.921-0.042,1.705-0.041,2.477-0.132c0.245-0.028,0.568-0.25,0.673-0.471c0.946-1.987,2.329-3.779,2.565-6.086
			c0.101-0.977,0.014-1.776-0.71-2.492c-0.21-0.208-0.224-0.615-0.328-0.931c0.354,0.083,0.807,0.052,1.045,0.263
			c2.724,2.408,3.608,5.858,1.591,9.526c-0.826,1.501-1.214,3.244-1.784,4.882c-0.048,0.14,0.035,0.326,0.103,0.825
			c0.491-0.922,0.863-1.561,1.177-2.228c0.606-1.286,1.188-2.558,2.471-3.378c0.307-0.197,0.473-0.795,0.496-1.22
			c0.083-1.523,0.033-3.055,0.133-4.576c0.024-0.376,0.42-0.729,0.646-1.091c0.195,0.37,0.535,0.732,0.557,1.111
			c0.06,1.013-0.044,2.033-0.03,3.051c0.006,0.425,0.08,0.876,0.241,1.268c0.407,0.993,0.845,1.046,1.573,0.27
			c0.671-0.714,1.339-1.432,2.039-2.118c0.308-0.303,0.655-0.649,1.046-0.761c0.487-0.14,1.039-0.06,1.562-0.075
			c-0.285,0.354-0.542,0.734-0.859,1.057c-0.928,0.948-2.029,1.767-2.78,2.835c-0.737,1.052-1.128,2.347-1.671,3.535
			c0.12,0.084,0.24,0.168,0.359,0.251c0.295-0.266,0.642-0.494,0.879-0.804c1.48-1.928,2.923-3.884,4.412-5.805
			c0.21-0.271,0.605-0.399,0.916-0.593c0,0.393,0.156,0.887-0.023,1.163c-1.006,1.552-2.057,3.08-3.162,4.565
			c-2.418,3.253-4.41,6.742-5.955,10.485c-0.127,0.307-0.181,0.643-0.268,0.965c0.143,0.067,0.286,0.134,0.429,0.201
			c0.489-0.917,1.208-1.788,1.4-2.762c0.195-0.987,0.628-1.631,1.32-2.259c0.555-0.504,1.051-1.091,1.487-1.702
			c1.875-2.631,3.686-5.311,5.602-7.911c0.341-0.461,1.077-0.631,1.63-0.935c-0.203,0.569-0.303,1.207-0.628,1.696
			c-1.287,1.934-2.625,3.834-3.982,5.719c-0.546,0.758-0.501,1.386,0.275,2.113c1.101-0.859,2.06-1.857,2.693-3.124
			c0.681-1.365,1.276-2.771,1.922-4.154c0.138-0.294,0.277-0.634,0.517-0.822c0.249-0.194,0.62-0.229,0.938-0.334
			c0.011,0.322,0.122,0.686,0.011,0.958c-0.276,0.678-0.655,1.314-0.991,1.968c0.111,0.096,0.222,0.19,0.333,0.286
			c0.356-0.289,0.767-0.53,1.056-0.874c1.062-1.267,1.476-2.78,1.744-4.394c0.229-1.379,0.687-2.728,1.122-4.064
			c0.108-0.332,0.518-0.567,0.789-0.845c0.083,0.049,0.166,0.097,0.25,0.146c-0.268,1.567-0.537,3.134-0.804,4.701
			c0.148,0.037,0.297,0.073,0.447,0.109c0.291-1.004,0.523-2.032,0.896-3.003c0.196-0.509,0.64-0.923,0.973-1.38
			c0.083,0.55,0.346,1.147,0.217,1.642c-0.539,2.069-1.527,4.076-1.723,6.165c-0.222,2.363-1.389,4.066-2.744,5.75
			c-1.342,1.669-2.817,3.23-4.199,4.869c-1.145,1.36-2.25,2.754-3.348,4.151c-0.189,0.241-0.244,0.588-0.361,0.886
			c0.094,0.066,0.188,0.131,0.283,0.196c0.79-0.765,1.53-1.59,2.378-2.282c2.191-1.791,4.43-3.523,6.649-5.281
			c1.585-1.256,2.589-2.93,3.312-4.773c0.168-0.428,0.045-0.971,0.058-1.529c1.062,0.247,1.012,0.961,0.825,1.689
			c-0.175,0.678-0.426,1.336-0.665,2.072c1.407-0.099,3.486-1.82,3.534-2.867c0.079-1.706-1.217-2.681-2.253-3.783
			c0.042-0.11,0.086-0.22,0.128-0.331c0.389,0.081,0.893,0.038,1.146,0.269c0.681,0.623,1.327,1.314,1.847,2.074
			c0.357,0.519,0.601,0.815,1.288,0.575c1.31-0.46,2.755-0.152,4.267,0.895c-1.246,0.344-2.55,0.387-3.403,1.029
			c-0.835,0.63-1.208,1.87-1.824,2.91c1.055,0.401,1.434-0.221,1.827-0.688c1.184-1.403,2.605-2.328,4.497-2.295
			c0.48,0.008,0.957,0.215,1.435,0.332c-0.009,0.134-0.017,0.266-0.025,0.4c-0.281,0.073-0.563,0.212-0.843,0.207
			c-1.388-0.029-2.407,0.689-3.358,1.574c-0.555,0.514-0.464,0.916,0.175,1.272c0.347,0.194,0.69,0.407,0.995,0.66
			c1.08,0.889,1.257,1.993,0.29,3c-0.739,0.77-1.708,1.322-2.587,1.95c-0.351,0.252-0.849,0.369-1.092,0.69
			c-1.416,1.87-3.523,2.774-5.432,3.943c-0.719,0.439-1.59,0.629-2.585,1.007c0.387,0.188,0.583,0.338,0.799,0.38
			c2.775,0.528,5.545,0.896,8.192-0.537c1.656-0.896,3.3-1.814,4.97-2.687c0.305-0.158,0.7-0.142,1.053-0.206
			c-0.101,0.352-0.09,0.881-0.322,1.029c-1.769,1.129-3.545,2.254-5.394,3.243c-2.415,1.29-5.048,0.722-7.61,0.677
			c-0.54-0.012-1.078-0.024-1.927-0.043c0.375,0.258,0.484,0.38,0.615,0.419c3.705,1.087,7.511,1.311,11.337,1.18
			c0.878-0.031,1.738-0.452,2.618-0.633c0.396-0.078,0.82-0.003,1.233,0.002c-0.071,0.431,0.012,1.052-0.241,1.257
			c-0.648,0.523-1.401,1.051-2.192,1.24c-3.403,0.804-6.774,0.442-10.125-0.46c-1.54-0.414-3.116-0.754-4.697-0.938
			c-0.676-0.079-1.421,0.286-2.108,0.526c-0.534,0.188-1.026,0.493-1.696,0.826c0.375,0.419,0.713,0.806,1.061,1.184
			c0.883,0.966,1.729,1.967,2.663,2.878c0.854,0.833,1.475,0.808,2.394,0.044c0.559-0.464,1.051-1.013,1.64-1.434
			c0.235-0.166,0.646-0.089,0.979-0.123c-0.06,0.319-0.007,0.776-0.201,0.935c-1.05,0.869-2.125,1.714-3.263,2.459
			c-0.488,0.318-0.607,0.539-0.31,1.018c0.63,1.016,1.628,1.247,2.59,0.537c0.583-0.431,1.083-0.979,1.686-1.375
			c0.231-0.152,0.645-0.029,0.976-0.031c-0.059,0.292-0.098,0.593-0.187,0.876c-0.04,0.126-0.222,0.204-0.275,0.331
			c-0.131,0.311-0.227,0.639-0.336,0.958c0.37,0.009,0.743,0.05,1.11,0.021c0.236-0.019,0.465-0.136,0.932-0.282
			c-0.203,0.696-0.354,1.21-0.62,2.12c0.941-0.378,1.606-0.646,2.271-0.913c0.084,0.071,0.169,0.141,0.253,0.21
			c-0.266,0.326-0.467,0.777-0.81,0.954c-1.244,0.642-2.546,1.034-3.983,0.629c-1.291-0.364-2.602-0.668-3.909-0.973
			c-0.287-0.065-0.599-0.021-0.975,0.228c0.282,0.204,0.564,0.406,0.972,0.7c-1.905,0.821-3.693,1.233-5.476,0.127
			c-0.921-0.571-1.605-0.441-2.451,0.191c-1.684,1.258-3.306,1.024-4.694-0.519c-0.096-0.108-0.189-0.254-0.313-0.295
			c-1.178-0.392-2.351-0.812-3.555-1.098c-0.208-0.05-0.76,0.46-0.803,0.763c-0.242,1.681-0.386,3.376-0.545,5.068
			c-0.091,0.969-0.276,1.955-0.174,2.907c0.095,0.897,0.479,1.774,0.8,2.636c0.211,0.57,0.537,1.1,0.812,1.646
			C207.704,138.381,202.18,138.259,196.655,138.136z M194.369,97.998c0.1-0.023,0.199-0.048,0.299-0.072
			c0.008-0.372,0.05-0.748,0.019-1.115c-0.108-1.228-0.313-2.45-0.35-3.679c-0.056-1.915-1.074-3.26-2.429-4.428
			c-0.214-0.185-0.558-0.22-0.842-0.324c-0.056,0.298-0.188,0.604-0.155,0.892c0.081,0.71,0.232,1.411,0.361,2.113
			c0.101,0.551,0.106,1.15,0.337,1.64c0.587,1.244,1.269,2.443,1.932,3.651C193.79,97.131,194.091,97.558,194.369,97.998z
			 M184.227,106.127c0.035-0.063,0.07-0.126,0.105-0.188c-2.53-2.766-5.059-5.53-7.623-8.333c-0.727,1.469-0.169,3.8,1.312,4.863
			c1.792,1.285,3.728,2.372,5.61,3.53C183.794,106.1,184.027,106.087,184.227,106.127z M224.511,106.538
			c0.071,0.11,0.143,0.222,0.213,0.333c0.45-0.166,0.941-0.265,1.343-0.51c1.545-0.94,3.079-1.899,4.58-2.908
			c0.928-0.623,1.852-1.284,2.644-2.064c0.27-0.267,0.131-0.948,0.179-1.44c-0.418,0.017-0.96-0.13-1.232,0.078
			c-2.327,1.779-4.611,3.611-6.887,5.456C225.01,105.758,224.789,106.183,224.511,106.538z M181.113,110.514
			c-0.053-0.5,0.042-0.976-0.145-1.149c-1.004-0.933-2.067-1.804-3.136-2.664c-0.194-0.156-0.566-0.29-0.75-0.205
			c-0.197,0.092-0.389,0.463-0.372,0.698c0.051,0.719,0.164,1.441,0.327,2.146c0.298,1.288,1.044,1.934,2.358,2.006
			c1.23,0.068,2.464,0.065,3.697,0.065c0.283,0,0.567-0.106,0.851-0.164c-0.001-0.111-0.002-0.222-0.004-0.333
			C182.965,110.774,181.992,110.639,181.113,110.514z M220.333,118.647c-0.07,0.041-0.142,0.082-0.212,0.123
			c-0.033,1.494-0.095,2.988-0.081,4.48c0.004,0.414,0.138,0.899,0.387,1.217c0.245,0.312,0.709,0.451,1.078,0.666
			c0.178-0.381,0.567-0.809,0.499-1.138c-0.329-1.547-0.77-3.073-1.204-4.597C220.722,119.126,220.493,118.897,220.333,118.647z
			 M225.896,122.88c-0.254,0.36-0.38,0.617-0.573,0.801c-0.639,0.609-0.407,1.088,0.212,1.485c0.299,0.193,0.64,0.382,0.982,0.43
			c0.322,0.045,0.789,0.007,0.97-0.192c0.143-0.157,0.004-0.642-0.11-0.942c-0.14-0.365-0.368-0.702-0.588-1.031
			c-0.779-1.16-1.363-2.539-3.019-2.776C223.688,122.438,223.938,122.721,225.896,122.88z M202.918,100.123
			c0.276-0.342,0.405-0.436,0.438-0.555c0.552-1.992,1.113-3.983,1.608-5.99c0.06-0.245-0.247-0.581-0.385-0.875
			c-0.264,0.181-0.713,0.32-0.763,0.548c-0.395,1.804-0.732,3.622-1.04,5.443C202.712,99.068,202.847,99.477,202.918,100.123z
			 M199.253,100.903c0.828-1.603-0.293-5.23-1.736-5.864C197.237,97.281,198.729,98.947,199.253,100.903z M235.359,103.362
			c0.095,0.143,0.189,0.286,0.283,0.43c1.332-0.745,2.681-1.464,3.981-2.259c0.198-0.123,0.17-0.609,0.247-0.927
			c-0.319-0.057-0.762-0.277-0.938-0.145C237.711,101.388,236.545,102.387,235.359,103.362z M215.819,118.468
			c-0.151-0.005-0.303-0.008-0.456-0.013c-0.075,1.152-0.183,2.306-0.207,3.459c-0.005,0.294,0.255,0.594,0.395,0.892
			c0.256-0.267,0.681-0.497,0.741-0.803C216.533,120.777,216.308,119.593,215.819,118.468z M218.959,125.386
			c-0.451,0.269-0.822,0.418-1.081,0.678c-0.11,0.113-0.082,0.57,0.044,0.674c0.463,0.379,0.959,0.793,1.512,0.953
			c0.298,0.086,0.761-0.282,1.101-0.516c0.107-0.071,0.147-0.481,0.062-0.554C220.092,126.191,219.541,125.813,218.959,125.386z
			 M234.611,107.509c-0.044-0.11-0.088-0.222-0.133-0.333c-1.369,0.521-2.739,1.041-4.109,1.562
			C231.84,109.491,233.5,108.879,234.611,107.509z M185.605,123.359c1.681-0.242,2.327-1.637,1.599-3.272
			C186.713,121.092,186.222,122.095,185.605,123.359z M207.583,91.51c-0.896,1.101-1.28,2.258-1.47,3.652
			C207.372,94.27,207.994,92.756,207.583,91.51z M217.488,123.045c-0.285,0.721-0.53,1.371,0.137,1.909
			c0.119,0.094,0.665-0.062,0.709-0.202C218.584,123.99,218.215,123.468,217.488,123.045z M235.143,101.852
			c0.612-0.506,1.224-1.013,2.009-1.664C235.882,99.899,235.4,100.294,235.143,101.852z M189.92,116.158
			c0.559-0.229,1.118-0.458,1.677-0.686c-0.136-0.179-0.246-0.481-0.41-0.515C190.475,114.812,189.935,115.037,189.92,116.158z
			 M183.573,90.569c-0.168,0.097-0.337,0.194-0.505,0.291c0.426,0.683,0.853,1.366,1.279,2.049c0.155-0.096,0.312-0.191,0.467-0.286
			C184.4,91.938,183.987,91.254,183.573,90.569z"/>
		<path fill-rule="evenodd" clip-rule="evenodd" fill="#2B2A29" d="M181.113,110.514c0.879,0.125,1.852,0.261,2.826,0.399
			c0.002,0.111,0.002,0.222,0.004,0.333c-0.284,0.058-0.567,0.164-0.851,0.164c-1.233,0-2.467,0.003-3.697-0.065
			c-1.314-0.072-2.06-0.718-2.358-2.006c-0.164-0.704-0.276-1.427-0.327-2.146c-0.017-0.235,0.175-0.606,0.372-0.698
			c0.184-0.085,0.556,0.049,0.75,0.205c1.069,0.86,2.132,1.731,3.136,2.664C181.155,109.538,181.061,110.014,181.113,110.514z"/>
	</g>
	<g>
		<path fill-rule="evenodd" clip-rule="evenodd" fill="#2B2A29" d="M1131.756,110.406c0.174-0.465,0.381-0.914,0.517-1.398
			c0.206-0.73,0.451-1.477,0.516-2.238c0.068-0.807-0.043-1.641-0.095-2.461c-0.092-1.434-0.174-2.869-0.318-4.292
			c-0.025-0.256-0.369-0.686-0.5-0.644c-0.758,0.25-1.496,0.611-2.237,0.947c-0.078,0.036-0.138,0.16-0.198,0.252
			c-0.879,1.314-1.898,1.521-2.949,0.462c-0.528-0.532-0.957-0.639-1.538-0.15c-1.125,0.945-2.245,0.605-3.438-0.081
			c0.257-0.252,0.436-0.424,0.613-0.599c-0.234-0.208-0.431-0.245-0.61-0.188c-0.822,0.265-1.646,0.527-2.459,0.844
			c-0.904,0.349-1.72,0.023-2.498-0.514c-0.215-0.148-0.339-0.53-0.504-0.806c0.053-0.058,0.107-0.118,0.16-0.178
			c0.416,0.224,0.832,0.447,1.422,0.762c-0.163-0.77-0.255-1.204-0.379-1.793c0.291,0.122,0.435,0.22,0.583,0.234
			c0.229,0.023,0.464-0.014,0.697-0.022c-0.067-0.271-0.126-0.548-0.206-0.811c-0.033-0.106-0.146-0.172-0.172-0.278
			c-0.055-0.24-0.077-0.494-0.113-0.741c0.209,0,0.468-0.106,0.613,0.021c0.376,0.333,0.688,0.795,1.052,1.156
			c0.6,0.597,1.228,0.396,1.628-0.468c0.189-0.406,0.115-0.593-0.189-0.86c-0.71-0.625-1.382-1.336-2.036-2.067
			c-0.12-0.133-0.085-0.521-0.122-0.791c0.209,0.027,0.467-0.04,0.614,0.099c0.367,0.354,0.674,0.816,1.022,1.207
			c0.573,0.642,0.963,0.661,1.503-0.049c0.591-0.776,1.127-1.628,1.687-2.451c0.22-0.322,0.435-0.651,0.672-1.008
			c-0.419-0.279-0.727-0.536-1.062-0.692c-0.431-0.2-0.896-0.506-1.321-0.436c-0.994,0.163-1.984,0.459-2.953,0.817
			c-2.108,0.781-4.227,1.103-6.359,0.439c-0.496-0.157-0.967-0.6-1.371-1.041c-0.157-0.172-0.103-0.699-0.145-1.063
			c0.259-0.006,0.526-0.072,0.773-0.008c0.553,0.149,1.09,0.501,1.641,0.523c2.402,0.092,4.793-0.116,7.124-1.055
			c0.083-0.034,0.151-0.138,0.389-0.358c-0.533,0.02-0.871,0.033-1.21,0.046c-1.608,0.051-3.265,0.545-4.775-0.536
			c-1.155-0.829-2.266-1.774-3.37-2.722c-0.145-0.125-0.136-0.573-0.196-0.871c0.221,0.053,0.469,0.037,0.659,0.169
			c1.044,0.731,2.071,1.501,3.107,2.252c1.655,1.201,3.396,0.876,5.141,0.416c0.137-0.037,0.26-0.165,0.504-0.326
			c-0.623-0.315-1.169-0.472-1.618-0.841c-1.191-0.981-2.511-1.737-3.391-3.314c-0.151-0.271-0.464-0.368-0.683-0.58
			c-0.549-0.528-1.154-0.991-1.614-1.64c-0.604-0.848-0.486-1.784,0.195-2.542c0.193-0.215,0.41-0.397,0.629-0.564
			c0.402-0.305,0.461-0.646,0.115-1.079c-0.593-0.745-1.229-1.348-2.101-1.317c-0.175,0.006-0.353-0.11-0.527-0.171
			c-0.005-0.114-0.01-0.225-0.015-0.339c0.301-0.101,0.601-0.279,0.902-0.288c1.188-0.037,2.075,0.74,2.812,1.922
			c0.246,0.394,0.479,0.918,1.145,0.574c-0.382-0.877-0.61-1.927-1.131-2.456c-0.532-0.54-1.352-0.57-2.132-0.855
			c0.954-0.894,1.863-1.162,2.684-0.778c0.43,0.2,0.585-0.053,0.812-0.494c0.33-0.646,0.739-1.235,1.17-1.767
			c0.159-0.197,0.476-0.163,0.72-0.233c0.027,0.093,0.054,0.186,0.08,0.279c-0.656,0.938-1.475,1.771-1.434,3.216
			c0.025,0.886,1.322,2.334,2.205,2.412c-0.146-0.623-0.301-1.179-0.408-1.752c-0.113-0.616-0.141-1.221,0.527-1.435
			c0.005,0.473-0.075,0.933,0.028,1.295c0.444,1.559,1.066,2.972,2.057,4.028c1.384,1.479,2.781,2.936,4.148,4.442
			c0.528,0.583,0.989,1.278,1.481,1.922c0.06-0.056,0.119-0.111,0.178-0.168c-0.071-0.251-0.104-0.545-0.222-0.749
			c-0.683-1.179-1.369-2.354-2.082-3.501c-0.859-1.381-1.778-2.696-2.612-4.104c-0.842-1.42-1.566-2.857-1.694-4.858
			c-0.113-1.769-0.724-3.465-1.053-5.215c-0.078-0.418,0.091-0.926,0.145-1.393c0.207,0.385,0.483,0.734,0.604,1.165
			c0.23,0.821,0.37,1.69,0.548,2.54c0.095-0.032,0.188-0.062,0.281-0.095c-0.16-1.327-0.321-2.652-0.481-3.979
			c0.053-0.042,0.105-0.083,0.158-0.125c0.169,0.234,0.424,0.432,0.491,0.712c0.266,1.13,0.547,2.27,0.684,3.438
			c0.161,1.366,0.413,2.646,1.074,3.714c0.18,0.291,0.437,0.492,0.659,0.735c0.07-0.082,0.139-0.162,0.209-0.244
			c-0.207-0.552-0.442-1.089-0.611-1.662c-0.068-0.23,0.003-0.539,0.011-0.812c0.199,0.087,0.433,0.115,0.588,0.279
			c0.149,0.158,0.235,0.445,0.32,0.693c0.398,1.168,0.766,2.357,1.188,3.511c0.391,1.069,0.988,1.91,1.676,2.633
			c0.49-0.62,0.521-1.152,0.183-1.791c-0.844-1.59-1.674-3.193-2.473-4.826c-0.202-0.413-0.262-0.953-0.387-1.434
			c0.346,0.255,0.808,0.395,1.02,0.784c1.19,2.193,2.314,4.455,3.479,6.675c0.271,0.516,0.579,1.011,0.925,1.435
			c0.432,0.528,0.7,1.072,0.818,1.907c0.116,0.824,0.563,1.559,0.866,2.333c0.089-0.058,0.18-0.115,0.271-0.173
			c-0.054-0.272-0.086-0.557-0.164-0.816c-0.952-3.164-2.186-6.11-3.688-8.854c-0.686-1.253-1.338-2.542-1.962-3.853
			c-0.111-0.232-0.012-0.652-0.009-0.985c0.193,0.163,0.44,0.27,0.572,0.499c0.925,1.62,1.821,3.27,2.741,4.896
			c0.147,0.261,0.364,0.453,0.548,0.676c0.075-0.071,0.151-0.143,0.228-0.215c-0.335-1.004-0.574-2.099-1.033-2.987
			c-0.466-0.902-1.153-1.59-1.73-2.389c-0.197-0.272-0.357-0.592-0.534-0.891c0.328,0.01,0.675-0.06,0.98,0.056
			c0.244,0.093,0.46,0.385,0.652,0.64c0.436,0.578,0.852,1.183,1.27,1.785c0.453,0.654,0.729,0.607,0.988-0.236
			c0.104-0.333,0.152-0.715,0.158-1.075c0.014-0.862-0.047-1.726-0.004-2.584c0.016-0.321,0.23-0.63,0.355-0.944
			c0.139,0.306,0.387,0.603,0.399,0.921c0.055,1.289,0.017,2.586,0.062,3.876c0.012,0.359,0.113,0.866,0.305,1.031
			c0.801,0.689,1.161,1.764,1.535,2.85c0.193,0.564,0.424,1.103,0.728,1.882c0.045-0.423,0.099-0.581,0.068-0.699
			c-0.35-1.386-0.585-2.86-1.096-4.128c-1.249-3.098-0.677-6.025,1.045-8.079c0.15-0.18,0.435-0.157,0.657-0.228
			c-0.066,0.268-0.077,0.613-0.21,0.79c-0.458,0.61-0.517,1.288-0.458,2.114c0.138,1.954,0.997,3.465,1.581,5.144
			c0.064,0.187,0.268,0.373,0.42,0.396c0.485,0.074,0.978,0.069,1.555,0.1c-0.036-0.371-0.057-0.722-0.104-1.065
			c-0.295-2.104-0.603-4.203-0.888-6.309c-0.044-0.324-0.036-0.688,0.028-1.005c0.046-0.222,0.228-0.396,0.349-0.59
			c0.08,0.219,0.207,0.429,0.232,0.66c0.168,1.512,0.212,3.065,0.491,4.535c0.404,2.137,0.97,4.216,1.476,6.315
			c0.052,0.214,0.163,0.401,0.322,0.779c1.536-2.823,2.818-5.598,3.157-8.973c0.732,0.228,0.921,0.66,0.671,1.431
			c-0.128,0.396-0.309,0.764-0.417,1.168c-0.124,0.466-0.194,0.96-0.287,1.442c0.061,0.016,0.12,0.033,0.182,0.05
			c1.091-1.469,2.184-2.937,3.275-4.406c0.064,0.086,0.129,0.173,0.194,0.26c-0.171,0.264-0.399,0.495-0.5,0.799
			c-0.159,0.481-0.287,1.006-0.327,1.523c-0.05,0.674,0.005,1.36,0.002,2.042c-0.002,0.334-0.111,0.714-0.029,0.995
			c0.26,0.891-0.028,1.592-0.308,2.359c-0.757,2.082-1.479,4.187-2.192,6.295c-0.107,0.317-0.099,0.703-0.15,1.115
			c0.187-0.049,0.249-0.04,0.271-0.076c1.425-2.375,3.022-4.571,3.808-7.554c0.683-2.594,1.474-5.136,3.062-7.06
			c0.309-0.373,0.506-0.948,0.684-1.473c0.119-0.353,0.113-0.781,0.176-1.266c0.115,0.16,0.159,0.194,0.17,0.243
			c0.024,0.117,0.039,0.239,0.045,0.361c0.076,1.352-0.312,2.457-1,3.423c-1.274,1.792-2.071,3.922-2.418,6.379
			c1.034-4.059,3.49-6.791,5.189-10.26c0.026,0.536-0.021,1.03-0.196,1.424c-0.362,0.821-0.819,1.567-1.181,2.39
			c-0.169,0.386-0.287,0.883-0.281,1.323c0.02,1.35-0.069,2.648-0.663,3.8c-0.97,1.882-1.954,3.751-2.921,5.636
			c-1.058,2.063-2.117,4.125-3.135,6.221c-0.142,0.289-0.056,0.774-0.075,1.168c0.297,0.02,0.646,0.187,0.88,0.033
			c0.589-0.387,1.19-0.819,1.671-1.408c3.467-4.257,6.301-9.26,9.148-14.243c0.135-0.236,0.306-0.435,0.459-0.65
			c0.059,0.047,0.116,0.094,0.174,0.141c-0.077,0.368-0.148,0.737-0.232,1.102c-0.278,1.207-0.646,2.39-0.821,3.62
			c-0.272,1.908,0.137,3.924-0.573,5.787c-0.266,0.695-0.422,1.474-0.574,2.234c-0.114,0.575-0.274,1.22-0.189,1.765
			c0.504,3.223,0.189,3.952-2.188,4.803c-0.395,0.141-0.773,0.362-1.16,0.545c0.013,0.101,0.024,0.2,0.037,0.301
			c0.418,0.094,0.834,0.188,1.252,0.282c-0.004,0.092-0.009,0.182-0.014,0.274c-0.369,0.014-0.739,0.028-1.109,0.042
			c-1.299,0.049-2.6,0.059-3.896,0.164c-0.632,0.05-0.692,0.347-0.394,1.072c0.276,0.666,0.528,1.352,0.751,2.055
			c0.422,1.333,1.077,2.17,2.23,2.083c0.182-0.014,0.367,0.055,0.55,0.084c-0.001,0.103-0.001,0.206-0.001,0.308
			c-0.414,0.047-0.828,0.127-1.242,0.13c-0.592,0.005-0.662,0.338-0.433,0.987c0.296,0.834,0.562,1.688,0.894,2.696
			c-0.296-0.139-0.45-0.183-0.584-0.279c-0.511-0.368-0.985-0.628-1.456,0.181c-0.07,0.121-0.62-0.007-0.71-0.213
			c-0.234-0.536-0.325-1.186-0.493-1.778c-0.092-0.324-0.163-0.782-0.349-0.917c-1.062-0.766-1.223-0.679-1.812,0.765
			c-0.164,0.405-0.305,0.83-0.43,1.261c-0.178,0.61-0.33,1.235-0.511,1.922c-0.184-0.346-0.312-0.586-0.48-0.901
			c-0.314,0.627-0.327,1.452-0.796,1.484c-0.006-0.564,0.132-1.214-0.046-1.478c-0.354-0.532-0.881-0.85-1.396-1.31
			c-0.67,1.185-0.841,2.612-0.566,4.14c0.311,1.717,0.67,3.42,0.982,5.137c0.172,0.947,0.295,1.91,0.438,2.867
			C1138.693,110.145,1135.225,110.275,1131.756,110.406z M1144.32,74.872c0.422-1.026,0.855-2.046,1.23-3.103
			c0.147-0.416,0.154-0.923,0.22-1.391c0.084-0.596,0.183-1.19,0.237-1.792c0.021-0.244-0.06-0.503-0.093-0.755
			c-0.18,0.089-0.396,0.121-0.531,0.278c-0.855,0.996-1.502,2.141-1.546,3.764c-0.029,1.042-0.164,2.078-0.238,3.119
			c-0.021,0.312,0.003,0.63,0.006,0.945c0.062,0.02,0.125,0.04,0.188,0.06C1143.97,75.622,1144.162,75.259,1144.32,74.872z
			 M1150.496,82.723c1.188-0.991,2.408-1.921,3.539-3.019c0.936-0.907,1.297-2.885,0.848-4.126
			c-1.624,2.387-3.225,4.742-4.826,7.097c0.021,0.053,0.043,0.106,0.064,0.159C1150.247,82.799,1150.393,82.809,1150.496,82.723z
			 M1124.305,82.487c-1.42-1.552-2.845-3.092-4.297-4.588c-0.17-0.175-0.512-0.047-0.773-0.06c0.028,0.417-0.062,0.995,0.105,1.22
			c0.494,0.657,1.07,1.213,1.65,1.736c0.937,0.847,1.896,1.652,2.861,2.441c0.25,0.206,0.559,0.287,0.84,0.425
			c0.045-0.095,0.091-0.189,0.136-0.283C1124.654,83.079,1124.518,82.72,1124.305,82.487z M1150.278,86.888
			c-0.002,0.094-0.002,0.188-0.004,0.282c0.178,0.047,0.355,0.136,0.533,0.135c0.774-0.006,1.55-0.009,2.321-0.073
			c0.825-0.068,1.297-0.618,1.491-1.711c0.106-0.597,0.18-1.21,0.216-1.819c0.012-0.2-0.107-0.513-0.23-0.59
			c-0.115-0.071-0.35,0.044-0.472,0.177c-0.676,0.734-1.348,1.478-1.982,2.272c-0.118,0.148-0.062,0.551-0.097,0.975
			C1151.502,86.646,1150.891,86.766,1150.278,86.888z M1127.096,94.257c-0.28,1.292-0.564,2.588-0.778,3.9
			c-0.046,0.279,0.197,0.639,0.308,0.961c0.232-0.184,0.523-0.304,0.68-0.569c0.157-0.271,0.244-0.682,0.249-1.033
			c0.016-1.264-0.016-2.529-0.029-3.795c-0.044-0.035-0.089-0.069-0.132-0.104C1127.29,93.831,1127.146,94.025,1127.096,94.257z
			 M1125.224,95.334c-1.041,0.209-1.415,1.38-1.909,2.367c-0.14,0.28-0.284,0.566-0.374,0.877c-0.073,0.256-0.163,0.667-0.073,0.798
			c0.113,0.168,0.405,0.199,0.607,0.159c0.215-0.043,0.431-0.203,0.619-0.368c0.391-0.341,0.539-0.747,0.141-1.26
			c-0.12-0.155-0.198-0.372-0.356-0.676C1125.108,97.086,1125.267,96.846,1125.224,95.334z M1138.512,76.625
			c-0.185-1.542-0.387-3.08-0.627-4.606c-0.029-0.193-0.312-0.309-0.477-0.46c-0.088,0.25-0.281,0.536-0.245,0.744
			c0.301,1.698,0.644,3.382,0.98,5.067c0.021,0.102,0.101,0.18,0.272,0.468C1138.463,77.291,1138.55,76.943,1138.512,76.625z
			 M1141.832,73.505c-0.91,0.543-1.631,3.622-1.119,4.977C1141.052,76.821,1141.996,75.403,1141.832,73.505z M1115.803,78.301
			c-0.11-0.111-0.39,0.077-0.59,0.127c0.047,0.269,0.027,0.681,0.15,0.784c0.812,0.667,1.656,1.27,2.488,1.895
			c0.06-0.122,0.12-0.245,0.18-0.366C1117.292,79.92,1116.564,79.079,1115.803,78.301z M1129.913,96.441
			c0.036,0.259,0.302,0.452,0.461,0.677c0.088-0.253,0.254-0.509,0.252-0.758c-0.009-0.977-0.071-1.953-0.113-2.929
			c-0.096,0.005-0.191,0.008-0.286,0.013C1129.914,94.399,1129.767,95.404,1129.913,96.441z M1127.188,100.375
			c-0.054,0.062-0.031,0.409,0.035,0.469c0.213,0.196,0.502,0.506,0.689,0.432c0.348-0.139,0.661-0.493,0.954-0.816
			c0.079-0.088,0.099-0.476,0.03-0.571c-0.161-0.219-0.394-0.343-0.675-0.568C1127.854,99.685,1127.506,100.008,1127.188,100.375z
			 M1121.139,85.271c-0.858-0.435-1.715-0.869-2.572-1.304c-0.029,0.095-0.057,0.189-0.085,0.283
			C1119.172,85.406,1120.212,85.917,1121.139,85.271z M1148.185,94.676c-0.466,1.389-0.067,2.567,0.987,2.765
			C1148.791,96.373,1148.487,95.525,1148.185,94.676z M1136.434,73.651c-0.112-1.18-0.348-2.159-0.905-3.087
			C1135.265,71.622,1135.647,72.901,1136.434,73.651z M1128.617,98.781c0.027,0.117,0.369,0.247,0.443,0.167
			c0.422-0.459,0.271-1.009,0.096-1.618C1128.698,97.691,1128.464,98.136,1128.617,98.781z M1116.922,78.06
			c0.489,0.548,0.871,0.974,1.254,1.401C1118.021,78.142,1117.72,77.809,1116.922,78.06z M1145.708,90.35
			c-0.103,0.029-0.174,0.286-0.26,0.438c0.351,0.19,0.7,0.381,1.05,0.573C1146.494,90.411,1146.156,90.223,1145.708,90.35z
			 M1149.818,71.396c0.097,0.08,0.194,0.16,0.291,0.24c0.271-0.581,0.543-1.161,0.813-1.742c-0.104-0.081-0.21-0.163-0.315-0.244
			C1150.344,70.232,1150.082,70.813,1149.818,71.396z"/>
	</g>
	<path fill="#2B2A29" d="M309.511,85.6l0.063,0.059c-0.259-3.019-0.127-6.136-0.854-9.038c-1.986-7.93-3.757-15.887-3.812-24.083
		c-0.045-6.561,0.328-13.123,0.51-19.474c-1.424,9.646-3.034,19.507-4.293,29.413c-1.026,8.07-2.231,16.172-0.54,24.337
		c0.239,1.151,0.143,2.588-0.345,3.639c-2.969,6.394-6.092,12.716-9.179,19.055c-0.214,0.439-0.557,0.815-0.765,1.114
		c-1.748-6.247-3.706-12.366-5.118-18.608c-0.922-4.08-1.699-8.389-1.38-12.505c0.437-5.656,1.674-11.303,3.104-16.815
		c2.356-9.09,5.554-17.957,6.514-27.395c1.005-9.875-0.325-19.143-6.451-27.363c0.115,3.125,0.103,6.3,0.786,9.317
		c2.974,13.147,2.403,26.144-1.229,39.052c-2.418,8.596-5.086,17.125-7.328,25.766c-1.474,5.683-0.527,11.077,2.76,16.179
		c2.616,4.062,4.637,8.51,6.852,12.823c0.383,0.746,0.411,1.675,0.603,2.519c-0.187,0.083-0.374,0.165-0.561,0.246
		c-0.671-1.016-1.374-2.012-2.009-3.05c-2.567-4.193-5.742-7.818-9.758-10.697c-2.229-1.598-4.412-3.263-6.584-4.938
		c-4.822-3.719-9.042-7.987-12.029-13.363c-0.257-0.462-0.57-0.893-0.857-1.338c1.994,5.715,4.961,10.819,9.495,14.844
		c4.514,4.007,8.953,8.135,13.759,11.765c6.38,4.818,8.358,11.762,9.519,18.938c0.965,5.974-1.216,11.409-5.056,16.126
		c-2.248,2.761-3.874,5.779-3.999,9.495c-0.072,2.146,0.95,3.188,2.854,3.155c3.056-0.052,6.235-0.202,8.619-2.443
		c1.793-1.685,3.148-3.833,4.925-5.538c3.025-2.904,3.202-6.376,2.654-10.186c-0.499-3.477-1.066-6.988-1.043-10.48
		c0.028-4.451,0.227-8.98,1.113-13.32c0.563-2.763,1.963-5.82,3.966-7.709c2.686-2.534,4.331-5.271,4.997-8.743
		c0.517-2.692,0.864-5.416,1.377-8.108c1.625-8.536,3.406-17.044,4.921-25.599c3.482-19.658,9.358-38.35,21.42-54.631
		c0.236-0.319,0.367-0.717,0.803-1.591c-0.625,0.573-0.818,0.714-0.967,0.893c-1.252,1.507-2.435,3.077-3.752,4.524
		c-8.524,9.365-13.67,20.387-15.868,32.777c-1.354,7.634-2.184,15.364-3.607,22.984C312.614,73.654,310.942,79.604,309.511,85.6z"/>
	<path fill="#2B2A29" d="M87.116,70.24l0.038,0.035c-0.154-1.797-0.075-3.652-0.508-5.379c-1.182-4.719-2.236-9.455-2.269-14.333
		c-0.027-3.905,0.195-7.811,0.304-11.59c-0.848,5.741-1.806,11.61-2.555,17.505c-0.611,4.803-1.328,9.625-0.321,14.485
		c0.142,0.685,0.085,1.54-0.205,2.166c-1.768,3.805-3.626,7.568-5.463,11.341c-0.127,0.261-0.332,0.485-0.455,0.663
		c-1.04-3.718-2.206-7.36-3.046-11.075c-0.549-2.428-1.011-4.993-0.822-7.442c0.26-3.366,0.997-6.728,1.848-10.008
		c1.402-5.41,3.305-10.688,3.877-16.304c0.598-5.877-0.193-11.393-3.839-16.285c0.068,1.86,0.061,3.75,0.468,5.545
		c1.77,7.825,1.43,15.56-0.731,23.243c-1.439,5.116-3.027,10.191-4.361,15.334c-0.877,3.382-0.313,6.593,1.643,9.629
		c1.557,2.417,2.76,5.065,4.078,7.632c0.228,0.444,0.245,0.997,0.359,1.499c-0.111,0.049-0.223,0.098-0.334,0.146
		c-0.399-0.604-0.817-1.198-1.196-1.815c-1.528-2.496-3.417-4.653-5.808-6.367c-1.327-0.951-2.626-1.942-3.918-2.939
		c-2.87-2.213-5.381-4.754-7.159-7.954c-0.153-0.275-0.339-0.531-0.51-0.796c1.187,3.401,2.953,6.438,5.651,8.834
		c2.687,2.385,5.329,4.841,8.189,7.002c3.797,2.868,4.975,7,5.665,11.271c0.574,3.556-0.724,6.791-3.009,9.598
		c-1.337,1.643-2.305,3.439-2.379,5.65c-0.043,1.277,0.565,1.897,1.698,1.878c1.819-0.03,3.711-0.12,5.13-1.454
		c1.067-1.002,1.874-2.281,2.932-3.296c1.8-1.729,1.906-3.795,1.58-6.062c-0.297-2.069-0.634-4.159-0.621-6.238
		c0.017-2.649,0.135-5.345,0.663-7.928c0.335-1.644,1.168-3.464,2.36-4.588c1.598-1.508,2.578-3.137,2.974-5.204
		c0.308-1.602,0.514-3.224,0.82-4.825c0.967-5.081,2.027-10.145,2.929-15.236c2.072-11.699,5.569-22.824,12.749-32.514
		c0.141-0.19,0.218-0.427,0.478-0.947c-0.372,0.341-0.487,0.425-0.575,0.531c-0.745,0.897-1.45,1.832-2.233,2.693
		c-5.074,5.574-8.136,12.133-9.444,19.508c-0.806,4.543-1.3,9.144-2.146,13.679C88.962,63.13,87.967,66.672,87.116,70.24z"/>
	<path fill="#2B2A29" d="M62.163,44.552c-0.381-4.598-0.405-9.225-0.746-13.826c-0.552-7.469-2.933-14.306-7.414-20.366
		c-0.692-0.937-1.298-1.937-1.948-2.906c-0.077-0.114-0.183-0.209-0.519-0.587c0.205,0.544,0.258,0.788,0.379,0.991
		c6.158,10.369,8.508,21.792,9.381,33.641c0.38,5.157,0.921,10.302,1.367,15.455c0.141,1.625,0.182,3.259,0.325,4.884
		c0.184,2.096,0.993,3.816,2.43,5.479c1.071,1.239,1.716,3.134,1.882,4.804c0.263,2.624,0.106,5.317-0.146,7.954
		c-0.198,2.069-0.746,4.114-1.251,6.143c-0.555,2.222-0.66,4.288,0.956,6.191c0.949,1.117,1.622,2.471,2.582,3.576
		c1.276,1.471,3.149,1.753,4.956,1.968c1.125,0.134,1.793-0.421,1.88-1.696c0.15-2.207-0.63-4.093-1.793-5.863
		c-1.988-3.025-2.951-6.375-2.019-9.854c1.121-4.179,2.711-8.17,6.78-10.638c3.065-1.859,5.943-4.035,8.858-6.134
		c2.927-2.109,4.993-4.952,6.519-8.215c-0.197,0.247-0.408,0.482-0.588,0.74c-2.093,3.002-4.85,5.275-7.93,7.186
		c-1.387,0.86-2.78,1.714-4.197,2.526c-2.552,1.461-4.651,3.416-6.424,5.744c-0.439,0.576-0.916,1.124-1.374,1.685
		c-0.106-0.059-0.212-0.119-0.317-0.18c0.165-0.488,0.237-1.036,0.509-1.455c1.572-2.42,3.038-4.932,4.832-7.178
		c2.254-2.822,3.141-5.959,2.612-9.413c-0.805-5.252-1.869-10.462-2.782-15.698c-1.37-7.862-0.922-15.592,1.633-23.197
		c0.587-1.745,0.771-3.625,1.028-5.469c-4.124,4.497-5.472,9.903-5.473,15.811c-0.001,5.646,1.356,11.089,2.201,16.614
		c0.514,3.35,0.905,6.769,0.822,10.144c-0.061,2.456-0.781,4.96-1.573,7.32c-1.213,3.611-2.743,7.115-4.155,10.708
		c-0.105-0.189-0.285-0.433-0.386-0.706c-1.444-3.94-2.911-7.872-4.283-11.837c-0.225-0.652-0.195-1.509,0.016-2.175
		c1.496-4.733,1.271-9.603,1.151-14.443c-0.146-5.941-0.504-11.877-0.764-17.674c-0.276,3.771-0.452,7.68-0.875,11.562
		c-0.528,4.849-2.057,9.454-3.712,14.028c-0.606,1.674-0.716,3.528-1.052,5.3l0.041-0.031
		C63.097,51.827,62.467,48.203,62.163,44.552z"/>
	<path fill="#2B2A29" d="M591.835,102.865l0.053,0.057c0.001-2.703,0.358-5.463-0.067-8.097c-1.156-7.199-2.12-14.405-1.539-21.693
		c0.462-5.834,1.297-11.637,1.945-17.267c-2.005,8.462-4.191,17.102-6.069,25.809c-1.532,7.092-3.223,14.199-2.346,21.586
		c0.124,1.04-0.071,2.31-0.585,3.207c-3.129,5.454-6.389,10.832-9.619,16.229c-0.223,0.374-0.557,0.684-0.765,0.933
		c-1.072-5.687-2.344-11.274-3.12-16.93c-0.506-3.696-0.867-7.585-0.269-11.217c0.821-4.993,2.354-9.918,4.048-14.705
		c2.791-7.897,6.311-15.533,7.889-23.846c1.65-8.699,1.179-17.036-3.635-24.811c-0.138,2.786-0.392,5.606-0.015,8.34
		c1.635,11.912,0.13,23.417-4.087,34.609c-2.809,7.454-5.833,14.828-8.487,22.336c-1.746,4.936-1.316,9.804,1.212,14.59
		c2.014,3.81,3.47,7.918,5.106,11.919c0.284,0.693,0.238,1.521,0.344,2.286c-0.172,0.059-0.345,0.117-0.518,0.176
		c-0.516-0.955-1.065-1.895-1.55-2.865c-1.96-3.923-4.504-7.388-7.853-10.254c-1.858-1.592-3.67-3.239-5.472-4.894
		c-4-3.675-7.421-7.791-9.665-12.798c-0.193-0.431-0.438-0.835-0.66-1.254c1.335,5.231,3.58,9.994,7.3,13.918
		c3.704,3.906,7.333,7.916,11.326,11.51c5.301,4.771,6.526,11.093,7.007,17.559c0.399,5.383-1.957,10.046-5.73,13.943
		c-2.208,2.28-3.884,4.839-4.28,8.131c-0.229,1.901,0.598,2.906,2.294,3.022c2.72,0.188,5.556,0.299,7.847-1.511
		c1.723-1.357,3.092-3.165,4.802-4.543c2.912-2.349,3.335-5.421,3.14-8.847c-0.176-3.13-0.412-6.294-0.124-9.396
		c0.366-3.952,0.89-7.963,2.01-11.752c0.713-2.412,2.192-5.021,4.117-6.546c2.58-2.046,4.252-4.351,5.109-7.386
		c0.667-2.354,1.183-4.748,1.846-7.101c2.098-7.461,4.334-14.886,6.337-22.371c4.6-17.201,11.254-33.362,23.222-46.906
		c0.235-0.266,0.382-0.609,0.836-1.353c-0.6,0.462-0.783,0.572-0.927,0.719c-1.229,1.244-2.4,2.548-3.683,3.733
		c-8.293,7.668-13.711,17.068-16.614,27.911c-1.788,6.68-3.119,13.486-4.967,20.149C595.508,92.487,593.566,97.646,591.835,102.865z
		"/>
	<path fill="#2B2A29" d="M557.315,59.104c-0.571-6.891-0.606-13.825-1.118-20.721c-0.827-11.194-4.394-21.44-11.111-30.522
		c-1.036-1.403-1.945-2.903-2.918-4.355c-0.116-0.171-0.275-0.314-0.778-0.879c0.307,0.815,0.388,1.18,0.567,1.485
		c9.229,15.54,12.751,32.658,14.059,50.417c0.571,7.728,1.382,15.439,2.049,23.162c0.212,2.434,0.273,4.883,0.488,7.318
		c0.275,3.142,1.487,5.719,3.642,8.21c1.605,1.858,2.571,4.698,2.822,7.2c0.392,3.932,0.158,7.967-0.22,11.92
		c-0.295,3.1-1.118,6.166-1.875,9.207c-0.832,3.328-0.988,6.426,1.433,9.277c1.423,1.674,2.43,3.703,3.87,5.359
		c1.912,2.205,4.718,2.629,7.426,2.951c1.686,0.199,2.687-0.633,2.818-2.543c0.226-3.309-0.945-6.135-2.688-8.785
		c-2.979-4.535-4.423-9.557-3.025-14.768c1.679-6.264,4.063-12.246,10.16-15.944c4.596-2.785,8.907-6.047,13.277-9.193
		c4.387-3.161,7.483-7.422,9.769-12.311c-0.295,0.37-0.609,0.721-0.881,1.11c-3.139,4.5-7.268,7.904-11.885,10.768
		c-2.078,1.29-4.167,2.569-6.291,3.787c-3.823,2.189-6.969,5.119-9.627,8.606c-0.659,0.864-1.373,1.685-2.058,2.525
		c-0.159-0.088-0.319-0.178-0.477-0.27c0.248-0.73,0.357-1.552,0.764-2.18c2.355-3.627,4.552-7.391,7.242-10.758
		c3.378-4.229,4.707-8.93,3.914-14.106c-1.206-7.871-2.801-15.68-4.168-23.526c-2.052-11.783-1.381-23.367,2.447-34.765
		c0.879-2.615,1.156-5.434,1.541-8.196c-6.181,6.739-8.2,14.842-8.203,23.695c-0.001,8.461,2.033,16.619,3.299,24.899
		c0.77,5.02,1.358,10.144,1.232,15.202c-0.091,3.681-1.171,7.433-2.358,10.97c-1.819,5.411-4.111,10.664-6.228,16.048
		c-0.156-0.282-0.427-0.646-0.577-1.056c-2.166-5.904-4.364-11.799-6.419-17.74c-0.338-0.977-0.292-2.262,0.023-3.26
		c2.241-7.094,1.906-14.392,1.724-21.646c-0.22-8.904-0.755-17.8-1.145-26.488c-0.413,5.652-0.676,11.509-1.312,17.327
		c-0.79,7.267-3.082,14.168-5.564,21.024c-0.907,2.509-1.071,5.287-1.575,7.942l0.062-0.047
		C558.715,70.007,557.771,64.576,557.315,59.104z"/>
	<path fill="#2B2A29" d="M982.666,67.104c-0.57-6.891-0.605-13.825-1.117-20.721c-0.828-11.194-4.395-21.441-11.111-30.523
		c-1.037-1.402-1.945-2.902-2.919-4.354c-0.116-0.171-0.274-0.313-0.778-0.88c0.307,0.816,0.388,1.181,0.567,1.485
		c9.229,15.54,12.751,32.658,14.06,50.417c0.57,7.728,1.381,15.438,2.049,23.162c0.212,2.434,0.273,4.883,0.488,7.318
		c0.275,3.141,1.487,5.719,3.642,8.209c1.605,1.859,2.571,4.699,2.821,7.201c0.393,3.932,0.158,7.967-0.219,11.92
		c-0.296,3.1-1.119,6.166-1.875,9.207c-0.832,3.328-0.988,6.426,1.433,9.277c1.423,1.674,2.43,3.703,3.87,5.359
		c1.911,2.205,4.718,2.629,7.426,2.951c1.686,0.199,2.688-0.633,2.818-2.543c0.226-3.309-0.945-6.135-2.688-8.785
		c-2.979-4.535-4.423-9.557-3.024-14.768c1.678-6.264,4.062-12.246,10.159-15.943c4.596-2.785,8.907-6.047,13.277-9.193
		c4.388-3.162,7.483-7.422,9.769-12.312c-0.295,0.37-0.609,0.722-0.881,1.11c-3.139,4.5-7.268,7.904-11.885,10.768
		c-2.078,1.289-4.167,2.568-6.291,3.787c-3.822,2.189-6.969,5.119-9.627,8.605c-0.658,0.865-1.373,1.686-2.058,2.525
		c-0.159-0.088-0.319-0.178-0.478-0.27c0.248-0.73,0.357-1.553,0.765-2.18c2.354-3.627,4.552-7.391,7.241-10.758
		c3.379-4.229,4.707-8.93,3.914-14.107c-1.206-7.871-2.801-15.68-4.168-23.525c-2.053-11.783-1.382-23.367,2.447-34.765
		c0.879-2.615,1.156-5.434,1.541-8.196c-6.182,6.739-8.201,14.842-8.203,23.695c-0.002,8.461,2.032,16.619,3.299,24.899
		c0.77,5.021,1.357,10.144,1.232,15.202c-0.092,3.681-1.172,7.434-2.358,10.971c-1.819,5.41-4.111,10.664-6.228,16.047
		c-0.156-0.281-0.428-0.646-0.576-1.055c-2.166-5.904-4.365-11.799-6.42-17.74c-0.338-0.977-0.292-2.262,0.023-3.26
		c2.241-7.094,1.906-14.393,1.725-21.646c-0.22-8.903-0.756-17.799-1.145-26.488c-0.413,5.652-0.676,11.51-1.312,17.328
		c-0.79,7.267-3.082,14.168-5.564,21.023c-0.907,2.51-1.071,5.287-1.575,7.941l0.062-0.047
		C984.066,78.007,983.123,72.576,982.666,67.104z"/>
</g>
</svg>
