<?xml version="1.0" encoding="utf-8"?>
<!-- Generator: Adobe Illustrator 16.0.0, SVG Export Plug-In . SVG Version: 6.00 Build 0)  -->
<!DOCTYPE svg PUBLIC "-//W3C//DTD SVG 1.1//EN" "http://www.w3.org/Graphics/SVG/1.1/DTD/svg11.dtd">
<svg version="1.1" id="Layer_1" xmlns="http://www.w3.org/2000/svg" xmlns:xlink="http://www.w3.org/1999/xlink" x="0px" y="0px"
	 width="123.25px" height="34.5px" viewBox="0 -5.833 123.25 34.5" enable-background="new 0 -5.833 123.25 34.5"
	 xml:space="preserve">
<g id="Layer_4">
	<path fill="#FCE3CA" stroke="#000000" stroke-width="0.25" stroke-miterlimit="10" d="M29.472,12.449
		c-0.549,8.261-6.082,9.438-9.229,9.215c-3.063-0.215-7.162-3.866-7.162-9.189c0-5.325,3.924-9.555,6.256-9.968
		C24.471,1.602,29.864,6.563,29.472,12.449z"/>
</g>
<g id="Layer_2">
	<g>
		<path fill="#E54128" stroke="#000000" stroke-width="0.25" stroke-miterlimit="10" d="M19.812,23.018
			c-3.539-0.25-8.271-4.466-8.271-10.614c0-6.111,4.477-10.974,7.177-11.499C11.401,1.587,7.057,6.255,7.057,12.375
			c0,6.149,3.887,11.339,10.662,11.133c2.067-0.062,4.194-0.276,6.106-0.942C22.392,23.018,20.963,23.1,19.812,23.018z"/>
	</g>
	<path fill="#EF8D21" stroke="#000000" stroke-width="0.25" stroke-miterlimit="10" d="M30.47,12.375
		c-0.636,9.542-7.024,10.899-10.659,10.644c-3.539-0.25-8.271-4.466-8.271-10.614c0-6.147,4.532-11.034,7.225-11.509
		C24.694-0.152,30.923,5.578,30.47,12.375z M19.337,2.4c-2.333,0.412-6.256,4.643-6.256,9.966c0,5.323,4.099,8.975,7.162,9.19
		c3.147,0.221,8.679-0.954,9.23-9.215C29.865,6.456,24.471,1.494,19.337,2.4z"/>
	<path fill="#595859" stroke="#000000" stroke-width="0.25" stroke-linejoin="round" stroke-miterlimit="10" d="M22.21,12.212
		c0,0.33-0.184,0.532-0.471,0.593c-0.352,0.075-0.649-0.262-0.649-0.593c0-0.331,0.273-0.666,0.649-0.603
		C22.03,11.659,22.21,11.884,22.21,12.212z"/>
	<path fill="#F2CA52" stroke="#000000" stroke-width="0.25" stroke-miterlimit="10" d="M8.433,4.735
		c0.148,0.741,2.654,0.934,4.648-0.104c1.993-1.038,2.851-3.241,2.57-3.654c-1.177-1.74-3.373-2.534-5.366-1.497
		C8.292,0.519,8.018,2.674,8.433,4.735z"/>
	<path fill="#F2CA52" stroke="#000000" stroke-width="0.25" stroke-miterlimit="10" d="M26.271,3.042
		c0.635-0.23,1.052-0.543,1.082-0.75c0.289-1.951-0.727-3.894-2.764-4.441c-2.039-0.548-3.597,0.771-4.617,2.459
		c-0.07,0.119-0.067,0.279,0,0.463C22.222,0.715,24.449,1.575,26.271,3.042z"/>
	<polygon stroke="#000000" stroke-width="0.25" stroke-miterlimit="10" points="21.076,6.464 20.484,6.528 20.04,3.772 
		20.632,3.708 	"/>
	<polygon stroke="#000000" stroke-width="0.25" stroke-miterlimit="10" points="22.727,20.587 22.135,20.653 21.691,17.894 
		22.283,17.833 	"/>
	
		<rect x="14.359" y="13.065" transform="matrix(-0.9821 0.1884 -0.1884 -0.9821 33.6339 23.4057)" stroke="#000000" stroke-width="0.25" stroke-miterlimit="10" width="2.69" height="0.472"/>
	
		<rect x="25.698" y="10.367" transform="matrix(-0.9821 0.1882 -0.1882 -0.9821 55.4553 15.9402)" stroke="#000000" stroke-width="0.25" stroke-miterlimit="10" width="2.545" height="0.473"/>
	
		<ellipse transform="matrix(0.2212 -0.9752 0.9752 0.2212 -3.8754 28.3729)" stroke="#000000" stroke-width="0.25" stroke-miterlimit="10" cx="15.826" cy="16.613" rx="0.237" ry="0.2"/>
	
		<ellipse transform="matrix(0.2201 -0.9755 0.9755 0.2201 -4.3806 33.6449)" stroke="#000000" stroke-width="0.25" stroke-miterlimit="10" cx="18.851" cy="19.562" rx="0.236" ry="0.199"/>
	
		<ellipse transform="matrix(-0.6575 -0.7535 0.7535 -0.6575 28.2335 48.6627)" stroke="#000000" stroke-width="0.25" stroke-miterlimit="10" cx="25.177" cy="17.914" rx="0.237" ry="0.199"/>
	
		<ellipse transform="matrix(-0.6569 -0.754 0.754 -0.6569 34.691 43.595)" stroke="#000000" stroke-width="0.25" stroke-miterlimit="10" cx="27.265" cy="13.904" rx="0.236" ry="0.199"/>
	
		<ellipse transform="matrix(0.376 -0.9266 0.9266 0.376 10.8053 24.8109)" stroke="#000000" stroke-width="0.25" stroke-miterlimit="10" cx="23.825" cy="4.383" rx="0.236" ry="0.2"/>
	
		<ellipse transform="matrix(0.376 -0.9266 0.9266 0.376 9.6138 29.4537)" stroke="#000000" stroke-width="0.25" stroke-miterlimit="10" cx="26.676" cy="7.589" rx="0.236" ry="0.199"/>
	
		<ellipse transform="matrix(0.9113 0.4118 -0.4118 0.9113 5.4982 -5.0538)" stroke="#000000" stroke-width="0.25" stroke-miterlimit="10" cx="14.478" cy="10.233" rx="0.237" ry="0.199"/>
	
		<ellipse transform="matrix(0.8729 0.4879 -0.4879 0.8729 4.788 -7.3799)" stroke="#000000" stroke-width="0.25" stroke-miterlimit="10" cx="16.558" cy="5.5" rx="0.237" ry="0.2"/>
	<path fill="#939191" stroke="#000000" stroke-width="0.25" stroke-linejoin="round" stroke-miterlimit="10" d="M17.983,0.988
		l-0.646,0.093c0,0-0.046-0.225,0.092-1.196c0.107-0.742,0.153-0.984,0.207-0.991c0.052-0.007,0.097,0.08,0.221,0.09
		c0.207,0.016,0.311-0.146,0.339-0.09c0.026,0.056-0.072,0.122-0.177,1.046C17.915,0.842,17.983,0.988,17.983,0.988z"/>
	<path fill="#727172" stroke="#000000" stroke-width="0.25" stroke-linejoin="round" stroke-miterlimit="10" d="M17.224-1.423
		c0,0.271,0.308,0.402,0.729,0.402c0.476,0,0.756-0.187,0.756-0.44c0-0.375-0.424-0.77-0.785-0.77
		C17.565-2.231,17.224-1.797,17.224-1.423z"/>
	<path fill="#595859" stroke="#000000" stroke-width="0.25" stroke-linejoin="round" stroke-miterlimit="10" d="M21.257,9.336
		c-0.045,0.839,0.036,1.791,0.125,2.183c0.027,0.118,0.096,0.077,0.211,0.07c0.119-0.006,0.203,0.05,0.225-0.06
		c0.079-0.398,0.24-1.339,0.284-2.151c0.066-1.236-0.069-2.246-0.303-2.259C21.565,7.106,21.323,8.099,21.257,9.336z"/>
	<path fill="#595859" stroke="#000000" stroke-width="0.25" stroke-linejoin="round" stroke-miterlimit="10" d="M24.275,9.711
		c-0.928,0.655-1.856,1.456-2.199,1.869c-0.089,0.108-0.042,0.173,0.043,0.277c0.084,0.106,0.081,0.239,0.215,0.167
		c0.481-0.262,1.601-0.897,2.495-1.529c1.364-0.962,2.346-1.92,2.194-2.136C26.871,8.142,25.639,8.748,24.275,9.711z"/>
	<polygon stroke="#000000" stroke-width="0.25" stroke-miterlimit="10" points="5.074,1.916 4.829,2.231 2.019,0.523 2.627,-0.26 	
		"/>
	<polygon stroke="#000000" stroke-width="0.25" stroke-miterlimit="10" points="3.909,6.458 3.821,6.645 1,5.829 1.38,5.026 	"/>
	<polygon stroke="#000000" stroke-width="0.25" stroke-miterlimit="10" points="28.526,-1.211 28.844,-0.967 31.127,-3.336 
		30.339,-3.939 	"/>
	<polygon stroke="#000000" stroke-width="0.25" stroke-miterlimit="10" points="30.995,2.982 31.1,3.16 33.839,2.106 33.392,1.339 	
		"/>
	<path fill="#939191" stroke="#000000" stroke-width="0.25" stroke-linejoin="round" stroke-miterlimit="10" d="M14.528,21.342
		c-0.641-0.205-1.242-0.106-1.346,0.216l-1.703,3.498c0.179-0.211,0.542-0.198,0.808,0.03c0.229,0.195,0.312,0.482,0.219,0.693
		l0.001,0.002l2.869-3.315c0.06-0.047,0.103-0.104,0.124-0.17C15.604,21.972,15.168,21.547,14.528,21.342z"/>
	<path fill="#939191" stroke="#000000" stroke-width="0.25" stroke-linejoin="round" stroke-miterlimit="10" d="M27.408,20.429
		c-0.62,0.631-1.299,1.122-2.001,1.498l2.645,1.322l0.001-0.002c0.234,0.115,0.604-0.017,0.878-0.33
		c0.307-0.351,0.375-0.792,0.152-0.986L27.408,20.429z"/>
	<path fill="#595859" stroke="#000000" stroke-width="0.25" stroke-linejoin="round" stroke-miterlimit="10" d="M11.136-0.104
		c0.131,0.224,0.001,0.42-0.187,0.498c-0.168,0.069-0.449,0.104-0.555-0.138c-0.151-0.342-0.349-1.014-0.099-1.138
		C10.544-1.003,10.949-0.427,11.136-0.104z"/>
	<path fill="#595859" stroke="#000000" stroke-width="0.25" stroke-linejoin="round" stroke-miterlimit="10" d="M24.913-1.464
		c-0.052,0.239-0.267,0.292-0.446,0.226c-0.16-0.059-0.375-0.212-0.297-0.448c0.112-0.332,0.402-0.922,0.653-0.849
		C25.076-2.461,24.989-1.807,24.913-1.464z"/>
</g>
<g id="Layer_3">
	<path opacity="0.3" fill="#61564A" stroke="#000000" stroke-width="0.25" stroke-miterlimit="10" enable-background="new    " d="
		M19.337,2.4c5.133-0.906,10.166,4.689,9.502,10.552c-0.542,4.795-3.8,7.662-7.85,7.921c-3.065,0.199-7.908-3.184-7.908-8.506
		c0,5.323,4.099,8.975,7.162,9.19c3.147,0.221,8.679-0.954,9.23-9.215C29.865,6.456,24.471,1.494,19.337,2.4z"/>
	<path fill="#727172" stroke="#000000" stroke-width="0.25" stroke-linejoin="round" stroke-miterlimit="10" d="M14.698,21.403
		l-2.196,3.98l0.04,0.16l-0.033,0.238l2.932-3.378c0,0,0.385-0.358-0.395-0.823C14.852,21.465,14.698,21.403,14.698,21.403z"/>
	<path fill="#727172" stroke="#000000" stroke-width="0.25" stroke-linejoin="round" stroke-miterlimit="10" d="M26.787,20.971
		c-0.698,0.539-0.677,0.578-1.378,0.956l2.644,1.322l0.001-0.002c0.234,0.115,0.451,0.023,0.62-0.104
		c0.131-0.1-0.007-0.306-0.229-0.501L26.787,20.971z"/>
	<path fill="#F7DC96" stroke="#000000" stroke-width="0.25" stroke-linejoin="round" stroke-miterlimit="10" d="M10.395,0.577
		c0,0-1.545,0.791-0.822,3.806l0.583-0.424c0,0-0.596-1.48,0.219-3.294L10.395,0.577z"/>
	<path fill="#F7DC96" stroke="#000000" stroke-width="0.25" stroke-linejoin="round" stroke-miterlimit="10" d="M25.125-1.241
		c0,0,1.507,0.342,1.909,2.798L26.361,1.95c0,0,0.093-2.196-1.187-3.116L25.125-1.241z"/>
	
		<ellipse transform="matrix(-0.7615 -0.6481 0.6481 -0.7615 4.5647 52.617)" fill="#595859" stroke="#000000" stroke-width="0.25" stroke-linejoin="round" stroke-miterlimit="10" cx="11.962" cy="25.469" rx="0.635" ry="0.5"/>
</g>
<g id="Layer_5">
	<text transform="matrix(0.8169 0 0 1 34.6406 19.1929)" font-family="'MyriadPro-Bold'" font-size="20.3933">TimeTaskIt!</text>
</g>
</svg>
