<?xml version="1.0" encoding="utf-8"?>
<!-- Generator: Adobe Illustrator 16.0.0, SVG Export Plug-In . SVG Version: 6.00 Build 0)  -->
<!DOCTYPE svg PUBLIC "-//W3C//DTD SVG 1.1//EN" "http://www.w3.org/Graphics/SVG/1.1/DTD/svg11.dtd">
<svg version="1.1" id="Layer_1" xmlns="http://www.w3.org/2000/svg" xmlns:xlink="http://www.w3.org/1999/xlink" x="0px" y="0px"
	 width="613.667px" height="75px" viewBox="0 0 613.667 75" enable-background="new 0 0 613.667 75" xml:space="preserve">
<path fill="#FFFFFF" d="M490.667,0.182V0H245.333v0.363H0v57.171c0,0,7.225,12.103,20.444,12.103s20.445-12.103,20.445-12.103
	s7.226,12.103,20.444,12.103c13.219,0,20.444-12.103,20.444-12.103s7.226,12.103,20.444,12.103c13.22,0,20.445-12.103,20.445-12.103
	s7.226,12.103,20.445,12.103c13.218,0,20.443-12.103,20.443-12.103S170.782,69.637,184,69.637s20.445-12.103,20.445-12.103
	s7.225,12.103,20.444,12.103c13.218,0,20.444-12.103,20.444-12.103v-0.363c0,0,7.225,12.103,20.444,12.103
	s20.445-12.103,20.445-12.103s7.226,12.103,20.445,12.103c13.218,0,20.444-12.103,20.444-12.103s7.226,12.103,20.444,12.103
	c13.22,0,20.445-12.103,20.445-12.103s7.225,12.103,20.444,12.103c13.218,0,20.443-12.103,20.443-12.103s7.227,12.103,20.445,12.103
	s20.444-12.103,20.444-12.103s7.226,12.103,20.445,12.103c13.218,0,20.443-12.103,20.443-12.103v0.182
	c0,0,7.225,12.103,20.444,12.103c13.219,0,20.444-12.103,20.444-12.103S538.782,69.455,552,69.455
	c13.22,0,20.445-12.103,20.445-12.103s7.225,12.103,20.444,12.103c13.219,0,20.777-12.08,20.777-12.08s6.893,12.08,20.111,12.08
	c13.218,0,20.443-12.103,20.443-12.103s7.227,12.103,20.446,12.103c13.218,0,20.444-12.103,20.444-12.103
	s7.225,12.103,20.444,12.103c13.218,0,20.443-12.103,20.443-12.103V0.182H490.667z"/>
</svg>
