<?xml version="1.0" encoding="utf-8"?>
<!-- Generator: Adobe Illustrator 16.0.0, SVG Export Plug-In . SVG Version: 6.00 Build 0)  -->
<!DOCTYPE svg PUBLIC "-//W3C//DTD SVG 1.1//EN" "http://www.w3.org/Graphics/SVG/1.1/DTD/svg11.dtd">
<svg version="1.1" xmlns="http://www.w3.org/2000/svg" xmlns:xlink="http://www.w3.org/1999/xlink" x="0px" y="0px"
	 width="1309.253px" height="1224px" viewBox="0 0 1309.253 1224" enable-background="new 0 0 1309.253 1224" xml:space="preserve">
<g id="Layer_1">
	<path fill="#12557A" d="M0,1224V55.165c10.144,18.284,44.224,18.284,56.607,0c10.144,18.284,44.223,18.284,56.607,0
		c10.144,18.284,44.225,18.284,56.607,0c10.144,18.284,44.224,18.284,56.607,0c10.144,18.284,44.224,18.284,56.607,0
		c10.144,18.284,44.223,18.284,56.607,0c10.145,18.284,44.225,18.284,56.607,0c10.144,18.284,44.226,18.284,56.608,0
		c10.145,18.284,44.225,18.284,56.608,0c10.144,18.284,44.223,18.284,56.606,0c10.144,18.284,44.226,18.284,56.605,0
		c10.146,18.284,44.227,18.284,56.61,0c10.143,18.284,44.223,18.284,56.606,0V1224H0z"/>
	<path fill="#12557A" d="M1470.792,1224V55.165c-10.144,18.284-44.224,18.284-56.607,0c-10.144,18.284-44.224,18.284-56.606,0
		c-10.145,18.284-44.225,18.284-56.607,0c-10.144,18.284-44.225,18.284-56.607,0c-10.145,18.284-44.224,18.284-56.607,0
		c-10.144,18.284-44.224,18.284-56.606,0c-10.145,18.284-44.225,18.284-56.607,0c-10.145,18.284-44.227,18.284-56.608,0
		c-10.145,18.284-44.225,18.284-56.608,0c-10.144,18.284-44.223,18.284-56.606,0c-10.144,18.284-44.226,18.284-56.605,0
		c-10.146,18.284-44.227,18.284-56.61,0c-10.143,18.284-43.224,18.284-55.607,0l-0.999,3.464V1224H1470.792z"/>
</g>
<g id="Layer_2">
	<path opacity="0.2" fill="#A1A1A1" d="M972.784,229.698c1.483,1.031,2.516,2.451,3.774,3.721c0.172,0.173,3.571,3.102,3.684,2.644
		c0.039-0.157-0.415-0.771-0.466-0.901c-0.11-0.294-0.386-0.668-0.601-0.901c0.073-0.291-0.386-0.821-0.456-1.098
		c-0.061-0.244-0.246-0.284-0.291-0.521c-0.03-0.149-0.061-0.374-0.13-0.524c-0.126-0.267-0.235-0.722-0.485-0.894
		c0.017-0.344-0.229-0.989-0.422-1.238c0.101-0.104,0.101-0.214,0.001-0.335c-0.208-0.328,0.06-0.279-0.083-0.465
		c-0.139-0.178-0.28-0.562-0.291-0.783c-0.013-0.297,0.304-0.616,0.136-0.932c0.023-0.372,0.297-0.536,0.297-0.919
		c0-0.32,0.248-0.644,0.222-0.983c0.109-0.124,0.474-0.947,0.431-1.095c0.176-0.201,0.252-0.625,0.235-0.876
		c0.339-0.216,0.479-0.882,0.658-1.237c0.154-0.305,0.283-0.689,0.497-0.946c0.087-0.104,0.602-0.971,0.566-1.1
		c-0.072-0.266-1.765,0.924-1.915,1.052c-0.89,0.759-1.707,1.61-2.485,2.483c-1.569,1.768-2.684,3.556-5.273,3.269
		c0.252-0.275,0.436-0.323,0.436-0.323c-0.237-0.133-0.505-0.175-0.76-0.07c-0.415,0.171-0.389,0.206-0.887,0.052
		c0.288-0.285,0.629-0.33,0.629-0.33c-0.283-0.164-0.567-0.286-0.873-0.133c-0.504,0.25-0.502,0.247-1.09,0.051
		c0.043-0.101,0.394-0.312,0.662-0.306c-0.292-0.323-0.671-0.379-1.078-0.278c-0.668,0.166-0.85,0.123-1.526-0.126
		c0.054-0.115,0.656-0.322,0.917-0.254c-0.286-0.337-0.77-0.383-1.169-0.3c-0.643,0.133-0.725,0.146-1.39-0.103
		c0.153-0.258,0.558-0.202,0.817-0.229c-0.262-0.307-0.641-0.39-1.021-0.284c-0.165,0.045-0.311,0.125-0.435,0.241
		c-0.257-0.096-0.52-0.176-0.775-0.272c0.081-0.137,0.448-0.293,0.812-0.25c-0.27-0.316-0.764-0.413-1.143-0.29
		c-0.575,0.187-0.618,0.207-1.235-0.006c0.064-0.135,0.573-0.391,0.955-0.313c-0.591-0.657-1.116-0.39-1.668,0.105
		c-0.551-0.175-1.075-0.446-1.634-0.596c0.35-0.155,0.698-0.311,1.048-0.465c-2.372-0.617-3.127-3.274-1.866-5.242
		c-1.957,0.975-2.961,2.32-4.551,4.016c-0.641-0.124-0.405-0.871-0.668-0.979c-0.255-0.104-0.123,0.463-0.448,0.038
		c-0.004-0.005-0.299-0.542-0.335-0.51c-0.627,0.559-0.479-0.522-0.853-0.356c-0.218,0.096-0.13,0.321-0.436,0.143
		c-0.095-0.056-0.334-0.562-0.343-0.559c-0.193,0.058-0.115,0.359-0.422,0.263c-0.329-0.104-0.086-0.383-0.194-0.578
		c-0.044-0.079-0.299,0.224-0.369,0.236c-0.408,0.073-0.171-0.464-0.32-0.572c-0.072-0.052-0.268,0.188-0.349,0.206
		c-0.445,0.1-0.255-0.375-0.368-0.575c-0.028-0.051-0.229,0.233-0.317,0.233c-0.395,0-0.205-0.372-0.327-0.552
		c-0.068-0.101-0.212,0.235-0.321,0.188c-0.267-0.112-0.106-0.454-0.244-0.578c-0.104-0.095-0.183,0.271-0.417-0.094
		c-0.021-0.035-0.11-0.458-0.154-0.467c-0.214-0.047-0.278,0.362-0.531,0.001c-0.046-0.064-0.039-0.542-0.054-0.537
		c-0.088,0.031-0.337,0.439-0.461,0.237c-0.046-0.074,0.137-0.535,0.018-0.529c-0.339,0.018-0.696,0.091-0.462-0.548
		c-0.684,0.225-0.137-0.557-0.359-0.745c-0.166-0.14-0.427,0.468-0.706,0.147c-1.605,1.217-3.012,2.714-4.083,4.424
		c-0.279,0.446-0.535,0.907-0.766,1.38c-0.119,0.243-0.23,0.488-0.334,0.738c-0.387,0.046-0.77,0.102-1.152,0.168
		c-1.188,0.203-2.36,0.49-3.513,0.841c-2.146,0.654-4.237,1.522-6.2,2.613c-0.843,0.468-1.727,0.958-2.446,1.607
		c-0.216,0.195-1.788,1.495-1.56,1.543c0.001-0.015,0.259,0.173,0.28,0.178c0.196,0.041,0.05,0.005,0.22,0.079
		c0.528,0.23,1.106,0.258,1.863,0.76c-0.223-0.15-2.504-0.585-2.514-0.574c-0.58,0.614,1.799,2.042,2.193,2.304
		c1.316,0.877,2.732,1.638,4.22,2.18c0.627,0.228,1.272,0.419,1.934,0.519c0.775,0.116,1.428,0.349,2.186,0.574
		c0.647,0.192,3.33,0.429,3.526,0.996c0.458,1.324,1.505,2.62,2.573,3.509c0.178,0.149,0.995,0.873,1.207,0.637
		c0.379-0.418,0.343-1.297,0.2-1.804c-0.085-0.303,0.089-0.562,0.02-0.861c-0.141-0.605-0.915-1.092-1.356-1.45
		c3.308,0.473,6.543,0.835,9.872,0.365c2.144-0.303,4.259-0.788,6.364-1.285c0.79,0.735,1.759,1.283,2.766,1.663
		c0.377,0.143,1.978,0.78,2.332,0.543c-0.142,0.094-1.263-1.418-1.359-1.662c-0.221-0.561,0.308-1.462-0.485-1.665
		c0.446-0.149,0.895-0.291,1.342-0.444c0.206-0.07,0.346,0.192,0.542,0.276c0.368,0.156,0.877,0.04,1.143-0.269
		c-0.163-0.057-0.891-0.157-0.962-0.281c0.581-0.231,0.548-0.218,1.066-0.014c0.359,0.142,0.855,0.018,1.112-0.28
		c-0.272,0.076-0.854-0.094-0.933-0.221c0.621-0.258,0.551-0.221,1.102,0.011c0.363,0.152,0.872,0.035,1.133-0.271
		c-0.319,0.059-0.893-0.157-0.961-0.281c0.637-0.271,0.603-0.262,1.166-0.031c0.365,0.149,0.865,0.028,1.128-0.275
		c-0.218,0.042-0.893-0.132-0.956-0.258c0.57-0.24,0.556-0.229,1.067-0.033c0.37,0.142,0.762-0.003,1.016-0.293
		c-0.203,0.065-0.734-0.103-0.812-0.192c0.572-0.23,0.533-0.188,1.042,0.013c0.359,0.143,0.858,0.021,1.115-0.279
		c-0.237,0.056-0.794-0.132-0.888-0.221c0.372-0.136,0.717-0.385,1.05-0.159c0.411,0.278,0.909,0.192,1.231-0.18
		c-0.374,0.088-0.723-0.047-0.807-0.159C970.562,229.252,971.829,229.032,972.784,229.698"/>
	<path opacity="0.2" fill="#A1A1A1" d="M1007.162,261.497c1.323,0.92,2.244,2.188,3.368,3.321c0.152,0.154,3.188,2.769,3.287,2.36
		c0.035-0.14-0.371-0.688-0.415-0.805c-0.1-0.263-0.345-0.596-0.536-0.804c0.065-0.259-0.345-0.733-0.407-0.979
		c-0.055-0.218-0.22-0.253-0.261-0.465c-0.026-0.133-0.054-0.334-0.115-0.468c-0.112-0.238-0.209-0.645-0.433-0.797
		c0.015-0.308-0.204-0.883-0.378-1.104c0.091-0.093,0.091-0.192,0.002-0.3c-0.187-0.292,0.053-0.249-0.074-0.415
		c-0.124-0.159-0.251-0.501-0.259-0.698c-0.013-0.265,0.27-0.55,0.12-0.832c0.021-0.332,0.265-0.478,0.265-0.82
		c0-0.286,0.223-0.574,0.198-0.877c0.099-0.11,0.423-0.845,0.385-0.978c0.157-0.179,0.225-0.558,0.209-0.782
		c0.304-0.193,0.428-0.787,0.588-1.104c0.139-0.271,0.253-0.615,0.444-0.844c0.077-0.092,0.537-0.867,0.506-0.982
		c-0.065-0.236-1.575,0.824-1.71,0.939c-0.794,0.677-1.523,1.437-2.218,2.217c-1.4,1.577-2.396,3.173-4.707,2.917
		c0.226-0.246,0.39-0.288,0.39-0.288c-0.212-0.119-0.451-0.156-0.679-0.062c-0.37,0.153-0.348,0.183-0.791,0.046
		c0.257-0.254,0.562-0.294,0.562-0.294c-0.253-0.146-0.507-0.256-0.78-0.12c-0.45,0.224-0.447,0.22-0.972,0.045
		c0.038-0.09,0.352-0.278,0.59-0.272c-0.26-0.289-0.599-0.339-0.962-0.249c-0.596,0.148-0.758,0.109-1.362-0.113
		c0.049-0.102,0.586-0.288,0.818-0.226c-0.255-0.301-0.688-0.342-1.043-0.268c-0.573,0.118-0.646,0.13-1.241-0.092
		c0.138-0.23,0.499-0.18,0.73-0.204c-0.234-0.274-0.572-0.348-0.911-0.254c-0.146,0.04-0.275,0.112-0.388,0.215
		c-0.229-0.086-0.463-0.157-0.692-0.243c0.074-0.123,0.399-0.262,0.726-0.223c-0.24-0.282-0.682-0.368-1.02-0.259
		c-0.513,0.167-0.552,0.185-1.103-0.006c0.058-0.121,0.511-0.348,0.852-0.279c-0.526-0.586-0.995-0.348-1.488,0.095
		c-0.49-0.157-0.959-0.398-1.458-0.533c0.312-0.138,0.623-0.277,0.935-0.416c-2.115-0.55-2.79-2.922-1.664-4.678
		c-1.747,0.869-2.643,2.07-4.062,3.584c-0.571-0.11-0.361-0.777-0.596-0.874c-0.228-0.093-0.109,0.414-0.401,0.034
		c-0.002-0.005-0.266-0.483-0.297-0.456c-0.561,0.5-0.429-0.466-0.762-0.317c-0.194,0.085-0.116,0.286-0.389,0.126
		c-0.085-0.049-0.297-0.5-0.307-0.498c-0.172,0.051-0.103,0.321-0.376,0.234c-0.293-0.093-0.076-0.342-0.174-0.515
		c-0.039-0.07-0.267,0.2-0.329,0.21c-0.363,0.065-0.152-0.414-0.285-0.51c-0.064-0.046-0.239,0.168-0.312,0.184
		c-0.397,0.089-0.228-0.334-0.328-0.513c-0.025-0.045-0.205,0.208-0.283,0.208c-0.352,0-0.184-0.333-0.293-0.493
		c-0.06-0.09-0.188,0.21-0.287,0.167c-0.236-0.1-0.095-0.405-0.217-0.516c-0.093-0.085-0.162,0.242-0.373-0.084
		c-0.02-0.031-0.098-0.409-0.137-0.417c-0.19-0.042-0.249,0.324-0.475,0.001c-0.04-0.057-0.034-0.483-0.048-0.479
		c-0.078,0.027-0.302,0.393-0.411,0.212c-0.04-0.067,0.122-0.478,0.015-0.473c-0.302,0.016-0.621,0.081-0.411-0.489
		c-0.611,0.201-0.122-0.498-0.321-0.665c-0.147-0.125-0.379,0.417-0.629,0.131c-1.435,1.086-2.688,2.422-3.645,3.949
		c-0.25,0.398-0.478,0.809-0.685,1.231c-0.105,0.217-0.205,0.437-0.298,0.658c-0.345,0.042-0.688,0.092-1.027,0.15
		c-1.06,0.18-2.107,0.438-3.136,0.751c-1.916,0.583-3.782,1.358-5.533,2.332c-0.753,0.417-1.541,0.855-2.184,1.435
		c-0.192,0.174-1.596,1.334-1.393,1.377c0.001-0.014,0.231,0.155,0.251,0.159c0.175,0.037,0.045,0.004,0.195,0.07
		c0.473,0.205,0.988,0.23,1.664,0.678c-0.199-0.134-2.234-0.522-2.244-0.512c-0.518,0.548,1.605,1.822,1.959,2.056
		c1.174,0.782,2.438,1.461,3.765,1.945c0.56,0.204,1.136,0.374,1.725,0.463c0.693,0.104,1.276,0.312,1.952,0.512
		c0.578,0.172,2.972,0.383,3.147,0.889c0.408,1.182,1.344,2.338,2.297,3.132c0.158,0.132,0.888,0.778,1.077,0.568
		c0.338-0.373,0.305-1.157,0.178-1.61c-0.075-0.27,0.079-0.501,0.018-0.768c-0.125-0.54-0.816-0.975-1.211-1.294
		c2.952,0.422,5.84,0.746,8.811,0.326c1.914-0.271,3.802-0.704,5.68-1.147c0.706,0.657,1.57,1.146,2.469,1.485
		c0.337,0.126,1.766,0.695,2.082,0.484c-0.127,0.085-1.127-1.266-1.213-1.482c-0.198-0.501,0.274-1.305-0.435-1.486
		c0.398-0.132,0.8-0.259,1.197-0.396c0.185-0.062,0.31,0.171,0.485,0.246c0.328,0.14,0.782,0.036,1.019-0.24
		c-0.145-0.051-0.793-0.14-0.858-0.25c0.519-0.207,0.49-0.194,0.952-0.013c0.321,0.127,0.764,0.016,0.993-0.25
		c-0.243,0.068-0.763-0.083-0.833-0.197c0.555-0.229,0.492-0.197,0.983,0.009c0.324,0.136,0.778,0.032,1.012-0.242
		c-0.285,0.053-0.798-0.14-0.857-0.25c0.567-0.243,0.536-0.234,1.04-0.028c0.325,0.133,0.771,0.025,1.006-0.246
		c-0.193,0.038-0.796-0.118-0.854-0.229c0.51-0.215,0.497-0.205,0.954-0.031c0.33,0.127,0.68-0.002,0.906-0.262
		c-0.182,0.059-0.656-0.091-0.726-0.171c0.512-0.205,0.477-0.167,0.93,0.012c0.321,0.127,0.768,0.019,0.996-0.249
		c-0.212,0.049-0.709-0.119-0.792-0.197c0.332-0.122,0.64-0.344,0.938-0.142c0.366,0.248,0.811,0.17,1.098-0.161
		c-0.333,0.079-0.645-0.042-0.719-0.142C1005.178,261.1,1006.309,260.904,1007.162,261.497"/>
	<path opacity="0.2" fill="#A1A1A1" d="M1014.335,200.712c1.032,0.718,1.749,1.707,2.627,2.591c0.119,0.12,2.486,2.16,2.564,1.841
		c0.027-0.11-0.288-0.537-0.324-0.628c-0.077-0.205-0.268-0.465-0.418-0.627c0.052-0.202-0.269-0.571-0.317-0.764
		c-0.043-0.17-0.171-0.198-0.202-0.363c-0.021-0.104-0.042-0.261-0.091-0.365c-0.087-0.187-0.163-0.503-0.339-0.623
		c0.013-0.24-0.157-0.689-0.292-0.862c0.069-0.073,0.069-0.15,0-0.234c-0.144-0.228,0.041-0.194-0.058-0.323
		c-0.097-0.125-0.195-0.392-0.202-0.545c-0.01-0.207,0.211-0.429,0.093-0.648c0.018-0.26,0.208-0.374,0.208-0.64
		c0-0.223,0.174-0.449,0.154-0.685c0.077-0.086,0.329-0.66,0.3-0.763c0.122-0.139,0.176-0.435,0.163-0.61
		c0.236-0.15,0.334-0.614,0.46-0.861c0.107-0.212,0.195-0.479,0.346-0.659c0.061-0.072,0.419-0.676,0.395-0.765
		c-0.051-0.186-1.229,0.643-1.334,0.732c-0.62,0.528-1.188,1.121-1.73,1.729c-1.094,1.23-1.868,2.476-3.672,2.276
		c0.175-0.192,0.303-0.225,0.303-0.225c-0.165-0.092-0.352-0.122-0.529-0.049c-0.289,0.119-0.271,0.143-0.617,0.036
		c0.199-0.198,0.438-0.229,0.438-0.229c-0.197-0.114-0.395-0.199-0.607-0.093c-0.351,0.174-0.349,0.172-0.759,0.036
		c0.03-0.07,0.274-0.218,0.462-0.213c-0.204-0.225-0.468-0.265-0.752-0.194c-0.464,0.116-0.592,0.085-1.063-0.087
		c0.038-0.08,0.458-0.225,0.64-0.176c-0.199-0.235-0.537-0.267-0.813-0.21c-0.448,0.093-0.504,0.102-0.969-0.071
		c0.107-0.18,0.39-0.141,0.569-0.159c-0.184-0.214-0.445-0.272-0.709-0.198c-0.116,0.031-0.218,0.086-0.304,0.167
		c-0.18-0.067-0.362-0.123-0.541-0.19c0.059-0.095,0.312-0.205,0.566-0.173c-0.187-0.22-0.531-0.288-0.795-0.202
		c-0.401,0.13-0.431,0.144-0.861-0.004c0.046-0.094,0.4-0.272,0.666-0.218c-0.411-0.458-0.776-0.271-1.161,0.073
		c-0.384-0.122-0.749-0.31-1.139-0.415c0.243-0.108,0.486-0.216,0.729-0.324c-1.649-0.429-2.175-2.279-1.298-3.649
		c-1.363,0.678-2.061,1.615-3.17,2.796c-0.444-0.085-0.281-0.606-0.464-0.681c-0.178-0.073-0.085,0.322-0.313,0.026
		c-0.001-0.003-0.207-0.377-0.232-0.354c-0.437,0.389-0.334-0.364-0.594-0.248c-0.15,0.067-0.09,0.224-0.302,0.099
		c-0.067-0.039-0.233-0.391-0.24-0.389c-0.134,0.041-0.079,0.25-0.294,0.184c-0.228-0.073-0.06-0.267-0.135-0.402
		c-0.03-0.055-0.208,0.155-0.258,0.164c-0.284,0.051-0.117-0.323-0.222-0.398c-0.05-0.036-0.188,0.131-0.243,0.143
		c-0.311,0.069-0.178-0.261-0.256-0.4c-0.02-0.036-0.159,0.162-0.222,0.162c-0.274,0-0.144-0.259-0.229-0.385
		c-0.048-0.07-0.146,0.164-0.224,0.131c-0.186-0.079-0.074-0.317-0.169-0.402c-0.073-0.067-0.127,0.188-0.29-0.066
		c-0.017-0.024-0.077-0.319-0.108-0.326c-0.149-0.032-0.193,0.252-0.369,0.001c-0.032-0.044-0.028-0.377-0.038-0.374
		c-0.062,0.021-0.234,0.306-0.321,0.165c-0.032-0.052,0.095-0.373,0.013-0.368c-0.236,0.012-0.485,0.063-0.32-0.382
		c-0.478,0.156-0.097-0.388-0.252-0.519c-0.115-0.098-0.296,0.326-0.492,0.103c-1.117,0.848-2.096,1.891-2.843,3.081
		c-0.194,0.311-0.373,0.631-0.532,0.96c-0.083,0.169-0.161,0.34-0.233,0.514c-0.27,0.032-0.536,0.071-0.802,0.117
		c-0.827,0.141-1.644,0.342-2.446,0.585c-1.494,0.456-2.951,1.06-4.317,1.82c-0.587,0.326-1.202,0.667-1.703,1.12
		c-0.15,0.136-1.245,1.041-1.086,1.074c0.001-0.01,0.18,0.121,0.194,0.124c0.137,0.029,0.036,0.003,0.153,0.055
		c0.369,0.16,0.771,0.18,1.298,0.529c-0.154-0.104-1.744-0.408-1.75-0.4c-0.404,0.428,1.252,1.421,1.526,1.604
		c0.917,0.61,1.903,1.14,2.938,1.518c0.438,0.16,0.887,0.292,1.347,0.361c0.54,0.081,0.994,0.243,1.521,0.399
		c0.452,0.134,2.318,0.299,2.456,0.694c0.318,0.922,1.048,1.824,1.792,2.443c0.124,0.103,0.693,0.607,0.84,0.443
		c0.264-0.292,0.239-0.903,0.141-1.257c-0.06-0.21,0.062-0.391,0.013-0.599c-0.099-0.421-0.637-0.761-0.944-1.01
		c2.303,0.33,4.556,0.582,6.875,0.255c1.491-0.211,2.966-0.549,4.432-0.895c0.549,0.512,1.224,0.894,1.925,1.158
		c0.262,0.099,1.376,0.543,1.624,0.378c-0.099,0.066-0.88-0.987-0.947-1.156c-0.152-0.392,0.216-1.019-0.339-1.16
		c0.312-0.104,0.624-0.202,0.935-0.309c0.145-0.049,0.241,0.133,0.378,0.191c0.257,0.109,0.612,0.028,0.797-0.188
		c-0.115-0.04-0.621-0.109-0.671-0.195c0.404-0.161,0.384-0.152,0.744-0.01c0.25,0.098,0.595,0.013,0.773-0.195
		c-0.19,0.053-0.595-0.065-0.649-0.154c0.433-0.18,0.384-0.154,0.768,0.007c0.253,0.106,0.606,0.024,0.789-0.189
		c-0.224,0.042-0.623-0.108-0.67-0.195c0.443-0.188,0.419-0.182,0.812-0.021c0.254,0.104,0.604,0.019,0.786-0.192
		c-0.152,0.029-0.622-0.092-0.667-0.18c0.398-0.167,0.388-0.16,0.745-0.023c0.258,0.099,0.53-0.001,0.706-0.204
		c-0.14,0.045-0.511-0.071-0.566-0.134c0.4-0.16,0.373-0.131,0.728,0.009c0.25,0.1,0.597,0.015,0.776-0.194
		c-0.164,0.039-0.553-0.092-0.618-0.153c0.258-0.095,0.499-0.269,0.73-0.111c0.287,0.193,0.633,0.134,0.857-0.125
		c-0.26,0.062-0.504-0.033-0.56-0.111C1012.786,200.402,1013.668,200.249,1014.335,200.712"/>
	<path opacity="0.2" fill="#A1A1A1" d="M97.282,170.78c-0.571-0.182,0.4-0.502,0.512-0.541c-0.568-0.201,0.551-0.463,0.677-0.499
		c-0.236-0.191,1.415-0.818,1.526-0.856c-0.096-0.398-0.283-0.343,0.475-0.467c0.042-0.228-0.271-0.18,0.095-0.244
		c-0.373-0.148,0.747-0.386,0.771-0.392c-0.053-0.037-0.162-0.063-0.197-0.121c-0.059-0.095,0.655-0.205,0.62-0.198
		c-0.011-0.065-0.133-0.072-0.164-0.127c-0.061-0.111,0.871-0.225,0.865-0.224c-0.063-0.311,0.387-0.306,0.628-0.353
		c-0.086-0.432,0.42-0.377,0.822-0.434c-0.023-0.007-0.233-0.042-0.232-0.108c0.003-0.172,1.087-0.288,1.175-0.304
		c0.014,0.001-0.345,0.006-0.342-0.069c0.011-0.31,1.266-0.245,1.377-0.551c-0.657-0.073,0.062-0.42,0.312-0.436
		c-0.104,0.011-0.444-0.006-0.5-0.113c-0.065-0.127,0.608-0.272,0.537-0.253c-0.13-0.011-0.244-0.055-0.342-0.131
		c0.095-0.058,0.197-0.099,0.307-0.123c-0.533-0.06-1.536-0.518-0.372-0.561c-0.135-0.009-2.075-0.432-1.182-0.554
		c-0.744,0.049-1.303-0.446-0.216-0.39c-0.376-0.123-1.839-0.364-1.607-0.833c-0.086-0.015-0.722-0.073-0.776-0.229
		c-0.026-0.077,0.207-0.112,0.236-0.167c-0.024-0.005-0.566-0.08-0.604-0.192c-0.022-0.066,0.291-0.146,0.328-0.165
		c-0.057-0.015-1.17-0.326-0.606-0.468c-0.406-0.085-0.146-0.099-0.067-0.267c-0.185-0.038-1.838-0.723-1.344-1.013
		c-0.242-0.132-1.899-0.89-1.402-1.045c-0.095-0.04-0.927-0.3-0.86-0.486c0.051-0.03,0.103-0.06,0.154-0.09
		c-1.651-0.667,0.562-0.685,1.168-0.586c1.69,0.273,3.349,0.975,4.919,1.638c1.172,0.496,2.312,1.06,3.435,1.657
		c1.188,0.629,2.396,1.437,3.708,1.769c1.45,0.366,3.138,0.162,4.611,0.067c1.391-0.088,2.775-0.262,4.139-0.553
		c2.449-0.523,4.838-1.275,7.294-1.786c-0.602-0.038-1.085-0.139-0.971-0.385c0.45-0.239,0.87-0.57,1.137-1.011
		c0.106-0.174,0.099-0.351,0.286-0.417c0.366-0.128,0.715-0.363,0.911-0.705c0.178-0.31,0.043-0.439,0.385-0.588
		c0.259-0.112,0.508-0.28,0.696-0.493c0.126-0.135,0.206-0.292,0.24-0.473c0.271-0.058,0.427-0.268,0.495-0.522
		c0.069-0.259,0.062-0.534,0.059-0.799c0.25-0.049,0.38-0.251,0.487-0.462c0.481-0.952,1.553-1.526,1.115-2.812
		c0.322,0.063,1.946,1.179,2.026,1.125c0.037-0.025-0.026-0.25-0.041-0.261c0.567,0.433,1.025,0.988,1.552,1.466
		c0.101,0.093,0.146,0.082,0.133-0.035c0-0.125,0.569,0.466,0.557,0.454c0.37,0.355,0.712,0.896,1.128,1.188
		c0.044,0.031,0.003-0.132,0.02-0.116c0.877,0.877,1.453,1.957,2.249,2.884c0.821,0.959,2.448,0.769,3.624,0.951
		c1.553,0.242,3.091,0.583,4.59,1.057c1.686,0.535,3.227,1.356,4.866,2c0.562,0.221,1.196,0.33,1.734,0.6
		c0.887,0.447,2.272,0.46,2.925,1.289c0.534,0.466-0.028,1.692-0.225,2.193c-0.107,0.273-1,1.735-0.863,1.991
		c-0.038-0.07,1.981-2.065,2.199-2.241c0.529-0.429,1.181-0.136,1.351,0.533c0.181,0.711-0.939,1.545-1.32,2.099
		c-1.482,2.158-4.117,4.102-6.647,4.888c-1.103,0.343-2.228,0.625-3.354,0.879c-0.56,0.127-1.123,0.243-1.688,0.349
		c-0.501,0.094-1.415,0.063-1.763,0.438c-1.265,1.36-2.594,2.703-4.098,3.802c-0.46,0.334-1.264,1.03-1.874,0.969
		c-0.513-0.05-0.217-1.016-0.051-1.316c0.223-0.401-0.002-0.243,0.097-0.611c0.068-0.187,0.195-0.319,0.383-0.4
		c-0.125-0.085-0.018-0.3,0.039-0.381c0.203-0.292,0.371-0.634,0.521-0.958c0.163-0.348,0.385-0.487,0.565-0.861
		c-1.989,0.058-3.977-0.053-5.952-0.274c-1.69-0.191-3.384-0.571-5.084-0.629c-1.266-0.044-1.951,0.096-2.894,0.883
		c-1.188,0.989-2.458,1.934-3.932,2.447c0.034-0.591-0.479-0.699-0.699-1.121c-0.195-0.377-0.237-0.717-0.448-1.081
		c-0.538-0.926-0.939-1.953-1.32-2.902c-0.38-0.947-0.827-1.672-1.501-2.435c-0.517-0.583,0.837-0.57-0.184-1.231
		c-0.916-0.593-1.907-1.104-2.939-1.459c-0.65-0.224-1.331-0.624-2.008-0.741c-0.686-0.118-1.489,0.009-2.174,0.142
		c-1.709,0.332-3.365,1.187-4.955,1.873c-1.943,0.839-3.905,1.613-5.929,2.234c-1.064,0.326-2.204,0.597-3.326,0.474
		C96.481,171.379,96.587,171.023,97.282,170.78"/>
	<path opacity="0.2" fill="#A1A1A1" d="M137.826,194.253c-0.432-0.138,0.304-0.38,0.388-0.41c-0.43-0.152,0.417-0.351,0.512-0.377
		c-0.179-0.145,1.07-0.62,1.155-0.648c-0.072-0.301-0.214-0.26,0.36-0.353c0.032-0.173-0.205-0.137,0.072-0.186
		c-0.282-0.112,0.564-0.292,0.583-0.296c-0.04-0.028-0.122-0.048-0.148-0.091c-0.044-0.072,0.497-0.155,0.469-0.15
		c-0.008-0.049-0.101-0.054-0.124-0.096c-0.046-0.083,0.659-0.17,0.654-0.169c-0.047-0.235,0.293-0.232,0.476-0.268
		c-0.065-0.327,0.318-0.285,0.623-0.328c-0.017-0.005-0.176-0.032-0.176-0.082c0.003-0.131,0.822-0.218,0.89-0.23
		c0.011,0-0.261,0.005-0.259-0.053c0.008-0.234,0.958-0.185,1.042-0.417c-0.497-0.056,0.046-0.318,0.237-0.33
		c-0.079,0.008-0.337-0.005-0.378-0.085c-0.049-0.097,0.46-0.207,0.406-0.192c-0.098-0.009-0.185-0.042-0.259-0.1
		c0.072-0.043,0.149-0.075,0.232-0.093c-0.403-0.045-1.162-0.392-0.282-0.424c-0.102-0.007-1.57-0.327-0.894-0.418
		c-0.563,0.037-0.986-0.338-0.164-0.296c-0.285-0.093-1.392-0.275-1.216-0.631c-0.065-0.012-0.547-0.055-0.587-0.174
		c-0.02-0.058,0.156-0.084,0.178-0.126c-0.018-0.004-0.429-0.061-0.457-0.146c-0.017-0.05,0.22-0.11,0.248-0.125
		c-0.043-0.011-0.886-0.247-0.459-0.354c-0.307-0.064-0.11-0.075-0.051-0.203c-0.14-0.028-1.391-0.547-1.016-0.766
		c-0.184-0.101-1.438-0.674-1.062-0.792c-0.072-0.03-0.702-0.227-0.651-0.368c0.039-0.023,0.078-0.046,0.117-0.068
		c-1.249-0.505,0.425-0.518,0.884-0.444c1.278,0.207,2.534,0.739,3.722,1.24c0.888,0.375,1.749,0.802,2.6,1.254
		c0.898,0.476,1.813,1.086,2.806,1.338c1.097,0.277,2.374,0.122,3.488,0.051c1.053-0.067,2.101-0.198,3.133-0.418
		c1.853-0.396,3.661-0.965,5.519-1.351c-0.455-0.029-0.821-0.105-0.734-0.291c0.34-0.181,0.658-0.432,0.86-0.765
		c0.081-0.132,0.075-0.266,0.216-0.315c0.277-0.097,0.541-0.274,0.689-0.534c0.134-0.235,0.032-0.333,0.291-0.445
		c0.197-0.085,0.384-0.212,0.526-0.373c0.095-0.102,0.155-0.221,0.182-0.358c0.205-0.043,0.323-0.203,0.374-0.395
		c0.052-0.196,0.047-0.403,0.044-0.604c0.189-0.038,0.288-0.19,0.369-0.35c0.364-0.72,1.175-1.154,0.844-2.127
		c0.245,0.048,1.473,0.892,1.533,0.851c0.028-0.019-0.02-0.189-0.031-0.197c0.429,0.328,0.776,0.748,1.174,1.109
		c0.076,0.071,0.11,0.062,0.101-0.025c0-0.094,0.431,0.353,0.421,0.343c0.28,0.269,0.539,0.678,0.854,0.899
		c0.033,0.023,0.003-0.1,0.015-0.087c0.663,0.664,1.1,1.48,1.701,2.183c0.622,0.726,1.853,0.581,2.743,0.719
		c1.175,0.182,2.339,0.44,3.474,0.799c1.275,0.405,2.442,1.026,3.682,1.514c0.425,0.167,0.905,0.25,1.312,0.454
		c0.671,0.338,1.72,0.348,2.214,0.975c0.404,0.353-0.021,1.281-0.169,1.66c-0.081,0.207-0.757,1.312-0.654,1.506
		c-0.029-0.053,1.5-1.562,1.664-1.696c0.4-0.325,0.894-0.104,1.023,0.403c0.137,0.539-0.711,1.169-0.999,1.588
		c-1.121,1.633-3.116,3.104-5.03,3.699c-0.834,0.26-1.686,0.473-2.538,0.666c-0.424,0.097-0.851,0.184-1.278,0.264
		c-0.379,0.071-1.07,0.047-1.333,0.331c-0.958,1.029-1.964,2.046-3.102,2.877c-0.348,0.253-0.956,0.78-1.418,0.733
		c-0.388-0.038-0.164-0.769-0.038-0.996c0.168-0.304-0.001-0.184,0.073-0.463c0.052-0.141,0.148-0.241,0.29-0.302
		c-0.095-0.065-0.014-0.227,0.029-0.289c0.153-0.221,0.28-0.48,0.395-0.725c0.124-0.264,0.292-0.368,0.427-0.652
		c-1.504,0.044-3.009-0.04-4.504-0.208c-1.279-0.144-2.561-0.432-3.848-0.476c-0.958-0.034-1.477,0.073-2.189,0.668
		c-0.899,0.749-1.86,1.464-2.975,1.852c0.025-0.447-0.363-0.529-0.529-0.848c-0.148-0.286-0.18-0.543-0.339-0.818
		c-0.407-0.701-0.71-1.478-0.999-2.196c-0.288-0.717-0.625-1.266-1.136-1.842c-0.391-0.442,0.634-0.431-0.139-0.931
		c-0.693-0.45-1.443-0.836-2.225-1.105c-0.492-0.17-1.007-0.472-1.52-0.56c-0.52-0.089-1.128,0.006-1.645,0.107
		c-1.293,0.251-2.546,0.898-3.75,1.418c-1.47,0.635-2.955,1.22-4.487,1.69c-0.806,0.247-1.667,0.451-2.517,0.358
		C137.22,194.707,137.299,194.437,137.826,194.253"/>
	<path opacity="0.2" fill="#A1A1A1" d="M196.131,186.485c-0.481-0.154,0.337-0.423,0.431-0.456c-0.479-0.169,0.463-0.39,0.569-0.419
		c-0.199-0.162,1.19-0.689,1.284-0.721c-0.081-0.335-0.238-0.289,0.4-0.393c0.036-0.191-0.228-0.151,0.08-0.206
		c-0.313-0.125,0.628-0.325,0.649-0.33c-0.044-0.031-0.136-0.053-0.165-0.102c-0.049-0.08,0.551-0.172,0.521-0.167
		c-0.009-0.055-0.112-0.06-0.137-0.107c-0.051-0.094,0.732-0.189,0.728-0.189c-0.054-0.261,0.325-0.257,0.528-0.297
		c-0.072-0.363,0.354-0.317,0.692-0.365c-0.019-0.005-0.196-0.036-0.195-0.091c0.003-0.146,0.915-0.243,0.989-0.255
		c0.011,0-0.291,0.004-0.289-0.059c0.009-0.261,1.065-0.206,1.158-0.464c-0.553-0.062,0.052-0.354,0.264-0.366
		c-0.087,0.009-0.374-0.005-0.421-0.095c-0.055-0.107,0.512-0.229,0.451-0.213c-0.108-0.009-0.205-0.046-0.288-0.111
		c0.08-0.048,0.167-0.083,0.259-0.104c-0.449-0.05-1.292-0.436-0.313-0.472c-0.114-0.008-1.746-0.363-0.995-0.466
		c-0.625,0.042-1.096-0.375-0.182-0.329c-0.317-0.104-1.547-0.306-1.353-0.701c-0.073-0.013-0.608-0.062-0.653-0.193
		c-0.022-0.065,0.174-0.094,0.198-0.14c-0.02-0.004-0.477-0.068-0.507-0.162c-0.019-0.056,0.244-0.122,0.275-0.139
		c-0.048-0.012-0.984-0.274-0.511-0.394c-0.341-0.071-0.122-0.083-0.056-0.225c-0.155-0.031-1.546-0.607-1.13-0.852
		c-0.204-0.111-1.599-0.749-1.18-0.879c-0.08-0.033-0.78-0.252-0.724-0.409c0.043-0.025,0.087-0.051,0.13-0.077
		c-1.389-0.561,0.472-0.576,0.983-0.493c1.422,0.23,2.817,0.821,4.139,1.379c0.986,0.417,1.944,0.891,2.89,1.394
		c0.999,0.529,2.016,1.208,3.12,1.488c1.22,0.309,2.64,0.136,3.879,0.058c1.17-0.075,2.335-0.221,3.482-0.465
		c2.061-0.441,4.071-1.073,6.137-1.502c-0.506-0.033-0.912-0.117-0.817-0.324c0.378-0.201,0.732-0.48,0.957-0.851
		c0.09-0.147,0.083-0.296,0.241-0.351c0.308-0.108,0.602-0.305,0.767-0.594c0.149-0.261,0.036-0.369,0.324-0.494
		c0.218-0.095,0.426-0.236,0.584-0.415c0.106-0.113,0.173-0.246,0.203-0.398c0.227-0.048,0.359-0.225,0.416-0.439
		c0.059-0.219,0.052-0.449,0.05-0.672c0.21-0.042,0.32-0.211,0.41-0.389c0.405-0.8,1.307-1.283,0.938-2.366
		c0.271,0.054,1.637,0.992,1.704,0.947c0.031-0.022-0.021-0.21-0.034-0.22c0.478,0.365,0.863,0.832,1.306,1.233
		c0.085,0.079,0.123,0.069,0.112-0.029c0-0.105,0.479,0.393,0.468,0.381c0.312,0.299,0.6,0.754,0.949,1
		c0.037,0.026,0.003-0.111,0.017-0.098c0.738,0.739,1.223,1.646,1.892,2.427c0.691,0.807,2.06,0.646,3.049,0.8
		c1.306,0.203,2.601,0.49,3.862,0.889c1.418,0.45,2.715,1.142,4.094,1.684c0.472,0.185,1.006,0.277,1.459,0.505
		c0.746,0.376,1.912,0.387,2.461,1.083c0.449,0.393-0.024,1.424-0.189,1.846c-0.09,0.229-0.842,1.46-0.727,1.675
		c-0.031-0.059,1.668-1.737,1.85-1.885c0.445-0.361,0.994-0.115,1.137,0.448c0.152,0.599-0.79,1.3-1.11,1.767
		c-1.247,1.815-3.464,3.451-5.593,4.112c-0.928,0.29-1.874,0.527-2.821,0.741c-0.472,0.107-0.945,0.204-1.42,0.293
		c-0.422,0.079-1.19,0.053-1.483,0.368c-1.065,1.145-2.183,2.275-3.448,3.199c-0.387,0.282-1.063,0.867-1.576,0.816
		c-0.433-0.043-0.184-0.855-0.043-1.107c0.187-0.337-0.002-0.204,0.081-0.515c0.057-0.156,0.164-0.268,0.322-0.336
		c-0.105-0.072-0.015-0.252,0.033-0.321c0.17-0.246,0.312-0.534,0.439-0.806c0.137-0.292,0.324-0.409,0.475-0.725
		c-1.673,0.049-3.345-0.044-5.008-0.231c-1.422-0.161-2.847-0.48-4.278-0.53c-1.065-0.037-1.642,0.082-2.435,0.743
		c-0.999,0.833-2.068,1.628-3.308,2.059c0.028-0.498-0.403-0.588-0.588-0.943c-0.164-0.317-0.2-0.603-0.376-0.909
		c-0.452-0.78-0.791-1.644-1.11-2.442c-0.32-0.797-0.696-1.407-1.263-2.048c-0.435-0.491,0.705-0.48-0.155-1.037
		c-0.771-0.5-1.604-0.929-2.473-1.228c-0.546-0.188-1.12-0.525-1.69-0.623c-0.577-0.099-1.253,0.008-1.829,0.119
		c-1.438,0.28-2.832,0.999-4.169,1.577c-1.634,0.706-3.285,1.356-4.989,1.879c-0.896,0.274-1.854,0.502-2.798,0.398
		C195.457,186.99,195.545,186.689,196.131,186.485"/>
	<path opacity="0.2" fill="#A1A1A1" d="M165.919,154.4c-0.429-0.137,0.3-0.376,0.383-0.406c-0.426-0.15,0.413-0.347,0.507-0.374
		c-0.177-0.144,1.06-0.613,1.143-0.641c-0.071-0.298-0.211-0.257,0.356-0.349c0.033-0.171-0.203-0.135,0.071-0.184
		c-0.279-0.111,0.559-0.289,0.578-0.293c-0.04-0.028-0.121-0.047-0.147-0.091c-0.044-0.071,0.491-0.153,0.464-0.148
		c-0.009-0.049-0.1-0.054-0.123-0.095c-0.046-0.083,0.652-0.168,0.647-0.168c-0.047-0.233,0.29-0.229,0.471-0.265
		c-0.065-0.324,0.314-0.282,0.616-0.325c-0.017-0.005-0.174-0.031-0.173-0.081c0.002-0.129,0.814-0.216,0.88-0.228
		c0.01,0-0.259,0.004-0.257-0.052c0.008-0.232,0.949-0.183,1.032-0.413c-0.492-0.055,0.046-0.315,0.234-0.326
		c-0.078,0.008-0.333-0.005-0.375-0.084c-0.048-0.096,0.456-0.205,0.402-0.19c-0.097-0.009-0.183-0.042-0.256-0.099
		c0.071-0.043,0.148-0.074,0.23-0.092c-0.399-0.045-1.15-0.388-0.278-0.42c-0.101-0.007-1.555-0.324-0.885-0.415
		c-0.558,0.037-0.976-0.334-0.163-0.292c-0.282-0.092-1.377-0.272-1.204-0.624c-0.065-0.012-0.541-0.055-0.581-0.172
		c-0.02-0.057,0.155-0.084,0.176-0.125c-0.018-0.004-0.424-0.06-0.452-0.144c-0.016-0.049,0.218-0.109,0.246-0.123
		c-0.043-0.011-0.876-0.245-0.455-0.351c-0.304-0.064-0.109-0.075-0.05-0.201c-0.139-0.027-1.376-0.541-1.006-0.758
		c-0.181-0.099-1.423-0.666-1.05-0.783c-0.071-0.03-0.694-0.224-0.645-0.364c0.039-0.022,0.077-0.045,0.116-0.068
		c-1.236-0.499,0.421-0.513,0.875-0.439c1.266,0.206,2.509,0.731,3.685,1.228c0.878,0.371,1.731,0.794,2.572,1.241
		c0.889,0.472,1.794,1.076,2.777,1.325c1.086,0.274,2.351,0.121,3.453,0.051c1.042-0.066,2.079-0.196,3.101-0.414
		c1.835-0.392,3.625-0.955,5.463-1.338c-0.45-0.028-0.812-0.104-0.727-0.288c0.337-0.179,0.651-0.427,0.852-0.757
		c0.079-0.131,0.074-0.264,0.214-0.312c0.274-0.096,0.536-0.272,0.683-0.528c0.133-0.232,0.032-0.329,0.288-0.44
		c0.194-0.084,0.38-0.21,0.521-0.37c0.094-0.1,0.154-0.218,0.18-0.353c0.202-0.044,0.319-0.201,0.37-0.392
		c0.051-0.194,0.046-0.399,0.044-0.599c0.187-0.037,0.285-0.188,0.365-0.346c0.36-0.712,1.163-1.143,0.835-2.106
		c0.241,0.047,1.458,0.883,1.518,0.842c0.028-0.019-0.019-0.187-0.031-0.195c0.425,0.324,0.768,0.74,1.163,1.099
		c0.076,0.069,0.109,0.061,0.1-0.026c0-0.094,0.426,0.349,0.416,0.339c0.278,0.266,0.534,0.671,0.846,0.89
		c0.033,0.023,0.003-0.099,0.015-0.086c0.657,0.657,1.089,1.465,1.685,2.16c0.615,0.718,1.833,0.575,2.715,0.712
		c1.163,0.181,2.314,0.436,3.437,0.791c1.263,0.401,2.417,1.017,3.646,1.499c0.42,0.165,0.896,0.247,1.299,0.449
		c0.664,0.334,1.702,0.344,2.19,0.965c0.4,0.35-0.021,1.268-0.167,1.643c-0.08,0.205-0.75,1.3-0.647,1.491
		c-0.028-0.053,1.485-1.546,1.647-1.679c0.396-0.321,0.885-0.102,1.012,0.399c0.135,0.534-0.704,1.158-0.989,1.573
		c-1.11,1.616-3.083,3.072-4.979,3.661c-0.826,0.258-1.669,0.469-2.512,0.66c-0.42,0.095-0.841,0.181-1.264,0.261
		c-0.375,0.07-1.061,0.046-1.321,0.327c-0.948,1.018-1.943,2.025-3.07,2.848c-0.345,0.251-0.946,0.771-1.403,0.726
		c-0.385-0.038-0.162-0.761-0.038-0.986c0.167-0.301-0.001-0.182,0.072-0.458c0.051-0.139,0.146-0.239,0.287-0.299
		c-0.093-0.063-0.013-0.225,0.029-0.286c0.152-0.218,0.278-0.476,0.391-0.717c0.122-0.261,0.288-0.365,0.423-0.645
		c-1.489,0.043-2.979-0.04-4.458-0.206c-1.266-0.143-2.534-0.428-3.808-0.472c-0.948-0.033-1.461,0.072-2.168,0.662
		c-0.889,0.741-1.84,1.449-2.945,1.833c0.025-0.442-0.358-0.523-0.523-0.839c-0.146-0.283-0.178-0.538-0.336-0.81
		c-0.402-0.694-0.703-1.463-0.989-2.174c-0.284-0.709-0.619-1.252-1.124-1.823c-0.387-0.438,0.627-0.427-0.138-0.922
		c-0.686-0.444-1.428-0.827-2.202-1.094c-0.486-0.167-0.997-0.467-1.504-0.554c-0.514-0.088-1.116,0.006-1.628,0.105
		c-1.28,0.249-2.52,0.889-3.711,1.403c-1.455,0.628-2.925,1.208-4.441,1.673c-0.798,0.245-1.651,0.447-2.491,0.355
		C165.319,154.849,165.398,154.582,165.919,154.4"/>
	<path opacity="0.2" fill="#A1A1A1" d="M339.608,516.09c-1.323,0.919-2.244,2.188-3.368,3.321c-0.153,0.154-3.188,2.769-3.287,2.359
		c-0.035-0.141,0.371-0.687,0.415-0.805c0.1-0.263,0.344-0.596,0.537-0.804c-0.065-0.259,0.344-0.733,0.407-0.979
		c0.055-0.218,0.219-0.253,0.26-0.464c0.027-0.134,0.054-0.334,0.116-0.468c0.112-0.239,0.209-0.645,0.433-0.797
		c-0.015-0.308,0.204-0.884,0.377-1.105c-0.09-0.093-0.09-0.192-0.001-0.299c0.186-0.292-0.053-0.249,0.074-0.415
		c0.124-0.16,0.25-0.501,0.259-0.698c0.012-0.266-0.27-0.55-0.121-0.832c-0.021-0.332-0.265-0.479-0.265-0.821
		c0-0.286-0.222-0.574-0.198-0.877c-0.098-0.11-0.422-0.845-0.384-0.978c-0.157-0.179-0.225-0.558-0.209-0.782
		c-0.303-0.192-0.428-0.787-0.588-1.104c-0.138-0.272-0.252-0.615-0.444-0.843c-0.077-0.093-0.537-0.867-0.505-0.981
		c0.064-0.237,1.575,0.823,1.709,0.938c0.794,0.676,1.523,1.437,2.217,2.216c1.401,1.577,2.396,3.173,4.707,2.917
		c-0.225-0.247-0.389-0.289-0.389-0.289c0.212-0.118,0.451-0.155,0.678-0.062c0.37,0.153,0.347,0.183,0.792,0.046
		c-0.257-0.254-0.562-0.294-0.562-0.294c0.252-0.146,0.507-0.256,0.779-0.12c0.45,0.224,0.447,0.221,0.972,0.045
		c-0.038-0.089-0.351-0.278-0.59-0.272c0.261-0.289,0.599-0.339,0.962-0.248c0.597,0.148,0.758,0.109,1.362-0.113
		c-0.048-0.102-0.585-0.288-0.818-0.226c0.255-0.301,0.688-0.342,1.043-0.268c0.574,0.118,0.646,0.131,1.241-0.092
		c-0.137-0.23-0.499-0.179-0.729-0.204c0.234-0.274,0.571-0.347,0.911-0.252c0.147,0.039,0.276,0.11,0.388,0.214
		c0.229-0.085,0.463-0.157,0.692-0.243c-0.073-0.123-0.399-0.262-0.726-0.222c0.24-0.283,0.682-0.369,1.02-0.26
		c0.513,0.167,0.551,0.185,1.102-0.006c-0.058-0.12-0.511-0.348-0.852-0.279c0.527-0.585,0.996-0.348,1.488,0.095
		c0.492-0.157,0.959-0.398,1.458-0.533c-0.312-0.138-0.623-0.276-0.935-0.415c2.116-0.552,2.79-2.923,1.665-4.678
		c1.746,0.869,2.642,2.07,4.062,3.584c0.571-0.11,0.361-0.778,0.596-0.874c0.227-0.093,0.109,0.414,0.4,0.034
		c0.003-0.005,0.266-0.483,0.297-0.455c0.56,0.499,0.429-0.466,0.763-0.318c0.193,0.086,0.116,0.287,0.388,0.127
		c0.085-0.049,0.298-0.5,0.307-0.499c0.172,0.052,0.103,0.321,0.376,0.235c0.293-0.093,0.076-0.343,0.173-0.516
		c0.039-0.07,0.267,0.2,0.33,0.21c0.364,0.065,0.153-0.414,0.286-0.51c0.064-0.046,0.239,0.168,0.311,0.184
		c0.398,0.088,0.228-0.334,0.328-0.513c0.026-0.046,0.206,0.208,0.284,0.208c0.352-0.001,0.183-0.332,0.292-0.494
		c0.06-0.089,0.188,0.211,0.287,0.168c0.237-0.1,0.095-0.405,0.217-0.516c0.093-0.085,0.162,0.241,0.372-0.084
		c0.02-0.031,0.099-0.409,0.138-0.418c0.191-0.041,0.249,0.324,0.475,0.002c0.04-0.057,0.034-0.484,0.047-0.479
		c0.079,0.028,0.302,0.392,0.412,0.211c0.041-0.066-0.122-0.478-0.016-0.473c0.302,0.016,0.621,0.082,0.412-0.489
		c0.612,0.2,0.123-0.498,0.321-0.665c0.148-0.125,0.38,0.418,0.63,0.131c1.434,1.087,2.688,2.423,3.644,3.95
		c0.25,0.397,0.478,0.808,0.685,1.23c0.105,0.217,0.206,0.436,0.298,0.659c0.344,0.041,0.687,0.091,1.028,0.15
		c1.059,0.18,2.106,0.437,3.134,0.75c1.916,0.584,3.783,1.358,5.534,2.333c0.752,0.418,1.541,0.855,2.183,1.434
		c0.192,0.175,1.595,1.334,1.393,1.378c-0.001-0.013-0.231,0.155-0.25,0.159c-0.175,0.037-0.045,0.004-0.195,0.07
		c-0.473,0.205-0.988,0.23-1.664,0.678c0.199-0.134,2.234-0.522,2.244-0.512c0.518,0.55-1.605,1.822-1.958,2.056
		c-1.174,0.783-2.438,1.461-3.765,1.946c-0.561,0.204-1.136,0.374-1.725,0.462c-0.693,0.104-1.275,0.311-1.952,0.513
		c-0.578,0.172-2.972,0.382-3.147,0.889c-0.409,1.182-1.343,2.338-2.297,3.132c-0.158,0.132-0.888,0.778-1.077,0.568
		c-0.339-0.374-0.306-1.158-0.179-1.61c0.076-0.27-0.079-0.501-0.017-0.769c0.125-0.54,0.816-0.975,1.21-1.293
		c-2.952,0.421-5.84,0.745-8.811,0.326c-1.914-0.271-3.802-0.705-5.68-1.147c-0.705,0.656-1.569,1.146-2.469,1.484
		c-0.336,0.127-1.765,0.695-2.082,0.484c0.126,0.084,1.126-1.266,1.213-1.483c0.198-0.501-0.274-1.306,0.435-1.486
		c-0.398-0.132-0.8-0.259-1.198-0.396c-0.184-0.062-0.31,0.17-0.485,0.245c-0.328,0.141-0.782,0.036-1.019-0.239
		c0.146-0.051,0.794-0.139,0.858-0.25c-0.518-0.206-0.49-0.194-0.951-0.013c-0.322,0.126-0.764,0.015-0.994-0.25
		c0.244,0.067,0.763-0.084,0.833-0.197c-0.555-0.23-0.492-0.197-0.984,0.009c-0.324,0.137-0.778,0.032-1.011-0.241
		c0.285,0.052,0.796-0.141,0.857-0.251c-0.567-0.242-0.536-0.234-1.041-0.028c-0.325,0.134-0.772,0.025-1.006-0.246
		c0.194,0.039,0.796-0.118,0.854-0.23c-0.509-0.214-0.497-0.205-0.954-0.03c-0.33,0.127-0.679-0.001-0.907-0.261
		c0.182,0.058,0.656-0.091,0.726-0.171c-0.511-0.205-0.476-0.168-0.93,0.012c-0.321,0.127-0.767,0.018-0.996-0.25
		c0.212,0.049,0.708-0.118,0.792-0.196c-0.332-0.122-0.64-0.344-0.938-0.142c-0.367,0.248-0.811,0.17-1.098-0.162
		c0.333,0.078,0.644-0.042,0.719-0.142C341.592,515.693,340.461,515.496,339.608,516.09"/>
	<path opacity="0.2" fill="#A1A1A1" d="M368.854,473.853c-1.033,0.717-1.75,1.706-2.627,2.591c-0.119,0.121-2.486,2.161-2.565,1.841
		c-0.027-0.109,0.289-0.537,0.325-0.628c0.077-0.205,0.268-0.465,0.417-0.627c-0.05-0.202,0.269-0.571,0.318-0.763
		c0.042-0.17,0.171-0.198,0.202-0.364c0.021-0.104,0.043-0.26,0.091-0.364c0.086-0.187,0.164-0.503,0.337-0.622
		c-0.011-0.24,0.159-0.69,0.294-0.863c-0.07-0.072-0.07-0.15,0-0.233c0.143-0.228-0.042-0.194,0.057-0.324
		c0.096-0.125,0.195-0.391,0.202-0.545c0.01-0.207-0.21-0.429-0.093-0.648c-0.018-0.259-0.209-0.374-0.209-0.64
		c0-0.223-0.172-0.449-0.153-0.685c-0.077-0.086-0.33-0.659-0.3-0.763c-0.122-0.139-0.176-0.435-0.163-0.61
		c-0.236-0.15-0.334-0.614-0.46-0.861c-0.107-0.213-0.196-0.48-0.346-0.659c-0.06-0.072-0.419-0.677-0.395-0.766
		c0.051-0.185,1.229,0.644,1.333,0.732c0.62,0.528,1.189,1.122,1.73,1.73c1.094,1.231,1.869,2.475,3.672,2.276
		c-0.174-0.192-0.303-0.225-0.303-0.225c0.167-0.093,0.352-0.123,0.53-0.049c0.289,0.119,0.271,0.144,0.618,0.036
		c-0.201-0.198-0.438-0.229-0.438-0.229c0.197-0.115,0.395-0.199,0.608-0.093c0.351,0.174,0.349,0.173,0.758,0.036
		c-0.029-0.07-0.274-0.217-0.461-0.213c0.204-0.225,0.468-0.265,0.752-0.194c0.464,0.116,0.592,0.086,1.063-0.087
		c-0.038-0.08-0.458-0.225-0.639-0.177c0.199-0.235,0.537-0.266,0.814-0.209c0.448,0.093,0.503,0.102,0.968-0.072
		c-0.107-0.179-0.389-0.14-0.569-0.158c0.183-0.213,0.445-0.272,0.709-0.198c0.116,0.031,0.217,0.087,0.303,0.167
		c0.18-0.066,0.362-0.122,0.541-0.188c-0.058-0.097-0.313-0.206-0.567-0.175c0.188-0.22,0.531-0.287,0.796-0.201
		c0.401,0.129,0.43,0.145,0.86-0.004c-0.045-0.094-0.399-0.272-0.665-0.218c0.411-0.457,0.776-0.271,1.161,0.073
		c0.383-0.122,0.748-0.31,1.138-0.415c-0.243-0.108-0.486-0.216-0.729-0.325c1.65-0.43,2.175-2.279,1.298-3.649
		c1.363,0.678,2.061,1.615,3.17,2.795c0.445-0.085,0.282-0.606,0.465-0.68c0.177-0.073,0.085,0.321,0.313,0.025
		c0.001-0.004,0.207-0.377,0.231-0.354c0.437,0.389,0.334-0.363,0.595-0.248c0.15,0.066,0.09,0.223,0.302,0.099
		c0.066-0.039,0.233-0.39,0.239-0.389c0.134,0.041,0.08,0.25,0.293,0.183c0.229-0.073,0.061-0.267,0.136-0.402
		c0.031-0.055,0.208,0.155,0.257,0.164c0.284,0.052,0.118-0.323,0.222-0.398c0.05-0.036,0.188,0.131,0.243,0.144
		c0.312,0.069,0.178-0.261,0.256-0.401c0.02-0.034,0.16,0.163,0.222,0.163c0.273,0,0.143-0.259,0.229-0.384
		c0.047-0.071,0.146,0.163,0.223,0.13c0.186-0.078,0.075-0.317,0.169-0.402c0.073-0.066,0.127,0.188,0.29-0.066
		c0.016-0.024,0.077-0.319,0.108-0.325c0.149-0.033,0.194,0.251,0.37,0.001c0.032-0.044,0.028-0.376,0.038-0.374
		c0.061,0.021,0.234,0.306,0.321,0.165c0.031-0.051-0.096-0.373-0.013-0.369c0.236,0.013,0.486,0.064,0.321-0.381
		c0.478,0.156,0.097-0.388,0.251-0.519c0.116-0.098,0.297,0.326,0.491,0.103c1.118,0.848,2.097,1.89,2.843,3.081
		c0.195,0.311,0.374,0.631,0.533,0.961c0.083,0.169,0.161,0.34,0.233,0.514c0.269,0.032,0.536,0.071,0.802,0.117
		c0.827,0.142,1.644,0.342,2.446,0.586c1.494,0.456,2.951,1.06,4.317,1.819c0.587,0.326,1.202,0.668,1.702,1.12
		c0.151,0.135,1.246,1.04,1.087,1.074c-0.001-0.01-0.18,0.121-0.194,0.124c-0.137,0.029-0.036,0.003-0.154,0.055
		c-0.367,0.161-0.771,0.179-1.297,0.529c0.154-0.104,1.743-0.408,1.75-0.4c0.404,0.428-1.252,1.422-1.527,1.604
		c-0.916,0.61-1.902,1.14-2.938,1.519c-0.438,0.158-0.887,0.292-1.347,0.36c-0.54,0.082-0.995,0.243-1.522,0.4
		c-0.452,0.135-2.318,0.299-2.456,0.694c-0.318,0.921-1.048,1.824-1.792,2.443c-0.124,0.104-0.693,0.608-0.841,0.443
		c-0.263-0.291-0.239-0.903-0.139-1.255c0.059-0.211-0.062-0.392-0.013-0.6c0.098-0.421,0.637-0.761,0.944-1.009
		c-2.302,0.33-4.556,0.581-6.875,0.254c-1.492-0.211-2.966-0.549-4.432-0.896c-0.549,0.512-1.225,0.894-1.925,1.159
		c-0.261,0.1-1.377,0.543-1.625,0.378c0.1,0.066,0.881-0.987,0.947-1.156c0.153-0.392-0.215-1.019,0.339-1.16
		c-0.312-0.104-0.625-0.202-0.934-0.309c-0.146-0.049-0.241,0.133-0.378,0.191c-0.256,0.109-0.612,0.028-0.796-0.188
		c0.114-0.039,0.62-0.108,0.67-0.195c-0.405-0.16-0.383-0.151-0.744-0.01c-0.251,0.099-0.595,0.013-0.774-0.194
		c0.19,0.052,0.595-0.065,0.65-0.154c-0.434-0.18-0.385-0.154-0.768,0.007c-0.252,0.106-0.606,0.024-0.789-0.189
		c0.223,0.041,0.623-0.109,0.67-0.195c-0.443-0.188-0.419-0.183-0.812-0.021c-0.255,0.104-0.604,0.02-0.786-0.192
		c0.152,0.029,0.621-0.092,0.667-0.18c-0.398-0.167-0.388-0.16-0.745-0.023c-0.258,0.1-0.53-0.001-0.707-0.204
		c0.141,0.046,0.511-0.072,0.566-0.134c-0.399-0.16-0.372-0.131-0.727,0.009c-0.25,0.1-0.597,0.014-0.776-0.194
		c0.165,0.038,0.553-0.092,0.618-0.153c-0.257-0.095-0.499-0.269-0.73-0.111c-0.287,0.193-0.632,0.134-0.857-0.125
		c0.261,0.061,0.503-0.032,0.561-0.11C370.402,473.543,369.521,473.39,368.854,473.853"/>
	<path opacity="0.2" fill="#A1A1A1" d="M756.364,713.465c0.506-0.398,0.91-0.979,1.288-1.496c0.438-0.602,0.915-1.018,1.45-1.525
		c0.476-0.451,0.614-0.857,1.192-1.205c0.724-0.434,0.327-1.002-0.186-1.476c-0.149-0.14-0.306-1.021-0.447-1.275
		c-0.204-0.367-0.493-0.518-0.768-0.814c-0.246-0.268-0.307-0.612-0.487-0.915c-0.641-1.076-2.189-1.963-2.16-3.32
		c4.14,1.224,7,5.604,11.51,5.744c2.917,0.093,5.694-0.412,8.527-1.043c3.008-0.671,6.066-1.097,9.131-1.412
		c-0.446-0.553-1.137-0.922-1.137-0.922c0.394,0.027,0.987-0.064,0.815-0.588c0.276,0.029,1.899-0.036,0.888-0.441
		c0.324,0.047,0.937,0.047,0.814-0.441c0.372,0.068,1.479,0.029,0.739-0.515c0.635,0.081,1.16-0.276,1.186-0.934
		c1.207,0.32,2.188,0.978,3.183,1.703c0.725,0.528,1.584,0.941,2.175,1.631l-0.059,0.009c3.456-0.111,6.928,0.023,10.372,0.334
		c1.563,0.142,3.123,0.353,4.651,0.72c1.237,0.296,2.352,0.888,3.593,1.166c1.106,0.249,2.133,0.709,3.241,0.938
		c1.356,0.279-0.335,1.579-0.688,2.008c-0.77,0.939,0.676,0.257,1.018,0.12c1.299-0.519,0.858,0.446,0.083,0.976
		c-1.048,0.717-2.293,1.16-3.455,1.644c-1.083,0.449-2.282,0.941-3.47,0.934c-1.197-0.01-2.58,0.725-3.81,0.985
		c-1.808,0.381-3.629,0.659-5.468,0.833c-1.474,0.14-2.954,0.228-4.435,0.236c-0.874,0.004-1.747-0.017-2.621-0.055
		c-0.698-0.029-2.306-0.423-2.844,0.003c-1.045,0.828-2.119,1.545-3.384,1.995c-0.272,0.097-2.297,0.709-2.467,0.476
		c0.104,0.145,0.329-0.45,0.201-0.654c0.398-0.043,0.457-0.39,0.224-0.665c1.221-0.132,0.784-0.393-0.071-0.517
		c0.231-0.017,1.206-0.03,1.258-0.248c0.051-0.212-0.91-0.427-1.06-0.466c1.203,0.125,2.337,0.063,3.504-0.254
		c-2.369-0.226-4.725-0.522-7.066-0.944c-1.122-0.204-2.727-0.849-3.833-0.597c-0.936,0.214-2.271,0.784-3.242,0.608
		c-0.185-0.185,0.592-0.344,1.231-0.316c-0.294-0.247-1.945,0.142-2.561-0.031c-0.167-0.168,1.379-0.145,1.379-0.464
		c-0.368-0.026-1.775,0.416-2.148,0.202c-0.075-0.272,0.839-0.363,0.811-0.555c-0.018-0.116-1.674,0.245-1.895-0.025
		c-0.004-0.105,0.947-0.379,0.735-0.437c-0.065,0.02-1.254,0.323-1.245,0.089c0.006-0.113,1.034-0.441,1.175-0.642
		c-2.699-0.597-5.539-1.403-8.151-0.149c-2.541,1.218-5.076,3.265-8.022,3.257C755.658,714.254,756.057,713.709,756.364,713.465"/>
	<path opacity="0.2" fill="#A1A1A1" d="M815.309,696.759c0.506-0.4,0.91-0.979,1.288-1.497c0.438-0.602,0.915-1.018,1.449-1.524
		c0.477-0.452,0.615-0.857,1.193-1.205c0.723-0.436,0.327-1.002-0.186-1.477c-0.149-0.14-0.306-1.02-0.447-1.275
		c-0.204-0.368-0.493-0.518-0.768-0.814c-0.245-0.269-0.307-0.611-0.487-0.914c-0.641-1.077-2.189-1.964-2.16-3.32
		c4.141,1.223,7,5.603,11.511,5.743c2.917,0.093,5.694-0.411,8.526-1.043c3.008-0.67,6.066-1.097,9.132-1.412
		c-0.447-0.552-1.138-0.921-1.138-0.921c0.394,0.026,0.987-0.066,0.815-0.589c0.276,0.03,1.899-0.036,0.888-0.441
		c0.324,0.048,0.937,0.047,0.814-0.44c0.372,0.068,1.479,0.027,0.739-0.516c0.636,0.08,1.161-0.276,1.186-0.933
		c1.207,0.32,2.188,0.977,3.183,1.702c0.726,0.528,1.585,0.941,2.175,1.632l-0.058,0.009c3.456-0.113,6.927,0.022,10.371,0.333
		c1.563,0.142,3.123,0.353,4.651,0.719c1.238,0.298,2.352,0.89,3.593,1.168c1.107,0.249,2.133,0.708,3.242,0.937
		c1.356,0.279-0.337,1.578-0.688,2.008c-0.77,0.939,0.676,0.257,1.018,0.12c1.3-0.519,0.858,0.446,0.083,0.976
		c-1.047,0.716-2.293,1.159-3.455,1.643c-1.082,0.45-2.281,0.942-3.47,0.934c-1.197-0.008-2.58,0.726-3.81,0.985
		c-1.808,0.382-3.629,0.659-5.468,0.835c-1.474,0.139-2.954,0.227-4.435,0.234c-0.874,0.005-1.747-0.016-2.621-0.054
		c-0.697-0.029-2.305-0.423-2.844,0.003c-1.044,0.828-2.119,1.545-3.383,1.996c-0.272,0.096-2.297,0.708-2.467,0.476
		c0.104,0.144,0.328-0.452,0.2-0.655c0.398-0.043,0.456-0.39,0.223-0.664c1.222-0.133,0.785-0.394-0.071-0.517
		c0.232-0.017,1.207-0.031,1.259-0.248c0.051-0.212-0.909-0.428-1.06-0.467c1.203,0.126,2.337,0.064,3.504-0.254
		c-2.369-0.226-4.725-0.522-7.067-0.944c-1.121-0.203-2.726-0.849-3.832-0.597c-0.935,0.214-2.27,0.784-3.242,0.608
		c-0.185-0.186,0.592-0.344,1.231-0.315c-0.294-0.248-1.945,0.142-2.561-0.033c-0.167-0.166,1.38-0.144,1.38-0.464
		c-0.368-0.025-1.776,0.417-2.149,0.204c-0.074-0.273,0.84-0.365,0.811-0.555c-0.018-0.116-1.674,0.244-1.895-0.026
		c-0.004-0.106,0.947-0.379,0.735-0.436c-0.064,0.02-1.254,0.322-1.244,0.089c0.005-0.114,1.032-0.442,1.174-0.642
		c-2.699-0.598-5.538-1.403-8.151-0.149c-2.54,1.218-5.076,3.264-8.022,3.256C814.603,697.547,815.001,697.001,815.309,696.759"/>
	<path opacity="0.2" fill="#A1A1A1" d="M843.517,730.173c0.507-0.399,0.91-0.98,1.287-1.498c0.439-0.6,0.916-1.017,1.451-1.524
		c0.476-0.451,0.615-0.857,1.192-1.204c0.724-0.435,0.327-1.002-0.185-1.478c-0.15-0.139-0.306-1.02-0.447-1.274
		c-0.205-0.368-0.494-0.518-0.768-0.814c-0.247-0.269-0.307-0.612-0.487-0.915c-0.641-1.077-2.19-1.963-2.161-3.319
		c4.14,1.223,7,5.603,11.51,5.744c2.917,0.092,5.694-0.412,8.527-1.045c3.008-0.67,6.067-1.097,9.132-1.411
		c-0.446-0.552-1.138-0.922-1.138-0.922c0.394,0.027,0.988-0.065,0.815-0.589c0.276,0.031,1.899-0.036,0.888-0.44
		c0.325,0.047,0.938,0.046,0.814-0.441c0.373,0.068,1.479,0.028,0.739-0.516c0.636,0.081,1.16-0.275,1.186-0.932
		c1.206,0.32,2.188,0.977,3.184,1.701c0.724,0.529,1.583,0.942,2.174,1.632l-0.058,0.01c3.456-0.113,6.928,0.021,10.371,0.333
		c1.564,0.141,3.124,0.352,4.651,0.719c1.238,0.297,2.353,0.889,3.593,1.168c1.107,0.248,2.133,0.707,3.241,0.937
		c1.356,0.28-0.335,1.578-0.687,2.007c-0.77,0.94,0.676,0.258,1.018,0.121c1.298-0.519,0.858,0.446,0.082,0.976
		c-1.047,0.716-2.293,1.159-3.456,1.643c-1.081,0.449-2.28,0.941-3.47,0.935c-1.196-0.01-2.579,0.724-3.809,0.984
		c-1.808,0.382-3.629,0.659-5.467,0.834c-1.475,0.139-2.955,0.228-4.436,0.235c-0.874,0.005-1.747-0.017-2.62-0.054
		c-0.698-0.029-2.306-0.423-2.844,0.003c-1.046,0.828-2.12,1.545-3.384,1.995c-0.273,0.097-2.298,0.709-2.467,0.477
		c0.104,0.144,0.328-0.452,0.201-0.656c0.396-0.042,0.456-0.39,0.223-0.663c1.222-0.133,0.784-0.394-0.072-0.518
		c0.232-0.017,1.208-0.03,1.26-0.248c0.05-0.212-0.91-0.427-1.061-0.467c1.204,0.126,2.337,0.065,3.503-0.253
		c-2.367-0.226-4.725-0.522-7.065-0.945c-1.122-0.202-2.727-0.848-3.833-0.595c-0.935,0.213-2.271,0.783-3.242,0.607
		c-0.184-0.186,0.592-0.344,1.232-0.316c-0.295-0.247-1.947,0.142-2.561-0.032c-0.168-0.167,1.379-0.145,1.379-0.464
		c-0.369-0.025-1.775,0.417-2.149,0.204c-0.074-0.273,0.84-0.365,0.811-0.555c-0.018-0.117-1.674,0.244-1.896-0.026
		c-0.003-0.106,0.948-0.38,0.736-0.436c-0.064,0.019-1.255,0.322-1.244,0.088c0.005-0.113,1.033-0.441,1.174-0.642
		c-2.698-0.597-5.538-1.402-8.151-0.148c-2.54,1.218-5.076,3.263-8.022,3.256C842.812,730.96,843.208,730.415,843.517,730.173"/>
	<path opacity="0.2" fill="#A1A1A1" d="M725.629,738.526c0.506-0.4,0.91-0.98,1.287-1.498c0.439-0.601,0.916-1.018,1.451-1.523
		c0.475-0.452,0.614-0.857,1.191-1.205c0.724-0.436,0.328-1.002-0.185-1.478c-0.149-0.14-0.306-1.02-0.447-1.274
		c-0.204-0.368-0.493-0.518-0.767-0.814c-0.247-0.269-0.307-0.613-0.488-0.915c-0.641-1.077-2.189-1.963-2.16-3.319
		c4.14,1.223,7,5.603,11.51,5.743c2.918,0.093,5.693-0.411,8.527-1.044c3.008-0.669,6.066-1.096,9.131-1.412
		c-0.446-0.552-1.138-0.92-1.138-0.92c0.394,0.026,0.988-0.066,0.816-0.59c0.275,0.03,1.899-0.035,0.887-0.44
		c0.325,0.048,0.938,0.047,0.815-0.441c0.372,0.068,1.479,0.028,0.739-0.515c0.635,0.08,1.159-0.277,1.186-0.933
		c1.207,0.32,2.188,0.976,3.183,1.702c0.725,0.527,1.584,0.941,2.175,1.631l-0.059,0.009c3.456-0.112,6.928,0.023,10.371,0.334
		c1.564,0.141,3.124,0.353,4.651,0.719c1.238,0.296,2.353,0.889,3.594,1.168c1.107,0.248,2.132,0.707,3.24,0.937
		c1.358,0.279-0.335,1.578-0.687,2.007c-0.77,0.94,0.676,0.258,1.018,0.121c1.299-0.519,0.858,0.446,0.082,0.976
		c-1.046,0.716-2.293,1.159-3.455,1.643c-1.082,0.449-2.281,0.942-3.47,0.934c-1.197-0.009-2.579,0.726-3.81,0.985
		c-1.808,0.382-3.628,0.659-5.467,0.833c-1.474,0.141-2.954,0.229-4.435,0.236c-0.875,0.005-1.748-0.017-2.621-0.054
		c-0.697-0.029-2.306-0.423-2.844,0.002c-1.045,0.829-2.12,1.546-3.383,1.997c-0.273,0.095-2.298,0.708-2.468,0.476
		c0.104,0.144,0.329-0.452,0.201-0.655c0.397-0.043,0.456-0.391,0.223-0.665c1.222-0.132,0.784-0.393-0.071-0.517
		c0.231-0.016,1.207-0.03,1.259-0.248c0.051-0.212-0.909-0.428-1.06-0.467c1.203,0.127,2.337,0.065,3.503-0.253
		c-2.368-0.227-4.725-0.522-7.066-0.944c-1.121-0.203-2.726-0.849-3.833-0.597c-0.936,0.214-2.27,0.784-3.242,0.608
		c-0.184-0.186,0.592-0.344,1.232-0.316c-0.295-0.247-1.945,0.143-2.561-0.032c-0.168-0.166,1.379-0.145,1.379-0.464
		c-0.367-0.025-1.775,0.417-2.148,0.203c-0.074-0.273,0.84-0.364,0.811-0.554c-0.018-0.117-1.675,0.244-1.895-0.027
		c-0.004-0.105,0.947-0.378,0.734-0.435c-0.064,0.02-1.254,0.322-1.244,0.088c0.006-0.113,1.033-0.442,1.174-0.642
		c-2.698-0.597-5.538-1.403-8.15-0.149c-2.541,1.219-5.076,3.264-8.023,3.257C724.923,739.314,725.32,738.769,725.629,738.526"/>
	<path opacity="0.2" fill="#A1A1A1" d="M893.896,705.112c0.506-0.4,0.91-0.98,1.287-1.497c0.438-0.602,0.916-1.018,1.45-1.524
		c0.477-0.452,0.614-0.857,1.192-1.206c0.724-0.434,0.328-1.002-0.185-1.476c-0.149-0.139-0.306-1.02-0.448-1.275
		c-0.204-0.367-0.492-0.518-0.767-0.814c-0.246-0.268-0.307-0.612-0.487-0.914c-0.642-1.077-2.189-1.964-2.161-3.32
		c4.141,1.223,7,5.603,11.511,5.743c2.917,0.093,5.694-0.411,8.527-1.043c3.007-0.67,6.066-1.097,9.131-1.413
		c-0.446-0.552-1.137-0.921-1.137-0.921c0.394,0.027,0.988-0.064,0.814-0.588c0.277,0.029,1.9-0.036,0.889-0.442
		c0.323,0.049,0.937,0.048,0.813-0.44c0.373,0.068,1.479,0.029,0.74-0.515c0.635,0.08,1.16-0.277,1.185-0.933
		c1.207,0.32,2.188,0.976,3.184,1.702c0.725,0.528,1.584,0.941,2.174,1.632l-0.058,0.008c3.456-0.112,6.928,0.023,10.372,0.334
		c1.562,0.142,3.123,0.353,4.65,0.719c1.239,0.297,2.352,0.89,3.593,1.168c1.107,0.248,2.134,0.708,3.242,0.937
		c1.356,0.279-0.336,1.579-0.688,2.008c-0.77,0.939,0.676,0.257,1.018,0.12c1.299-0.519,0.858,0.446,0.082,0.976
		c-1.047,0.716-2.292,1.16-3.455,1.644c-1.082,0.448-2.281,0.941-3.47,0.933c-1.196-0.008-2.579,0.726-3.809,0.985
		c-1.808,0.382-3.63,0.659-5.468,0.834c-1.474,0.14-2.955,0.228-4.436,0.236c-0.873,0.004-1.746-0.017-2.62-0.054
		c-0.697-0.03-2.306-0.424-2.844,0.001c-1.045,0.829-2.119,1.546-3.383,1.997c-0.273,0.096-2.298,0.708-2.468,0.476
		c0.104,0.144,0.329-0.451,0.201-0.655c0.397-0.043,0.457-0.39,0.224-0.665c1.221-0.132,0.784-0.393-0.072-0.517
		c0.231-0.016,1.206-0.029,1.259-0.247c0.05-0.212-0.91-0.428-1.06-0.467c1.203,0.125,2.336,0.063,3.503-0.254
		c-2.368-0.226-4.725-0.522-7.065-0.944c-1.123-0.203-2.727-0.849-3.833-0.597c-0.936,0.214-2.271,0.784-3.243,0.608
		c-0.185-0.186,0.593-0.345,1.232-0.316c-0.294-0.246-1.946,0.143-2.562-0.031c-0.166-0.167,1.38-0.145,1.38-0.464
		c-0.368-0.026-1.775,0.416-2.149,0.202c-0.073-0.273,0.84-0.363,0.811-0.554c-0.017-0.116-1.673,0.245-1.895-0.026
		c-0.003-0.105,0.947-0.379,0.735-0.437c-0.064,0.021-1.254,0.323-1.244,0.089c0.005-0.113,1.033-0.441,1.175-0.641
		c-2.698-0.598-5.539-1.404-8.152-0.15c-2.54,1.219-5.075,3.265-8.021,3.257C893.189,705.9,893.587,705.354,893.896,705.112"/>
	<path opacity="0.2" fill="#A1A1A1" d="M55.302,780.292c0.506-0.399,0.91-0.98,1.287-1.497c0.438-0.6,0.916-1.017,1.451-1.524
		c0.476-0.452,0.614-0.857,1.192-1.204c0.724-0.435,0.327-1.002-0.185-1.478c-0.15-0.139-0.306-1.02-0.448-1.275
		c-0.205-0.367-0.493-0.518-0.767-0.813c-0.246-0.269-0.307-0.612-0.488-0.915c-0.641-1.077-2.189-1.963-2.16-3.319
		c4.14,1.223,7,5.602,11.51,5.744c2.917,0.091,5.694-0.412,8.527-1.045c3.008-0.67,6.067-1.097,9.132-1.411
		c-0.447-0.552-1.138-0.922-1.138-0.922c0.394,0.027,0.988-0.065,0.815-0.589c0.276,0.03,1.899-0.036,0.888-0.44
		c0.324,0.047,0.937,0.046,0.814-0.442c0.373,0.069,1.479,0.029,0.74-0.515c0.635,0.081,1.16-0.275,1.185-0.933
		c1.207,0.32,2.188,0.978,3.183,1.702c0.725,0.529,1.584,0.942,2.174,1.632l-0.058,0.01c3.457-0.113,6.928,0.021,10.372,0.333
		c1.563,0.141,3.124,0.352,4.651,0.719c1.238,0.297,2.352,0.889,3.593,1.167c1.107,0.249,2.133,0.708,3.242,0.938
		c1.356,0.279-0.336,1.578-0.688,2.007c-0.77,0.939,0.676,0.258,1.018,0.121c1.299-0.519,0.858,0.445,0.083,0.976
		c-1.047,0.716-2.293,1.159-3.456,1.643c-1.082,0.449-2.281,0.941-3.47,0.934c-1.197-0.009-2.58,0.725-3.809,0.985
		c-1.808,0.381-3.629,0.659-5.468,0.834c-1.474,0.139-2.955,0.227-4.436,0.235c-0.874,0.005-1.747-0.017-2.62-0.054
		c-0.698-0.029-2.306-0.423-2.844,0.003c-1.045,0.828-2.12,1.544-3.383,1.995c-0.273,0.097-2.297,0.709-2.467,0.477
		c0.104,0.144,0.328-0.452,0.201-0.656c0.397-0.042,0.457-0.39,0.223-0.664c1.221-0.132,0.784-0.394-0.072-0.518
		c0.231-0.016,1.207-0.029,1.259-0.247c0.05-0.212-0.91-0.427-1.06-0.467c1.204,0.126,2.336,0.065,3.503-0.254
		c-2.368-0.225-4.725-0.521-7.066-0.944c-1.122-0.202-2.727-0.848-3.833-0.597c-0.935,0.215-2.271,0.785-3.243,0.609
		c-0.184-0.186,0.592-0.344,1.232-0.316c-0.294-0.247-1.946,0.142-2.561-0.032c-0.167-0.167,1.38-0.145,1.38-0.464
		c-0.369-0.026-1.776,0.417-2.149,0.203c-0.074-0.272,0.84-0.364,0.81-0.555c-0.017-0.116-1.673,0.245-1.895-0.025
		c-0.003-0.106,0.947-0.38,0.735-0.437c-0.064,0.02-1.254,0.322-1.244,0.089c0.005-0.113,1.033-0.442,1.174-0.642
		c-2.699-0.597-5.538-1.403-8.151-0.148c-2.541,1.218-5.076,3.263-8.022,3.256C54.596,781.08,54.993,780.535,55.302,780.292"/>
	<path opacity="0.2" fill="#A1A1A1" d="M114.246,763.585c0.506-0.399,0.91-0.979,1.288-1.496c0.438-0.602,0.915-1.018,1.45-1.525
		c0.477-0.451,0.615-0.857,1.193-1.205c0.723-0.434,0.327-1.002-0.185-1.476c-0.15-0.14-0.306-1.021-0.448-1.275
		c-0.205-0.367-0.493-0.518-0.767-0.814c-0.247-0.268-0.307-0.612-0.488-0.915c-0.641-1.077-2.19-1.964-2.16-3.32
		c4.14,1.224,7,5.604,11.51,5.744c2.917,0.092,5.694-0.412,8.527-1.043c3.008-0.671,6.066-1.097,9.131-1.413
		c-0.447-0.552-1.137-0.921-1.137-0.921c0.394,0.026,0.988-0.064,0.815-0.588c0.277,0.029,1.899-0.036,0.888-0.442
		c0.325,0.048,0.937,0.048,0.814-0.44c0.373,0.068,1.479,0.028,0.74-0.516c0.635,0.081,1.16-0.276,1.186-0.933
		c1.207,0.32,2.188,0.977,3.183,1.703c0.725,0.527,1.584,0.94,2.174,1.631l-0.058,0.009c3.456-0.112,6.927,0.023,10.371,0.334
		c1.564,0.142,3.123,0.353,4.651,0.719c1.238,0.297,2.352,0.889,3.593,1.167c1.107,0.249,2.133,0.709,3.242,0.938
		c1.356,0.279-0.336,1.578-0.687,2.008c-0.77,0.939,0.676,0.257,1.017,0.12c1.299-0.519,0.859,0.446,0.083,0.976
		c-1.047,0.716-2.292,1.16-3.455,1.644c-1.082,0.448-2.281,0.941-3.47,0.933c-1.197-0.009-2.58,0.726-3.81,0.985
		c-1.808,0.382-3.628,0.659-5.467,0.834c-1.474,0.14-2.954,0.228-4.435,0.235c-0.874,0.005-1.747-0.016-2.62-0.054
		c-0.698-0.029-2.306-0.423-2.844,0.002c-1.045,0.829-2.12,1.546-3.384,1.996c-0.272,0.097-2.297,0.708-2.467,0.476
		c0.104,0.145,0.329-0.451,0.2-0.654c0.398-0.043,0.457-0.39,0.224-0.665c1.222-0.132,0.785-0.393-0.072-0.517
		c0.232-0.017,1.207-0.03,1.259-0.248c0.05-0.212-0.911-0.427-1.061-0.466c1.204,0.125,2.337,0.063,3.504-0.254
		c-2.369-0.226-4.725-0.522-7.066-0.944c-1.122-0.204-2.727-0.849-3.833-0.597c-0.936,0.213-2.271,0.784-3.243,0.608
		c-0.184-0.186,0.592-0.345,1.232-0.316c-0.294-0.247-1.946,0.142-2.561-0.031c-0.167-0.168,1.379-0.145,1.379-0.465
		c-0.369-0.025-1.776,0.417-2.149,0.203c-0.075-0.273,0.839-0.363,0.81-0.555c-0.017-0.116-1.674,0.244-1.895-0.025
		c-0.003-0.105,0.947-0.379,0.735-0.437c-0.064,0.02-1.254,0.323-1.244,0.089c0.005-0.113,1.033-0.441,1.174-0.642
		c-2.699-0.597-5.539-1.403-8.151-0.149c-2.541,1.218-5.076,3.264-8.023,3.257C113.54,764.374,113.938,763.828,114.246,763.585"/>
	<path opacity="0.2" fill="#A1A1A1" d="M33.041,746.879c0.506-0.4,0.91-0.98,1.287-1.498c0.439-0.601,0.916-1.017,1.451-1.523
		c0.476-0.452,0.615-0.857,1.193-1.205c0.723-0.436,0.327-1.002-0.186-1.478c-0.15-0.139-0.306-1.02-0.447-1.274
		c-0.205-0.368-0.494-0.518-0.767-0.814c-0.246-0.269-0.307-0.612-0.488-0.915c-0.641-1.077-2.19-1.963-2.161-3.319
		c4.14,1.223,7,5.603,11.51,5.743c2.917,0.093,5.694-0.411,8.527-1.043c3.007-0.67,6.066-1.097,9.131-1.412
		c-0.447-0.553-1.138-0.921-1.138-0.921c0.394,0.026,0.988-0.066,0.815-0.59c0.276,0.031,1.899-0.035,0.888-0.44
		c0.324,0.048,0.937,0.047,0.814-0.44c0.373,0.067,1.479,0.027,0.739-0.516c0.635,0.08,1.16-0.277,1.185-0.933
		c1.207,0.32,2.188,0.977,3.184,1.702c0.725,0.528,1.584,0.941,2.174,1.631l-0.058,0.01c3.456-0.113,6.928,0.022,10.371,0.333
		c1.564,0.141,3.124,0.353,4.651,0.719c1.239,0.298,2.352,0.889,3.593,1.168c1.107,0.249,2.133,0.707,3.242,0.937
		c1.356,0.279-0.336,1.578-0.687,2.007c-0.77,0.94,0.675,0.258,1.017,0.121c1.299-0.519,0.858,0.446,0.083,0.976
		c-1.047,0.716-2.293,1.159-3.455,1.643c-1.082,0.449-2.281,0.942-3.47,0.934c-1.197-0.008-2.58,0.726-3.809,0.985
		c-1.808,0.382-3.629,0.659-5.467,0.834c-1.474,0.14-2.955,0.228-4.435,0.235c-0.875,0.005-1.748-0.017-2.621-0.054
		c-0.698-0.029-2.305-0.423-2.843,0.003c-1.045,0.828-2.12,1.545-3.384,1.996c-0.273,0.096-2.297,0.708-2.467,0.476
		c0.104,0.144,0.328-0.452,0.201-0.655c0.397-0.043,0.457-0.391,0.223-0.664c1.221-0.133,0.784-0.394-0.072-0.518
		c0.232-0.016,1.207-0.03,1.259-0.248c0.05-0.212-0.91-0.428-1.06-0.466c1.203,0.126,2.336,0.064,3.503-0.254
		c-2.368-0.227-4.725-0.522-7.066-0.944c-1.122-0.203-2.726-0.849-3.833-0.597c-0.935,0.214-2.271,0.784-3.242,0.608
		c-0.185-0.186,0.591-0.344,1.231-0.316c-0.294-0.247-1.946,0.143-2.561-0.032c-0.167-0.166,1.379-0.145,1.379-0.464
		c-0.369-0.025-1.776,0.417-2.149,0.204c-0.074-0.274,0.84-0.365,0.811-0.555c-0.018-0.117-1.674,0.244-1.896-0.026
		c-0.003-0.106,0.948-0.379,0.736-0.436c-0.064,0.02-1.254,0.322-1.244,0.089c0.005-0.114,1.033-0.443,1.174-0.642
		c-2.698-0.598-5.538-1.403-8.151-0.149c-2.54,1.218-5.076,3.263-8.022,3.256C32.334,747.667,32.732,747.121,33.041,746.879"/>
	<path opacity="0.2" fill="#A1A1A1" d="M-15.7,796.999c0.506-0.399,0.91-0.979,1.287-1.497c0.439-0.601,0.916-1.018,1.451-1.523
		c0.476-0.452,0.615-0.858,1.192-1.206c0.723-0.435,0.327-1.002-0.185-1.477c-0.15-0.14-0.306-1.021-0.447-1.274
		c-0.205-0.368-0.494-0.518-0.767-0.815c-0.247-0.268-0.307-0.612-0.488-0.914c-0.641-1.077-2.19-1.964-2.16-3.32
		c4.14,1.224,7,5.604,11.51,5.744c2.917,0.092,5.694-0.412,8.527-1.044c3.007-0.67,6.066-1.096,9.131-1.412
		c-0.447-0.552-1.137-0.921-1.137-0.921c0.394,0.026,0.988-0.065,0.815-0.589c0.276,0.03,1.899-0.035,0.888-0.441
		c0.325,0.047,0.937,0.047,0.814-0.44c0.373,0.068,1.479,0.028,0.74-0.515c0.635,0.08,1.16-0.277,1.185-0.934
		c1.207,0.32,2.188,0.977,3.183,1.703c0.725,0.527,1.584,0.941,2.174,1.63l-0.058,0.01c3.456-0.112,6.928,0.023,10.371,0.333
		c1.564,0.141,3.124,0.353,4.651,0.72c1.238,0.296,2.352,0.888,3.593,1.168c1.107,0.248,2.133,0.707,3.242,0.937
		c1.356,0.279-0.336,1.578-0.687,2.007c-0.77,0.94,0.675,0.258,1.017,0.121c1.299-0.519,0.858,0.445,0.083,0.976
		c-1.047,0.716-2.292,1.159-3.455,1.643c-1.082,0.449-2.281,0.942-3.47,0.934c-1.196-0.009-2.58,0.726-3.809,0.984
		c-1.808,0.382-3.629,0.66-5.467,0.834c-1.475,0.141-2.955,0.229-4.436,0.236c-0.874,0.005-1.747-0.017-2.621-0.054
		c-0.698-0.029-2.305-0.424-2.843,0.002c-1.045,0.829-2.12,1.545-3.384,1.996c-0.273,0.096-2.297,0.708-2.467,0.477
		c0.104,0.143,0.329-0.452,0.201-0.655c0.397-0.043,0.457-0.391,0.224-0.665c1.221-0.132,0.784-0.393-0.072-0.517
		c0.231-0.017,1.207-0.031,1.258-0.248c0.05-0.213-0.91-0.428-1.06-0.467c1.204,0.125,2.337,0.064,3.504-0.253
		c-2.369-0.227-4.725-0.522-7.066-0.945c-1.122-0.203-2.727-0.848-3.833-0.596c-0.936,0.214-2.271,0.784-3.243,0.608
		c-0.184-0.186,0.592-0.345,1.232-0.316c-0.294-0.248-1.946,0.142-2.561-0.032c-0.167-0.167,1.379-0.145,1.379-0.464
		c-0.369-0.025-1.776,0.417-2.149,0.203c-0.074-0.273,0.84-0.365,0.811-0.555c-0.017-0.116-1.674,0.245-1.895-0.026
		c-0.003-0.105,0.947-0.378,0.735-0.436c-0.064,0.02-1.254,0.323-1.244,0.089c0.004-0.113,1.033-0.442,1.174-0.642
		c-2.699-0.597-5.538-1.403-8.151-0.149c-2.541,1.219-5.076,3.264-8.023,3.256C-16.406,797.788-16.008,797.242-15.7,796.999"/>
	<path opacity="0.2" fill="#A1A1A1" d="M157.709,788.646c0.506-0.4,0.91-0.981,1.287-1.498c0.438-0.601,0.915-1.018,1.45-1.524
		c0.476-0.451,0.615-0.858,1.193-1.204c0.723-0.436,0.327-1.002-0.185-1.478c-0.15-0.14-0.306-1.02-0.448-1.274
		c-0.205-0.368-0.493-0.519-0.767-0.815c-0.247-0.268-0.307-0.612-0.488-0.914c-0.641-1.077-2.189-1.963-2.16-3.319
		c4.14,1.222,7,5.603,11.51,5.743c2.917,0.093,5.694-0.411,8.527-1.044c3.008-0.67,6.066-1.097,9.131-1.412
		c-0.447-0.552-1.137-0.921-1.137-0.921c0.394,0.027,0.988-0.065,0.815-0.589c0.276,0.03,1.899-0.036,0.887-0.44
		c0.325,0.047,0.938,0.046,0.815-0.441c0.373,0.068,1.479,0.028,0.74-0.516c0.635,0.081,1.16-0.276,1.185-0.933
		c1.207,0.321,2.188,0.977,3.183,1.702c0.725,0.528,1.584,0.942,2.174,1.632l-0.058,0.009c3.456-0.112,6.928,0.022,10.372,0.333
		c1.563,0.142,3.124,0.353,4.651,0.72c1.238,0.296,2.352,0.889,3.593,1.168c1.107,0.248,2.133,0.707,3.242,0.936
		c1.356,0.28-0.336,1.579-0.688,2.008c-0.77,0.94,0.676,0.258,1.018,0.12c1.299-0.519,0.858,0.447,0.082,0.977
		c-1.046,0.716-2.292,1.159-3.455,1.643c-1.082,0.449-2.281,0.941-3.47,0.934c-1.197-0.01-2.58,0.725-3.809,0.985
		c-1.807,0.382-3.629,0.659-5.467,0.833c-1.474,0.14-2.955,0.229-4.436,0.236c-0.874,0.005-1.747-0.017-2.62-0.054
		c-0.698-0.029-2.306-0.423-2.844,0.002c-1.045,0.829-2.12,1.546-3.383,1.996c-0.273,0.096-2.297,0.709-2.467,0.477
		c0.104,0.144,0.329-0.452,0.201-0.656c0.397-0.042,0.456-0.39,0.223-0.664c1.221-0.132,0.784-0.394-0.072-0.518
		c0.231-0.016,1.207-0.029,1.259-0.247c0.05-0.212-0.91-0.428-1.06-0.467c1.204,0.126,2.336,0.065,3.503-0.253
		c-2.368-0.227-4.725-0.522-7.066-0.945c-1.122-0.203-2.727-0.848-3.833-0.596c-0.935,0.214-2.271,0.784-3.243,0.608
		c-0.184-0.186,0.592-0.345,1.232-0.317c-0.294-0.246-1.946,0.142-2.561-0.031c-0.167-0.167,1.38-0.145,1.38-0.464
		c-0.369-0.025-1.776,0.417-2.149,0.203c-0.074-0.273,0.84-0.364,0.81-0.554c-0.017-0.117-1.674,0.244-1.895-0.027
		c-0.003-0.105,0.947-0.379,0.735-0.437c-0.064,0.02-1.254,0.323-1.244,0.09c0.005-0.113,1.033-0.442,1.174-0.643
		c-2.699-0.596-5.538-1.402-8.151-0.148c-2.541,1.219-5.076,3.264-8.023,3.257C157.003,789.434,157.4,788.889,157.709,788.646"/>
	<path opacity="0.2" fill="#A1A1A1" d="M514.667,113.637c-0.074,0.049,1.688,1.426,1.788,1.653c0.086,0.193,0.531,0.581,0.701,0.687
		c0.342,0.21,0.46,0.647,0.785,0.829c-0.314,0.074,0.206,0.311,0.252,0.328c-0.458,0.13,0.053,0.142,0.087,0.306
		c-0.26,0.23,0.224,0.387,0.216,0.562c-0.006,0.182-0.441,0.078-0.146,0.323c-0.015,0.1-0.199,0.118-0.258,0.181
		c-0.003,0.095,0.06,0.137,0.188,0.127c-0.054,0.02-0.55,0.262-0.233,0.331c-0.11,0.066-0.255,0.122-0.124,0.237
		c-0.211,0.089-0.279,0.207-0.403,0.363c-0.043,0.052-0.262,0.271-0.266,0.309c-0.029,0.27-0.699,0.341-0.646,0.677
		c-0.336,0.091-0.741,0.514-0.963,0.787c-0.065,0.082-0.909,0.666-0.781,0.75c-0.474,0.259-0.189,0.563,0.222,0.626
		c0.489,0.075,0.983-0.07,1.444-0.219c1.011-0.326,1.988-0.767,2.938-1.238c2.027-1.007,3.674-2.56,6.094-2.161
		c-0.081,0.033-0.407,0.202-0.502,0.196c0.407,0.022,0.951,0.464,1.348,0.606c0.133,0.141,0.525,0.16,0.708,0.219
		c0.3,0.099,0.603,0.328,0.88,0.498c0.927,0.568,1.807,1.044,2.32,1.994c0.547-0.197,1.063-0.478,1.495-0.871
		c0.112-0.102,0.215-0.213,0.324-0.317c0.368,0.108,0.736,0.212,1.104,0.31c0.421,0.111,0.84,0.188,1.264,0.273
		c0.313,0.063,0.568,0.344,0.857,0.474c1.002,0.453,2.222,0.468,3.298,0.545c1.507,0.107,3.018,0.168,4.526,0.196
		c-0.278,0.083-1.228,0.072-1.284,0.367c-0.071,0.368-0.363,0.713-0.31,1.041c0.026,0.165-0.185,0.743-0.243,0.843
		c-0.11,0.189-0.091,0.551-0.122,0.765c0.801-0.184,1.499-0.787,2.078-1.338c0.277-0.265,0.543-0.544,0.79-0.838
		c0.182-0.214,0.354-0.435,0.525-0.656c0.195-0.25,0.339-0.177,0.642-0.184c2.048-0.05,4.062-0.558,5.935-1.371
		c1.175-0.51,2.392-0.968,3.473-1.647c0.41-0.257,1.393-0.731,1.37-1.335c-0.021-0.562-1.345,0.081-1.601,0.198
		c0.294-0.316,1.304-0.876,1.329-1.319c0.034-0.585-1.036-1.046-1.442-1.328c-0.992-0.689-2.109-1.112-3.238-1.519
		c-1.174-0.422-2.377-0.759-3.598-1.011c-0.858-0.177-1.726-0.315-2.595-0.422c-1.005-0.124-1.934-0.008-2.686-0.773
		c-0.038,0.408-0.562-0.074-0.697-0.189c0.398,0.629-0.594-0.015-0.725-0.121c0.346,0.319,0.339,0.58-0.207,0.389
		c0.061,0.093,0.151,0.283-0.012,0.331c-0.394,0.116-0.842-0.342-1.112-0.563c-0.73-0.597-1.33-1.33-2.069-1.922
		c-0.277-0.221-0.573-0.468-0.904-0.605c-0.131-0.054-0.497,0.429-0.713,0.474c-0.204,0.043-0.577,0.484-0.666,0.66
		c-0.073,0.146-0.202,0.292-0.386,0.228c-0.076,0.164-0.33,0.524-0.563,0.442c-0.16,0.579-0.897,0.375-1.062,0.889
		c-0.208,0.644-1.141,0.79-1.605,1.175c-0.205,0.17-0.71,0.398-0.978,0.348c-0.266,0.272-0.562,0.323-0.82,0.534
		c-0.267,0.218-1.663,0.847-2.025,0.63c-0.195,0.105,0.201,0.232,0.391,0.332c-1.243,0.273-2.552,0.624-3.833,0.674
		c-1.371,0.055-2.533-1.101-3.664-1.714c-1.293-0.701-2.698-1.132-4.134-1.425c-0.548-0.112-1.16-0.294-1.724-0.233
		C514.16,113.083,514.284,113.425,514.667,113.637"/>
	<path opacity="0.2" fill="#A1A1A1" d="M591.008,946.745c0.506-0.399,0.91-0.979,1.287-1.496c0.439-0.602,0.916-1.018,1.451-1.525
		c0.476-0.451,0.614-0.857,1.192-1.205c0.724-0.435,0.327-1.002-0.186-1.476c-0.149-0.14-0.306-1.02-0.447-1.275
		c-0.204-0.368-0.493-0.518-0.767-0.815c-0.246-0.268-0.307-0.611-0.488-0.914c-0.641-1.076-2.189-1.964-2.16-3.319
		c4.14,1.223,7,5.603,11.51,5.743c2.918,0.093,5.694-0.412,8.527-1.044c3.008-0.67,6.066-1.096,9.131-1.412
		c-0.446-0.552-1.137-0.921-1.137-0.921c0.394,0.026,0.988-0.064,0.814-0.588c0.277,0.029,1.9-0.036,0.889-0.442
		c0.324,0.048,0.937,0.048,0.814-0.44c0.373,0.068,1.479,0.028,0.739-0.515c0.636,0.08,1.16-0.277,1.186-0.934
		c1.206,0.32,2.188,0.977,3.183,1.703c0.725,0.527,1.584,0.941,2.175,1.632l-0.058,0.008c3.455-0.112,6.928,0.023,10.371,0.334
		c1.562,0.142,3.123,0.353,4.651,0.719c1.238,0.297,2.353,0.889,3.593,1.167c1.107,0.249,2.133,0.708,3.241,0.938
		c1.356,0.279-0.336,1.579-0.687,2.008c-0.77,0.939,0.676,0.257,1.018,0.12c1.298-0.519,0.857,0.446,0.082,0.976
		c-1.047,0.716-2.293,1.159-3.456,1.643c-1.081,0.449-2.28,0.942-3.47,0.934c-1.196-0.009-2.579,0.726-3.809,0.985
		c-1.808,0.382-3.629,0.659-5.467,0.834c-1.475,0.14-2.955,0.228-4.436,0.235c-0.875,0.005-1.748-0.017-2.62-0.054
		c-0.698-0.029-2.306-0.423-2.845,0.002c-1.045,0.829-2.119,1.546-3.383,1.996c-0.273,0.096-2.298,0.709-2.467,0.477
		c0.104,0.144,0.328-0.452,0.2-0.655c0.397-0.043,0.456-0.39,0.224-0.665c1.221-0.132,0.784-0.393-0.072-0.517
		c0.232-0.017,1.207-0.03,1.259-0.248c0.051-0.212-0.909-0.427-1.06-0.466c1.203,0.125,2.337,0.063,3.504-0.254
		c-2.369-0.226-4.726-0.522-7.066-0.944c-1.123-0.204-2.727-0.849-3.833-0.597c-0.935,0.214-2.271,0.784-3.242,0.608
		c-0.185-0.186,0.592-0.345,1.231-0.316c-0.294-0.247-1.945,0.142-2.561-0.032c-0.167-0.167,1.379-0.144,1.379-0.464
		c-0.368-0.025-1.775,0.417-2.148,0.203c-0.074-0.273,0.84-0.364,0.811-0.555c-0.018-0.116-1.674,0.244-1.895-0.025
		c-0.004-0.106,0.947-0.379,0.734-0.437c-0.063,0.02-1.254,0.323-1.244,0.089c0.006-0.113,1.033-0.441,1.174-0.642
		c-2.697-0.597-5.537-1.403-8.15-0.149c-2.541,1.218-5.076,3.265-8.022,3.257C590.302,947.534,590.699,946.988,591.008,946.745"/>
	<path opacity="0.2" fill="#A1A1A1" d="M652.48,914.825c0.506-0.399,0.909-0.979,1.287-1.496c0.438-0.602,0.916-1.019,1.449-1.525
		c0.477-0.451,0.615-0.857,1.193-1.205c0.723-0.435,0.326-1.002-0.186-1.477c-0.149-0.14-0.305-1.02-0.447-1.274
		c-0.204-0.368-0.493-0.518-0.768-0.815c-0.245-0.268-0.307-0.611-0.486-0.915c-0.641-1.076-2.19-1.963-2.161-3.319
		c4.141,1.224,7,5.604,11.511,5.744c2.917,0.092,5.693-0.412,8.526-1.044c3.008-0.67,6.066-1.096,9.132-1.412
		c-0.447-0.552-1.138-0.921-1.138-0.921c0.395,0.026,0.987-0.065,0.815-0.588c0.276,0.029,1.899-0.036,0.888-0.442
		c0.324,0.048,0.937,0.047,0.814-0.44c0.372,0.068,1.479,0.028,0.74-0.516c0.635,0.081,1.16-0.276,1.185-0.933
		c1.207,0.32,2.188,0.977,3.184,1.703c0.725,0.527,1.584,0.94,2.174,1.63l-0.058,0.01c3.456-0.112,6.927,0.023,10.371,0.333
		c1.563,0.142,3.123,0.354,4.651,0.72c1.238,0.297,2.352,0.889,3.593,1.167c1.107,0.249,2.133,0.708,3.242,0.938
		c1.356,0.279-0.336,1.577-0.688,2.007c-0.77,0.94,0.676,0.258,1.018,0.121c1.3-0.519,0.858,0.446,0.083,0.976
		c-1.047,0.716-2.293,1.159-3.455,1.643c-1.082,0.449-2.281,0.942-3.47,0.934c-1.197-0.009-2.58,0.725-3.809,0.984
		c-1.808,0.383-3.63,0.66-5.469,0.835c-1.473,0.14-2.954,0.228-4.435,0.234c-0.874,0.006-1.747-0.016-2.621-0.054
		c-0.697-0.028-2.305-0.422-2.844,0.003c-1.044,0.829-2.119,1.546-3.383,1.996c-0.272,0.096-2.297,0.708-2.467,0.476
		c0.104,0.144,0.328-0.451,0.2-0.654c0.398-0.043,0.457-0.391,0.224-0.665c1.221-0.133,0.784-0.393-0.071-0.517
		c0.231-0.017,1.206-0.031,1.258-0.248c0.051-0.213-0.909-0.428-1.059-0.466c1.202,0.125,2.336,0.063,3.503-0.254
		c-2.369-0.227-4.725-0.522-7.066-0.944c-1.122-0.204-2.727-0.849-3.833-0.597c-0.935,0.213-2.27,0.784-3.242,0.608
		c-0.185-0.186,0.592-0.345,1.231-0.316c-0.293-0.248-1.945,0.142-2.561-0.032c-0.167-0.167,1.38-0.145,1.38-0.464
		c-0.368-0.025-1.776,0.417-2.149,0.203c-0.074-0.273,0.84-0.365,0.811-0.555c-0.018-0.116-1.673,0.244-1.895-0.026
		c-0.004-0.105,0.947-0.378,0.735-0.436c-0.065,0.02-1.254,0.323-1.244,0.089c0.005-0.113,1.033-0.442,1.174-0.642
		c-2.698-0.597-5.538-1.403-8.151-0.149c-2.54,1.218-5.076,3.264-8.022,3.257C651.773,915.614,652.172,915.068,652.48,914.825"/>
	<path opacity="0.2" fill="#A1A1A1" d="M668.165,949.255c0.507-0.399,0.91-0.98,1.287-1.497c0.439-0.601,0.916-1.018,1.45-1.524
		c0.477-0.451,0.615-0.857,1.193-1.205c0.723-0.435,0.327-1.002-0.185-1.477c-0.15-0.14-0.306-1.021-0.448-1.274
		c-0.205-0.368-0.493-0.518-0.767-0.815c-0.247-0.268-0.307-0.612-0.488-0.915c-0.641-1.076-2.189-1.963-2.16-3.319
		c4.14,1.223,7,5.604,11.51,5.744c2.917,0.092,5.694-0.412,8.527-1.044c3.008-0.67,6.066-1.097,9.132-1.412
		c-0.447-0.552-1.138-0.921-1.138-0.921c0.394,0.026,0.988-0.065,0.815-0.588c0.276,0.029,1.899-0.037,0.888-0.442
		c0.324,0.048,0.938,0.048,0.813-0.44c0.374,0.068,1.48,0.028,0.74-0.516c0.636,0.081,1.16-0.276,1.186-0.933
		c1.206,0.32,2.188,0.977,3.183,1.703c0.725,0.527,1.584,0.94,2.174,1.63l-0.057,0.01c3.456-0.112,6.928,0.023,10.371,0.333
		c1.563,0.142,3.124,0.354,4.65,0.72c1.239,0.297,2.353,0.888,3.593,1.167c1.107,0.249,2.134,0.708,3.242,0.937
		c1.356,0.28-0.336,1.578-0.687,2.008c-0.77,0.94,0.676,0.258,1.018,0.121c1.298-0.519,0.858,0.446,0.081,0.976
		c-1.046,0.716-2.292,1.159-3.455,1.643c-1.081,0.449-2.28,0.942-3.47,0.934c-1.196-0.009-2.579,0.726-3.809,0.985
		c-1.808,0.382-3.629,0.659-5.467,0.833c-1.475,0.141-2.955,0.229-4.437,0.235c-0.873,0.006-1.746-0.016-2.619-0.054
		c-0.698-0.028-2.306-0.422-2.844,0.003c-1.046,0.829-2.12,1.546-3.384,1.996c-0.273,0.096-2.298,0.708-2.467,0.476
		c0.104,0.145,0.328-0.451,0.2-0.654c0.397-0.043,0.457-0.391,0.224-0.665c1.222-0.133,0.784-0.393-0.072-0.517
		c0.231-0.017,1.207-0.031,1.26-0.249c0.05-0.212-0.91-0.427-1.061-0.465c1.204,0.125,2.336,0.063,3.503-0.254
		c-2.367-0.227-4.725-0.522-7.065-0.945c-1.122-0.203-2.727-0.848-3.833-0.596c-0.936,0.213-2.271,0.784-3.243,0.608
		c-0.184-0.186,0.593-0.345,1.233-0.317c-0.295-0.247-1.947,0.143-2.562-0.031c-0.167-0.167,1.38-0.145,1.38-0.464
		c-0.369-0.025-1.776,0.417-2.149,0.203c-0.074-0.273,0.84-0.364,0.81-0.555c-0.017-0.117-1.673,0.244-1.895-0.026
		c-0.003-0.105,0.947-0.379,0.735-0.436c-0.063,0.02-1.254,0.323-1.243,0.089c0.004-0.113,1.032-0.442,1.174-0.642
		c-2.698-0.597-5.538-1.403-8.151-0.149c-2.54,1.218-5.076,3.264-8.022,3.257C667.459,950.044,667.856,949.498,668.165,949.255"/>
	<path opacity="0.2" fill="#A1A1A1" d="M515.14,940.901c0.507-0.399,0.909-0.98,1.287-1.497c0.438-0.601,0.916-1.018,1.45-1.524
		c0.477-0.451,0.615-0.857,1.193-1.205c0.723-0.435,0.326-1.002-0.186-1.477c-0.15-0.139-0.306-1.02-0.447-1.274
		c-0.205-0.368-0.494-0.519-0.768-0.814c-0.246-0.269-0.307-0.613-0.487-0.915c-0.641-1.077-2.19-1.963-2.16-3.319
		c4.14,1.222,7,5.603,11.51,5.743c2.917,0.093,5.694-0.412,8.527-1.044c3.007-0.671,6.066-1.097,9.132-1.412
		c-0.447-0.552-1.138-0.922-1.138-0.922c0.394,0.028,0.987-0.064,0.815-0.588c0.275,0.03,1.899-0.036,0.888-0.441
		c0.324,0.048,0.937,0.047,0.814-0.44c0.372,0.068,1.479,0.028,0.739-0.516c0.635,0.081,1.16-0.276,1.186-0.932
		c1.206,0.32,2.188,0.976,3.184,1.701c0.725,0.528,1.584,0.942,2.174,1.632l-0.059,0.009c3.457-0.112,6.928,0.022,10.371,0.333
		c1.564,0.142,3.124,0.353,4.652,0.72c1.238,0.296,2.352,0.889,3.592,1.168c1.107,0.248,2.133,0.707,3.242,0.936
		c1.356,0.28-0.336,1.579-0.688,2.008c-0.77,0.94,0.676,0.258,1.018,0.12c1.299-0.519,0.858,0.446,0.082,0.977
		c-1.047,0.716-2.292,1.159-3.455,1.643c-1.082,0.449-2.281,0.941-3.47,0.934c-1.196-0.009-2.579,0.725-3.809,0.985
		c-1.808,0.381-3.63,0.659-5.468,0.833c-1.474,0.14-2.955,0.228-4.435,0.236c-0.874,0.005-1.747-0.017-2.621-0.054
		c-0.698-0.029-2.306-0.423-2.843,0.002c-1.046,0.829-2.12,1.546-3.385,1.996c-0.272,0.097-2.297,0.709-2.467,0.477
		c0.104,0.144,0.329-0.452,0.201-0.656c0.397-0.042,0.457-0.39,0.224-0.664c1.221-0.132,0.784-0.393-0.071-0.518
		c0.23-0.016,1.206-0.029,1.258-0.248c0.051-0.211-0.91-0.427-1.06-0.466c1.203,0.125,2.337,0.064,3.503-0.253
		c-2.368-0.227-4.725-0.522-7.066-0.945c-1.121-0.202-2.726-0.848-3.832-0.596c-0.936,0.214-2.271,0.784-3.242,0.608
		c-0.185-0.186,0.592-0.345,1.231-0.317c-0.294-0.246-1.946,0.143-2.561-0.031c-0.167-0.167,1.38-0.145,1.38-0.464
		c-0.369-0.026-1.776,0.417-2.15,0.203c-0.074-0.273,0.84-0.364,0.812-0.554c-0.018-0.117-1.674,0.244-1.896-0.027
		c-0.002-0.105,0.947-0.379,0.736-0.436c-0.064,0.02-1.254,0.322-1.244,0.089c0.004-0.113,1.033-0.442,1.174-0.642
		c-2.699-0.597-5.539-1.403-8.151-0.149c-2.54,1.219-5.076,3.264-8.022,3.257C514.434,941.69,514.831,941.145,515.14,940.901"/>
	<path opacity="0.2" fill="#A1A1A1" d="M1279.321,1061.794c0.506-0.399,0.909-0.98,1.287-1.497c0.438-0.6,0.915-1.017,1.45-1.524
		c0.477-0.452,0.615-0.857,1.193-1.204c0.723-0.435,0.326-1.002-0.186-1.478c-0.15-0.139-0.306-1.02-0.447-1.275
		c-0.205-0.367-0.494-0.518-0.768-0.813c-0.246-0.269-0.307-0.612-0.488-0.915c-0.641-1.077-2.189-1.963-2.16-3.319
		c4.141,1.223,7,5.602,11.511,5.744c2.917,0.091,5.694-0.412,8.526-1.045c3.008-0.67,6.067-1.097,9.133-1.411
		c-0.447-0.552-1.139-0.922-1.139-0.922c0.395,0.027,0.988-0.065,0.816-0.589c0.275,0.03,1.898-0.036,0.887-0.44
		c0.324,0.047,0.938,0.046,0.814-0.442c0.373,0.069,1.479,0.029,0.74-0.515c0.635,0.081,1.16-0.275,1.186-0.933
		c1.206,0.32,2.188,0.978,3.183,1.702c0.725,0.529,1.584,0.942,2.174,1.632l-0.058,0.01c3.457-0.113,6.928,0.021,10.371,0.333
		c1.564,0.141,3.124,0.352,4.652,0.719c1.237,0.297,2.352,0.889,3.592,1.167c1.107,0.249,2.133,0.708,3.242,0.938
		c1.356,0.279-0.336,1.578-0.688,2.007c-0.77,0.939,0.676,0.258,1.018,0.121c1.299-0.519,0.858,0.445,0.082,0.976
		c-1.047,0.716-2.293,1.159-3.455,1.643c-1.082,0.449-2.281,0.941-3.47,0.934c-1.196-0.009-2.579,0.725-3.809,0.985
		c-1.808,0.381-3.63,0.659-5.468,0.834c-1.475,0.139-2.955,0.227-4.436,0.235c-0.873,0.005-1.746-0.017-2.62-0.054
		c-0.698-0.029-2.306-0.423-2.844,0.003c-1.045,0.828-2.12,1.544-3.384,1.995c-0.272,0.097-2.297,0.709-2.467,0.477
		c0.104,0.144,0.328-0.452,0.201-0.656c0.397-0.042,0.457-0.39,0.223-0.664c1.222-0.132,0.785-0.394-0.071-0.518
		c0.231-0.016,1.206-0.029,1.259-0.247c0.051-0.212-0.91-0.427-1.061-0.467c1.204,0.126,2.337,0.065,3.504-0.254
		c-2.368-0.225-4.725-0.521-7.066-0.944c-1.121-0.202-2.727-0.848-3.832-0.597c-0.936,0.215-2.271,0.785-3.243,0.609
		c-0.184-0.186,0.593-0.344,1.232-0.316c-0.294-0.247-1.946,0.142-2.562-0.032c-0.166-0.167,1.381-0.145,1.381-0.464
		c-0.369-0.026-1.776,0.417-2.15,0.203c-0.074-0.272,0.84-0.364,0.811-0.555c-0.018-0.116-1.674,0.245-1.895-0.025
		c-0.003-0.106,0.947-0.38,0.735-0.437c-0.064,0.02-1.254,0.322-1.244,0.089c0.005-0.113,1.033-0.442,1.175-0.642
		c-2.699-0.597-5.539-1.403-8.152-0.148c-2.54,1.218-5.076,3.263-8.021,3.256
		C1278.615,1062.582,1279.013,1062.037,1279.321,1061.794"/>
	<path opacity="0.2" fill="#A1A1A1" d="M1338.266,1045.087c0.506-0.399,0.91-0.979,1.287-1.496c0.439-0.602,0.916-1.018,1.45-1.525
		c0.477-0.451,0.615-0.857,1.192-1.205c0.724-0.434,0.328-1.002-0.184-1.476c-0.15-0.14-0.307-1.021-0.448-1.275
		c-0.204-0.367-0.493-0.518-0.767-0.814c-0.247-0.268-0.307-0.612-0.488-0.915c-0.641-1.077-2.189-1.964-2.16-3.32
		c4.14,1.224,7,5.604,11.51,5.744c2.918,0.092,5.694-0.412,8.527-1.043c3.008-0.671,6.066-1.097,9.131-1.413
		c-0.447-0.552-1.137-0.921-1.137-0.921c0.394,0.026,0.988-0.064,0.814-0.588c0.277,0.029,1.9-0.036,0.889-0.442
		c0.324,0.048,0.937,0.048,0.814-0.44c0.372,0.068,1.479,0.028,0.739-0.516c0.635,0.081,1.16-0.276,1.186-0.933
		c1.206,0.32,2.188,0.977,3.183,1.703c0.725,0.527,1.584,0.94,2.174,1.631l-0.057,0.009c3.455-0.112,6.927,0.023,10.371,0.334
		c1.563,0.142,3.123,0.353,4.65,0.719c1.238,0.297,2.353,0.889,3.594,1.167c1.106,0.249,2.133,0.709,3.241,0.938
		c1.356,0.279-0.336,1.578-0.687,2.008c-0.77,0.939,0.676,0.257,1.017,0.12c1.299-0.519,0.858,0.446,0.083,0.976
		c-1.047,0.716-2.293,1.16-3.455,1.644c-1.082,0.448-2.281,0.941-3.471,0.933c-1.197-0.009-2.58,0.726-3.809,0.985
		c-1.809,0.382-3.629,0.659-5.468,0.834c-1.474,0.14-2.954,0.228-4.435,0.235c-0.875,0.005-1.748-0.016-2.621-0.054
		c-0.697-0.029-2.305-0.423-2.844,0.002c-1.045,0.829-2.119,1.546-3.383,1.996c-0.273,0.097-2.298,0.708-2.467,0.476
		c0.104,0.145,0.328-0.451,0.199-0.654c0.398-0.043,0.457-0.39,0.225-0.665c1.221-0.132,0.784-0.393-0.072-0.517
		c0.232-0.017,1.207-0.03,1.26-0.248c0.05-0.212-0.911-0.427-1.061-0.466c1.203,0.125,2.336,0.063,3.504-0.254
		c-2.369-0.226-4.725-0.522-7.066-0.944c-1.122-0.204-2.727-0.849-3.833-0.597c-0.936,0.213-2.271,0.784-3.243,0.608
		c-0.184-0.186,0.592-0.345,1.232-0.316c-0.295-0.247-1.945,0.142-2.561-0.031c-0.168-0.168,1.379-0.145,1.379-0.465
		c-0.368-0.025-1.775,0.417-2.148,0.203c-0.074-0.273,0.84-0.363,0.811-0.555c-0.018-0.116-1.674,0.244-1.895-0.025
		c-0.004-0.105,0.947-0.379,0.734-0.437c-0.064,0.02-1.254,0.323-1.244,0.089c0.006-0.113,1.033-0.441,1.175-0.642
		c-2.699-0.597-5.538-1.403-8.151-0.149c-2.541,1.218-5.076,3.264-8.023,3.257
		C1337.559,1045.876,1337.957,1045.33,1338.266,1045.087"/>
	<path opacity="0.2" fill="#A1A1A1" d="M1257.061,1028.381c0.506-0.4,0.909-0.98,1.287-1.498c0.438-0.601,0.916-1.017,1.45-1.523
		c0.476-0.452,0.614-0.857,1.192-1.205c0.724-0.436,0.327-1.002-0.186-1.478c-0.149-0.139-0.305-1.02-0.447-1.274
		c-0.204-0.368-0.493-0.518-0.767-0.814c-0.246-0.269-0.307-0.612-0.487-0.915c-0.641-1.077-2.19-1.963-2.161-3.319
		c4.14,1.223,7.001,5.603,11.511,5.743c2.916,0.093,5.693-0.411,8.527-1.043c3.007-0.67,6.066-1.097,9.131-1.412
		c-0.447-0.553-1.138-0.921-1.138-0.921c0.394,0.026,0.988-0.066,0.815-0.59c0.276,0.031,1.899-0.035,0.889-0.44
		c0.324,0.048,0.936,0.047,0.814-0.44c0.372,0.067,1.479,0.027,0.738-0.516c0.636,0.08,1.16-0.277,1.186-0.933
		c1.207,0.32,2.188,0.977,3.184,1.702c0.725,0.528,1.584,0.941,2.174,1.631l-0.058,0.01c3.456-0.113,6.928,0.022,10.371,0.333
		c1.563,0.141,3.124,0.353,4.651,0.719c1.238,0.298,2.352,0.889,3.593,1.168c1.107,0.249,2.133,0.707,3.241,0.937
		c1.357,0.279-0.336,1.578-0.687,2.007c-0.771,0.94,0.675,0.258,1.017,0.121c1.299-0.519,0.859,0.446,0.083,0.976
		c-1.047,0.716-2.293,1.159-3.455,1.643c-1.082,0.449-2.281,0.942-3.47,0.934c-1.197-0.008-2.58,0.726-3.809,0.985
		c-1.809,0.382-3.63,0.659-5.468,0.834c-1.474,0.14-2.955,0.228-4.435,0.235c-0.875,0.005-1.748-0.017-2.621-0.054
		c-0.698-0.029-2.306-0.423-2.844,0.003c-1.045,0.828-2.12,1.545-3.384,1.996c-0.272,0.096-2.298,0.708-2.467,0.476
		c0.104,0.144,0.328-0.452,0.2-0.655c0.398-0.043,0.457-0.391,0.224-0.664c1.222-0.133,0.784-0.394-0.071-0.518
		c0.231-0.016,1.207-0.03,1.258-0.248c0.051-0.212-0.909-0.428-1.059-0.466c1.203,0.126,2.336,0.064,3.502-0.254
		c-2.367-0.227-4.725-0.522-7.065-0.944c-1.122-0.203-2.726-0.849-3.833-0.597c-0.935,0.214-2.27,0.784-3.242,0.608
		c-0.184-0.186,0.592-0.344,1.232-0.316c-0.295-0.247-1.947,0.143-2.561-0.032c-0.168-0.166,1.379-0.145,1.379-0.464
		c-0.369-0.025-1.775,0.417-2.149,0.204c-0.074-0.274,0.84-0.365,0.812-0.555c-0.018-0.117-1.674,0.244-1.896-0.026
		c-0.002-0.106,0.948-0.379,0.736-0.436c-0.064,0.02-1.254,0.322-1.244,0.089c0.005-0.114,1.033-0.443,1.174-0.642
		c-2.698-0.598-5.538-1.403-8.151-0.149c-2.54,1.218-5.076,3.263-8.022,3.256
		C1256.354,1029.169,1256.752,1028.623,1257.061,1028.381"/>
	<path opacity="0.2" fill="#A1A1A1" d="M1208.319,1078.501c0.507-0.399,0.909-0.979,1.287-1.497c0.438-0.601,0.915-1.018,1.45-1.523
		c0.477-0.452,0.615-0.858,1.193-1.206c0.723-0.435,0.326-1.002-0.186-1.477c-0.15-0.14-0.306-1.021-0.447-1.274
		c-0.205-0.368-0.494-0.518-0.768-0.815c-0.246-0.268-0.307-0.612-0.487-0.914c-0.641-1.077-2.19-1.964-2.16-3.32
		c4.14,1.224,6.999,5.604,11.51,5.744c2.917,0.092,5.694-0.412,8.527-1.044c3.007-0.67,6.066-1.096,9.132-1.412
		c-0.447-0.552-1.138-0.921-1.138-0.921c0.394,0.026,0.987-0.065,0.815-0.589c0.275,0.03,1.898-0.035,0.887-0.441
		c0.325,0.047,0.938,0.047,0.814-0.44c0.373,0.068,1.479,0.028,0.74-0.515c0.635,0.08,1.16-0.277,1.186-0.934
		c1.206,0.32,2.188,0.977,3.183,1.703c0.725,0.527,1.584,0.941,2.175,1.63l-0.059,0.01c3.457-0.112,6.928,0.023,10.371,0.333
		c1.564,0.141,3.124,0.353,4.652,0.72c1.238,0.296,2.352,0.888,3.592,1.168c1.107,0.248,2.133,0.707,3.242,0.937
		c1.356,0.279-0.336,1.578-0.688,2.007c-0.77,0.94,0.676,0.258,1.018,0.121c1.299-0.519,0.858,0.445,0.082,0.976
		c-1.047,0.716-2.292,1.159-3.455,1.643c-1.082,0.449-2.281,0.942-3.47,0.934c-1.196-0.009-2.579,0.726-3.809,0.984
		c-1.808,0.382-3.63,0.66-5.468,0.834c-1.475,0.141-2.955,0.229-4.436,0.236c-0.873,0.005-1.746-0.017-2.62-0.054
		c-0.698-0.029-2.306-0.424-2.843,0.002c-1.046,0.829-2.121,1.545-3.385,1.996c-0.272,0.096-2.297,0.708-2.467,0.477
		c0.104,0.143,0.329-0.452,0.201-0.655c0.397-0.043,0.457-0.391,0.224-0.665c1.221-0.132,0.784-0.393-0.071-0.517
		c0.23-0.017,1.206-0.031,1.258-0.248c0.051-0.213-0.91-0.428-1.061-0.467c1.204,0.125,2.338,0.064,3.504-0.253
		c-2.368-0.227-4.725-0.522-7.066-0.945c-1.121-0.203-2.727-0.848-3.832-0.596c-0.936,0.214-2.271,0.784-3.242,0.608
		c-0.185-0.186,0.592-0.345,1.231-0.316c-0.294-0.248-1.946,0.142-2.561-0.032c-0.167-0.167,1.38-0.145,1.38-0.464
		c-0.369-0.025-1.776,0.417-2.15,0.203c-0.074-0.273,0.84-0.365,0.811-0.555c-0.017-0.116-1.674,0.245-1.895-0.026
		c-0.003-0.105,0.947-0.378,0.736-0.436c-0.064,0.02-1.254,0.323-1.244,0.089c0.004-0.113,1.032-0.442,1.174-0.642
		c-2.699-0.597-5.539-1.403-8.151-0.149c-2.54,1.219-5.076,3.264-8.022,3.256C1207.613,1079.29,1208.012,1078.744,1208.319,1078.501
		"/>
	<path opacity="0.2" fill="#A1A1A1" d="M1239.735,385.462c-0.571-0.182,0.4-0.502,0.512-0.541c-0.568-0.2,0.552-0.463,0.677-0.498
		c-0.236-0.191,1.414-0.818,1.526-0.856c-0.097-0.398-0.283-0.343,0.476-0.467c0.042-0.228-0.271-0.18,0.094-0.244
		c-0.372-0.148,0.747-0.386,0.771-0.392c-0.053-0.037-0.161-0.062-0.196-0.121c-0.059-0.096,0.655-0.205,0.62-0.198
		c-0.012-0.065-0.134-0.071-0.164-0.128c-0.061-0.11,0.871-0.225,0.865-0.224c-0.064-0.311,0.387-0.306,0.628-0.353
		c-0.087-0.433,0.42-0.378,0.822-0.434c-0.022-0.008-0.233-0.043-0.231-0.108c0.002-0.173,1.086-0.288,1.175-0.304
		c0.015,0-0.345,0.006-0.343-0.069c0.012-0.31,1.267-0.245,1.377-0.552c-0.656-0.072,0.062-0.42,0.312-0.436
		c-0.104,0.012-0.443-0.006-0.499-0.113c-0.065-0.127,0.608-0.271,0.536-0.253c-0.129-0.011-0.243-0.056-0.342-0.132
		c0.095-0.057,0.197-0.098,0.307-0.123c-0.533-0.06-1.535-0.518-0.371-0.561c-0.136-0.009-2.076-0.432-1.182-0.554
		c-0.744,0.05-1.303-0.446-0.217-0.39c-0.377-0.123-1.839-0.364-1.607-0.834c-0.086-0.016-0.723-0.073-0.775-0.229
		c-0.027-0.077,0.207-0.112,0.235-0.167c-0.024-0.004-0.566-0.08-0.604-0.191c-0.022-0.066,0.291-0.146,0.327-0.166
		c-0.057-0.014-1.17-0.325-0.605-0.467c-0.406-0.086-0.146-0.1-0.067-0.268c-0.185-0.037-1.838-0.723-1.344-1.013
		c-0.241-0.132-1.899-0.89-1.402-1.045c-0.095-0.04-0.927-0.3-0.86-0.486c0.051-0.03,0.103-0.06,0.154-0.091
		c-1.65-0.666,0.562-0.684,1.168-0.586c1.689,0.273,3.35,0.976,4.919,1.639c1.173,0.496,2.312,1.061,3.435,1.656
		c1.188,0.63,2.396,1.438,3.707,1.77c1.451,0.365,3.139,0.161,4.611,0.066c1.391-0.088,2.775-0.262,4.139-0.553
		c2.449-0.523,4.838-1.274,7.294-1.785c-0.602-0.038-1.085-0.139-0.972-0.385c0.45-0.238,0.87-0.57,1.137-1.011
		c0.107-0.175,0.1-0.351,0.287-0.417c0.365-0.128,0.715-0.362,0.91-0.705c0.178-0.31,0.043-0.439,0.385-0.588
		c0.26-0.112,0.508-0.28,0.695-0.492c0.127-0.135,0.206-0.293,0.24-0.473c0.271-0.059,0.427-0.269,0.494-0.522
		c0.069-0.259,0.062-0.534,0.059-0.8c0.25-0.049,0.381-0.25,0.488-0.461c0.48-0.952,1.553-1.526,1.115-2.812
		c0.322,0.063,1.945,1.179,2.025,1.125c0.037-0.025-0.026-0.25-0.041-0.262c0.567,0.434,1.025,0.988,1.552,1.467
		c0.101,0.093,0.146,0.082,0.134-0.035c0-0.124,0.568,0.467,0.557,0.454c0.369,0.355,0.711,0.896,1.128,1.188
		c0.044,0.031,0.003-0.132,0.02-0.115c0.878,0.877,1.453,1.956,2.249,2.884c0.82,0.959,2.447,0.769,3.623,0.95
		c1.553,0.242,3.092,0.583,4.59,1.057c1.686,0.535,3.228,1.357,4.867,2.001c0.561,0.221,1.195,0.33,1.734,0.601
		c0.887,0.446,2.271,0.46,2.924,1.288c0.534,0.466-0.027,1.692-0.225,2.192c-0.106,0.273-1,1.735-0.863,1.992
		c-0.037-0.07,1.982-2.065,2.199-2.242c0.529-0.429,1.181-0.136,1.352,0.533c0.181,0.712-0.939,1.545-1.32,2.1
		c-1.482,2.158-4.117,4.102-6.647,4.889c-1.103,0.342-2.228,0.625-3.354,0.879c-0.56,0.127-1.123,0.242-1.688,0.349
		c-0.501,0.095-1.415,0.063-1.763,0.438c-1.266,1.36-2.594,2.703-4.098,3.802c-0.461,0.334-1.265,1.029-1.875,0.969
		c-0.513-0.051-0.217-1.016-0.051-1.316c0.223-0.4-0.002-0.242,0.098-0.61c0.067-0.187,0.195-0.319,0.383-0.399
		c-0.125-0.086-0.018-0.301,0.039-0.382c0.202-0.292,0.371-0.634,0.521-0.958c0.162-0.348,0.385-0.486,0.564-0.861
		c-1.988,0.059-3.977-0.053-5.952-0.274c-1.69-0.19-3.384-0.571-5.085-0.63c-1.266-0.043-1.951,0.097-2.893,0.884
		c-1.188,0.989-2.458,1.935-3.933,2.447c0.034-0.591-0.479-0.698-0.698-1.121c-0.195-0.378-0.238-0.718-0.448-1.081
		c-0.538-0.926-0.939-1.953-1.319-2.902c-0.381-0.947-0.827-1.672-1.502-2.435c-0.517-0.583,0.838-0.57-0.184-1.231
		c-0.916-0.593-1.906-1.104-2.939-1.459c-0.65-0.225-1.331-0.625-2.008-0.741c-0.687-0.118-1.49,0.009-2.174,0.142
		c-1.71,0.332-3.365,1.187-4.955,1.873c-1.943,0.839-3.905,1.613-5.93,2.234c-1.064,0.326-2.203,0.597-3.326,0.473
		C1238.934,386.062,1239.04,385.706,1239.735,385.462"/>
	<path opacity="0.2" fill="#A1A1A1" d="M1280.279,408.937c-0.432-0.139,0.303-0.381,0.387-0.41c-0.43-0.152,0.418-0.351,0.513-0.377
		c-0.179-0.146,1.07-0.62,1.155-0.648c-0.072-0.301-0.215-0.26,0.359-0.353c0.031-0.173-0.205-0.137,0.072-0.186
		c-0.283-0.112,0.564-0.292,0.582-0.296c-0.039-0.028-0.121-0.049-0.148-0.092c-0.043-0.072,0.497-0.155,0.47-0.15
		c-0.009-0.049-0.101-0.055-0.124-0.096c-0.046-0.084,0.659-0.171,0.654-0.17c-0.047-0.235,0.293-0.232,0.476-0.268
		c-0.065-0.327,0.318-0.285,0.622-0.328c-0.017-0.005-0.176-0.031-0.176-0.081c0.004-0.131,0.822-0.218,0.891-0.23
		c0.01,0.001-0.262,0.005-0.26-0.053c0.008-0.233,0.958-0.185,1.042-0.417c-0.497-0.055,0.046-0.318,0.237-0.329
		c-0.079,0.009-0.338-0.005-0.379-0.085c-0.049-0.098,0.46-0.207,0.406-0.192c-0.098-0.009-0.185-0.042-0.259-0.1
		c0.071-0.044,0.149-0.075,0.232-0.093c-0.403-0.046-1.161-0.393-0.282-0.425c-0.102-0.007-1.57-0.327-0.894-0.419
		c-0.563,0.037-0.986-0.338-0.164-0.295c-0.285-0.094-1.392-0.275-1.216-0.631c-0.065-0.012-0.547-0.056-0.588-0.174
		c-0.02-0.059,0.156-0.085,0.179-0.127c-0.019-0.004-0.429-0.061-0.456-0.145c-0.018-0.051,0.22-0.11,0.248-0.125
		c-0.044-0.012-0.887-0.247-0.459-0.354c-0.308-0.064-0.11-0.076-0.052-0.203c-0.14-0.028-1.391-0.547-1.017-0.766
		c-0.184-0.101-1.438-0.674-1.061-0.791c-0.072-0.03-0.702-0.227-0.651-0.368c0.039-0.022,0.077-0.046,0.116-0.068
		c-1.248-0.505,0.426-0.519,0.885-0.444c1.278,0.207,2.533,0.739,3.722,1.24c0.888,0.375,1.749,0.803,2.6,1.254
		c0.898,0.477,1.813,1.087,2.806,1.338c1.098,0.277,2.374,0.123,3.488,0.052c1.053-0.067,2.101-0.198,3.133-0.419
		c1.854-0.396,3.661-0.965,5.52-1.351c-0.455-0.029-0.821-0.105-0.734-0.291c0.34-0.181,0.658-0.433,0.859-0.765
		c0.081-0.133,0.075-0.266,0.217-0.316c0.277-0.097,0.541-0.273,0.689-0.533c0.135-0.234,0.032-0.332,0.291-0.445
		c0.197-0.085,0.385-0.212,0.526-0.373c0.095-0.102,0.155-0.221,0.182-0.357c0.205-0.043,0.323-0.203,0.374-0.395
		c0.053-0.196,0.047-0.404,0.045-0.605c0.189-0.037,0.287-0.189,0.368-0.35c0.364-0.72,1.175-1.154,0.844-2.127
		c0.245,0.047,1.474,0.891,1.533,0.851c0.028-0.019-0.02-0.188-0.03-0.197c0.429,0.327,0.775,0.747,1.174,1.108
		c0.076,0.071,0.11,0.062,0.102-0.025c0-0.094,0.43,0.354,0.42,0.344c0.281,0.269,0.539,0.678,0.854,0.898
		c0.033,0.023,0.003-0.1,0.015-0.087c0.664,0.664,1.1,1.48,1.701,2.183c0.622,0.727,1.854,0.581,2.743,0.72
		c1.175,0.183,2.339,0.44,3.474,0.8c1.275,0.404,2.441,1.025,3.682,1.514c0.426,0.166,0.906,0.25,1.312,0.454
		c0.672,0.338,1.721,0.349,2.214,0.975c0.404,0.353-0.021,1.28-0.169,1.66c-0.082,0.206-0.758,1.312-0.654,1.507
		c-0.029-0.053,1.5-1.562,1.664-1.696c0.4-0.325,0.893-0.104,1.022,0.403c0.137,0.539-0.711,1.169-0.999,1.588
		c-1.121,1.633-3.115,3.105-5.03,3.699c-0.835,0.26-1.686,0.473-2.538,0.666c-0.424,0.097-0.85,0.184-1.277,0.264
		c-0.379,0.072-1.07,0.048-1.333,0.331c-0.958,1.029-1.964,2.046-3.103,2.877c-0.348,0.253-0.955,0.78-1.418,0.733
		c-0.388-0.037-0.163-0.769-0.037-0.996c0.168-0.303-0.002-0.184,0.072-0.463c0.052-0.141,0.148-0.24,0.29-0.302
		c-0.095-0.065-0.014-0.228,0.029-0.288c0.153-0.222,0.28-0.48,0.395-0.726c0.124-0.264,0.292-0.368,0.427-0.651
		c-1.504,0.043-3.008-0.04-4.504-0.208c-1.278-0.144-2.561-0.432-3.848-0.476c-0.958-0.034-1.477,0.072-2.189,0.668
		c-0.898,0.748-1.859,1.463-2.975,1.852c0.025-0.447-0.363-0.529-0.529-0.848c-0.148-0.286-0.18-0.543-0.339-0.818
		c-0.407-0.701-0.71-1.479-0.999-2.197c-0.287-0.717-0.625-1.266-1.137-1.842c-0.391-0.441,0.635-0.432-0.139-0.932
		c-0.693-0.449-1.442-0.836-2.225-1.105c-0.491-0.17-1.007-0.472-1.52-0.56c-0.52-0.089-1.127,0.007-1.645,0.106
		c-1.293,0.252-2.547,0.898-3.75,1.418c-1.471,0.635-2.955,1.221-4.486,1.691c-0.807,0.246-1.668,0.45-2.518,0.357
		C1279.673,409.39,1279.752,409.12,1280.279,408.937"/>
	<path opacity="0.2" fill="#A1A1A1" d="M1338.584,401.168c-0.48-0.153,0.337-0.423,0.432-0.456
		c-0.479-0.168,0.463-0.389,0.568-0.419c-0.199-0.161,1.19-0.688,1.284-0.721c-0.081-0.335-0.237-0.288,0.399-0.393
		c0.036-0.191-0.227-0.151,0.08-0.206c-0.313-0.125,0.628-0.324,0.648-0.329c-0.044-0.031-0.135-0.054-0.164-0.103
		c-0.05-0.08,0.551-0.172,0.521-0.166c-0.009-0.055-0.112-0.061-0.138-0.107c-0.051-0.094,0.732-0.189,0.729-0.188
		c-0.055-0.261,0.324-0.257,0.527-0.297c-0.072-0.363,0.354-0.317,0.692-0.364c-0.019-0.006-0.196-0.036-0.194-0.092
		c0.002-0.145,0.914-0.242,0.988-0.255c0.012,0.001-0.29,0.005-0.288-0.059c0.009-0.261,1.065-0.206,1.158-0.464
		c-0.553-0.062,0.052-0.354,0.264-0.366c-0.087,0.009-0.374-0.005-0.421-0.095c-0.055-0.107,0.512-0.23,0.451-0.214
		c-0.108-0.009-0.205-0.046-0.287-0.11c0.08-0.049,0.166-0.083,0.258-0.104c-0.448-0.051-1.291-0.436-0.312-0.473
		c-0.113-0.008-1.746-0.363-0.994-0.465c-0.625,0.041-1.097-0.376-0.182-0.329c-0.318-0.104-1.548-0.306-1.354-0.701
		c-0.072-0.013-0.607-0.062-0.652-0.193c-0.022-0.065,0.174-0.094,0.198-0.14c-0.021-0.004-0.477-0.068-0.507-0.162
		c-0.02-0.056,0.244-0.122,0.275-0.139c-0.049-0.012-0.984-0.274-0.512-0.395c-0.341-0.07-0.121-0.082-0.056-0.225
		c-0.155-0.031-1.546-0.607-1.13-0.852c-0.205-0.111-1.6-0.748-1.181-0.879c-0.08-0.033-0.78-0.252-0.724-0.409
		c0.043-0.025,0.087-0.052,0.13-0.077c-1.39-0.561,0.472-0.575,0.983-0.492c1.422,0.23,2.816,0.82,4.139,1.379
		c0.986,0.417,1.943,0.891,2.889,1.394c1,0.529,2.017,1.208,3.12,1.487c1.22,0.309,2.64,0.137,3.88,0.059
		c1.17-0.075,2.334-0.221,3.481-0.466c2.062-0.44,4.071-1.073,6.138-1.503c-0.506-0.032-0.912-0.117-0.817-0.323
		c0.378-0.201,0.731-0.48,0.956-0.851c0.09-0.147,0.084-0.296,0.241-0.351c0.308-0.108,0.602-0.306,0.767-0.594
		c0.149-0.261,0.036-0.369,0.324-0.494c0.217-0.095,0.426-0.236,0.584-0.415c0.105-0.113,0.174-0.246,0.203-0.398
		c0.227-0.047,0.358-0.225,0.415-0.438c0.059-0.219,0.052-0.448,0.05-0.673c0.21-0.041,0.32-0.211,0.41-0.389
		c0.404-0.801,1.307-1.283,0.938-2.365c0.271,0.053,1.638,0.992,1.705,0.946c0.031-0.022-0.021-0.21-0.035-0.22
		c0.479,0.365,0.863,0.832,1.307,1.233c0.085,0.079,0.122,0.069,0.111-0.028c0.001-0.105,0.479,0.393,0.469,0.381
		c0.312,0.299,0.6,0.754,0.949,1c0.037,0.025,0.003-0.111,0.017-0.098c0.738,0.738,1.223,1.646,1.892,2.428
		c0.691,0.807,2.061,0.646,3.05,0.799c1.306,0.203,2.601,0.49,3.862,0.89c1.418,0.45,2.715,1.142,4.094,1.684
		c0.473,0.185,1.006,0.277,1.459,0.505c0.746,0.376,1.912,0.387,2.461,1.084c0.449,0.393-0.023,1.424-0.188,1.846
		c-0.091,0.229-0.842,1.459-0.728,1.674c-0.031-0.059,1.668-1.736,1.851-1.885c0.445-0.361,0.993-0.115,1.138,0.448
		c0.152,0.599-0.79,1.3-1.111,1.767c-1.246,1.814-3.463,3.451-5.593,4.111c-0.928,0.29-1.874,0.527-2.821,0.741
		c-0.472,0.106-0.945,0.204-1.42,0.294c-0.422,0.078-1.19,0.053-1.483,0.367c-1.065,1.145-2.183,2.275-3.448,3.199
		c-0.387,0.281-1.063,0.867-1.576,0.815c-0.433-0.043-0.184-0.854-0.043-1.107c0.188-0.337-0.002-0.204,0.081-0.515
		c0.058-0.156,0.164-0.268,0.322-0.336c-0.104-0.072-0.015-0.252,0.032-0.32c0.17-0.246,0.312-0.535,0.439-0.807
		c0.137-0.293,0.324-0.409,0.475-0.725c-1.673,0.049-3.346-0.045-5.008-0.23c-1.422-0.161-2.847-0.48-4.277-0.53
		c-1.065-0.037-1.643,0.081-2.436,0.743c-0.998,0.832-2.067,1.628-3.308,2.059c0.028-0.497-0.403-0.588-0.589-0.943
		c-0.164-0.316-0.199-0.603-0.376-0.908c-0.452-0.78-0.79-1.645-1.11-2.443c-0.32-0.797-0.695-1.406-1.264-2.047
		c-0.435-0.492,0.705-0.48-0.154-1.037c-0.771-0.5-1.604-0.929-2.473-1.229c-0.547-0.188-1.12-0.525-1.691-0.623
		c-0.576-0.099-1.252,0.008-1.828,0.119c-1.438,0.279-2.832,0.999-4.17,1.576c-1.634,0.706-3.285,1.357-4.988,1.88
		c-0.896,0.274-1.854,0.502-2.799,0.398C1337.91,401.673,1337.998,401.372,1338.584,401.168"/>
	<path opacity="0.2" fill="#A1A1A1" d="M1308.372,369.083c-0.429-0.138,0.3-0.377,0.384-0.406c-0.427-0.15,0.412-0.347,0.506-0.373
		c-0.176-0.145,1.061-0.613,1.143-0.642c-0.07-0.298-0.211-0.257,0.356-0.349c0.032-0.172-0.202-0.136,0.071-0.184
		c-0.279-0.111,0.559-0.289,0.578-0.293c-0.04-0.029-0.121-0.048-0.147-0.092c-0.044-0.07,0.491-0.152,0.464-0.148
		c-0.008-0.049-0.1-0.053-0.122-0.095c-0.046-0.083,0.651-0.169,0.647-0.168c-0.047-0.233,0.289-0.229,0.471-0.265
		c-0.064-0.324,0.314-0.282,0.615-0.324c-0.017-0.006-0.174-0.031-0.173-0.081c0.003-0.13,0.813-0.216,0.88-0.228
		c0.011,0-0.258,0.004-0.256-0.053c0.008-0.232,0.948-0.183,1.031-0.412c-0.492-0.055,0.047-0.314,0.234-0.326
		c-0.078,0.008-0.334-0.005-0.375-0.084c-0.049-0.096,0.456-0.205,0.402-0.19c-0.098-0.009-0.183-0.042-0.256-0.099
		c0.07-0.043,0.147-0.074,0.229-0.092c-0.399-0.045-1.149-0.389-0.278-0.42c-0.102-0.008-1.555-0.324-0.885-0.416
		c-0.558,0.037-0.977-0.334-0.162-0.292c-0.283-0.093-1.378-0.272-1.205-0.624c-0.064-0.012-0.54-0.055-0.58-0.172
		c-0.021-0.058,0.154-0.084,0.176-0.125c-0.018-0.004-0.424-0.06-0.451-0.145c-0.017-0.049,0.217-0.108,0.245-0.123
		c-0.043-0.011-0.876-0.244-0.454-0.35c-0.305-0.064-0.109-0.076-0.051-0.201c-0.139-0.027-1.377-0.541-1.006-0.758
		c-0.182-0.1-1.424-0.666-1.051-0.783c-0.071-0.029-0.694-0.225-0.645-0.364c0.039-0.022,0.076-0.045,0.115-0.067
		c-1.236-0.5,0.422-0.514,0.875-0.439c1.266,0.205,2.51,0.73,3.686,1.228c0.877,0.371,1.73,0.794,2.572,1.241
		c0.889,0.471,1.794,1.076,2.776,1.324c1.087,0.274,2.351,0.121,3.453,0.051c1.042-0.066,2.079-0.196,3.101-0.414
		c1.835-0.392,3.625-0.955,5.463-1.338c-0.449-0.028-0.812-0.104-0.727-0.288c0.337-0.179,0.65-0.427,0.852-0.757
		c0.079-0.131,0.074-0.264,0.214-0.312c0.274-0.096,0.536-0.271,0.683-0.527c0.133-0.232,0.031-0.33,0.287-0.441
		c0.195-0.084,0.381-0.209,0.521-0.369c0.094-0.1,0.154-0.219,0.18-0.354c0.203-0.043,0.32-0.201,0.371-0.391
		c0.051-0.195,0.046-0.4,0.043-0.6c0.188-0.037,0.285-0.188,0.365-0.346c0.36-0.713,1.164-1.143,0.836-2.105
		c0.24,0.047,1.457,0.883,1.518,0.842c0.027-0.019-0.02-0.187-0.031-0.195c0.425,0.324,0.768,0.74,1.162,1.099
		c0.076,0.069,0.109,0.062,0.101-0.026c0-0.094,0.426,0.35,0.416,0.34c0.278,0.266,0.534,0.672,0.846,0.891
		c0.032,0.023,0.003-0.1,0.015-0.087c0.657,0.657,1.089,1.466,1.685,2.16c0.614,0.718,1.833,0.575,2.715,0.712
		c1.163,0.182,2.314,0.437,3.437,0.791c1.264,0.401,2.418,1.018,3.646,1.5c0.42,0.164,0.895,0.246,1.299,0.449
		c0.664,0.334,1.701,0.344,2.189,0.965c0.4,0.35-0.02,1.268-0.167,1.643c-0.08,0.204-0.75,1.299-0.647,1.49
		c-0.027-0.053,1.484-1.546,1.647-1.678c0.396-0.321,0.885-0.103,1.013,0.398c0.135,0.534-0.705,1.158-0.99,1.573
		c-1.109,1.616-3.083,3.072-4.979,3.661c-0.826,0.258-1.668,0.469-2.512,0.659c-0.42,0.095-0.842,0.181-1.264,0.261
		c-0.375,0.07-1.061,0.047-1.32,0.328c-0.948,1.018-1.943,2.024-3.07,2.848c-0.345,0.25-0.946,0.771-1.403,0.726
		c-0.385-0.038-0.162-0.761-0.038-0.985c0.167-0.301-0.001-0.183,0.072-0.459c0.051-0.139,0.146-0.238,0.287-0.299
		c-0.094-0.063-0.014-0.225,0.029-0.285c0.151-0.219,0.277-0.477,0.391-0.718c0.121-0.261,0.287-0.365,0.423-0.646
		c-1.489,0.044-2.979-0.039-4.458-0.205c-1.266-0.143-2.535-0.428-3.809-0.473c-0.948-0.032-1.461,0.072-2.168,0.662
		c-0.889,0.741-1.84,1.449-2.945,1.833c0.025-0.442-0.357-0.522-0.522-0.839c-0.146-0.283-0.179-0.538-0.336-0.811
		c-0.402-0.693-0.703-1.463-0.989-2.174c-0.283-0.709-0.618-1.252-1.123-1.823c-0.388-0.438,0.627-0.427-0.139-0.923
		c-0.686-0.443-1.428-0.826-2.201-1.094c-0.486-0.167-0.997-0.467-1.504-0.554c-0.515-0.088-1.116,0.007-1.629,0.105
		c-1.28,0.249-2.52,0.89-3.711,1.403c-1.455,0.629-2.926,1.208-4.441,1.673c-0.798,0.245-1.65,0.447-2.491,0.355
		C1307.771,369.532,1307.852,369.265,1308.372,369.083"/>
</g>
<g id="Layer_3">
	<linearGradient id="SVGID_1_" gradientUnits="userSpaceOnUse" x1="735.3965" y1="59.4092" x2="735.3964" y2="1092.7457">
		<stop  offset="0" style="stop-color:#FFFFFF;stop-opacity:0.3"/>
		<stop  offset="0.1261" style="stop-color:#FFFFFF;stop-opacity:0.2622"/>
		<stop  offset="1" style="stop-color:#FFFFFF;stop-opacity:0"/>
	</linearGradient>
	<rect y="55.165" fill="url(#SVGID_1_)" width="1470.792" height="1113.98"/>
</g>
</svg>
