<?xml version="1.0" encoding="utf-8"?>
<!-- Generator: Adobe Illustrator 16.0.0, SVG Export Plug-In . SVG Version: 6.00 Build 0)  -->
<!DOCTYPE svg PUBLIC "-//W3C//DTD SVG 1.1//EN" "http://www.w3.org/Graphics/SVG/1.1/DTD/svg11.dtd">
<svg version="1.1" xmlns="http://www.w3.org/2000/svg" xmlns:xlink="http://www.w3.org/1999/xlink" x="0px" y="0px" width="113.5px"
	 height="28.667px" viewBox="0 0 113.5 28.667" enable-background="new 0 0 113.5 28.667" xml:space="preserve">
<g id="Layer_4">
	<path fill="#FCE3CA" stroke="#000000" stroke-width="0.25" stroke-miterlimit="10" d="M27.658,15.678
		c-0.5,7.513-5.532,8.583-8.395,8.38c-2.786-0.195-6.514-3.516-6.514-8.358c0-4.842,3.569-8.69,5.69-9.065
		C23.109,5.811,28.014,10.324,27.658,15.678z"/>
</g>
<g id="Layer_2">
	<g>
		<path fill="#E54128" stroke="#000000" stroke-width="0.25" stroke-miterlimit="10" d="M18.871,25.29
			c-3.218-0.227-7.523-4.061-7.523-9.654c0-5.558,4.072-9.981,6.528-10.458C11.221,5.798,7.27,10.044,7.27,15.61
			c0,5.593,3.535,10.314,9.698,10.126c1.88-0.057,3.814-0.252,5.554-0.858C21.218,25.29,19.919,25.364,18.871,25.29z"/>
	</g>
	<path fill="#EF8D21" stroke="#000000" stroke-width="0.25" stroke-miterlimit="10" d="M28.566,15.61
		c-0.578,8.679-6.389,9.913-9.695,9.68c-3.218-0.227-7.523-4.061-7.523-9.654c0-5.591,4.122-10.036,6.572-10.468
		C23.312,4.216,28.978,9.428,28.566,15.61z M18.44,6.537c-2.122,0.375-5.69,4.223-5.69,9.065s3.728,8.163,6.514,8.359
		c2.863,0.2,7.894-0.867,8.395-8.381C28.015,10.226,23.109,5.713,18.44,6.537z"/>
	<path fill="#595859" stroke="#000000" stroke-width="0.25" stroke-linejoin="round" stroke-miterlimit="10" d="M21.053,15.462
		c0,0.3-0.167,0.484-0.428,0.54c-0.32,0.068-0.591-0.239-0.591-0.54c0-0.3,0.249-0.605,0.591-0.548
		C20.889,14.958,21.053,15.163,21.053,15.462z"/>
	<path fill="#F2CA52" stroke="#000000" stroke-width="0.25" stroke-miterlimit="10" d="M8.522,8.661
		c0.135,0.674,2.414,0.85,4.228-0.094c1.813-0.944,2.593-2.948,2.338-3.324c-1.071-1.583-3.068-2.305-4.881-1.361
		C8.394,4.826,8.144,6.787,8.522,8.661z"/>
	<path fill="#F2CA52" stroke="#000000" stroke-width="0.25" stroke-miterlimit="10" d="M24.746,7.121
		c0.577-0.21,0.957-0.494,0.984-0.682c0.263-1.775-0.661-3.542-2.514-4.04c-1.854-0.498-3.271,0.701-4.199,2.237
		c-0.064,0.108-0.061,0.253,0,0.421C21.064,5.005,23.089,5.787,24.746,7.121z"/>
	<polygon stroke="#000000" stroke-width="0.25" stroke-miterlimit="10" points="20.021,10.234 19.483,10.292 19.079,7.785 
		19.617,7.727 	"/>
	<polygon stroke="#000000" stroke-width="0.25" stroke-miterlimit="10" points="21.523,23.08 20.985,23.139 20.581,20.631 
		21.119,20.573 	"/>
	
		<rect x="13.911" y="16.238" transform="matrix(0.9821 -0.1886 0.1886 0.9821 -2.8308 3.1488)" stroke="#000000" stroke-width="0.25" stroke-miterlimit="10" width="2.447" height="0.43"/>
	
		<rect x="24.227" y="13.783" transform="matrix(0.9821 -0.1882 0.1882 0.9821 -2.1811 5.0285)" stroke="#000000" stroke-width="0.25" stroke-miterlimit="10" width="2.314" height="0.43"/>
	
		<ellipse transform="matrix(0.9753 0.2209 -0.2209 0.9753 4.677 -2.8871)" stroke="#000000" stroke-width="0.25" stroke-miterlimit="10" cx="15.246" cy="19.465" rx="0.181" ry="0.216"/>
	
		<ellipse transform="matrix(0.9753 0.2209 -0.2209 0.9753 5.3374 -3.4287)" stroke="#000000" stroke-width="0.25" stroke-miterlimit="10" cx="17.997" cy="22.147" rx="0.181" ry="0.215"/>
	
		<ellipse transform="matrix(0.7533 -0.6576 0.6576 0.7533 -7.7191 20.7142)" stroke="#000000" stroke-width="0.25" stroke-miterlimit="10" cx="23.753" cy="20.647" rx="0.181" ry="0.215"/>
	
		<ellipse transform="matrix(0.754 -0.6569 0.6569 0.754 -4.8585 21.0314)" stroke="#000000" stroke-width="0.25" stroke-miterlimit="10" cx="25.65" cy="17.002" rx="0.181" ry="0.215"/>
	
		<ellipse transform="matrix(0.9264 0.3765 -0.3765 0.9264 4.7973 -7.8656)" stroke="#000000" stroke-width="0.25" stroke-miterlimit="10" cx="22.522" cy="8.341" rx="0.182" ry="0.215"/>
	
		<ellipse transform="matrix(0.9267 0.3758 -0.3758 0.9267 6.0711 -8.6132)" stroke="#000000" stroke-width="0.25" stroke-miterlimit="10" cx="25.115" cy="11.257" rx="0.181" ry="0.215"/>
	
		<ellipse transform="matrix(-0.4119 0.9112 -0.9112 -0.4119 32.2435 6.5144)" stroke="#000000" stroke-width="0.25" stroke-miterlimit="10" cx="14.02" cy="13.662" rx="0.181" ry="0.215"/>
	
		<ellipse transform="matrix(-0.4871 0.8733 -0.8733 -0.4871 31.8338 0.0196)" stroke="#000000" stroke-width="0.25" stroke-miterlimit="10" cx="15.911" cy="9.357" rx="0.181" ry="0.216"/>
	<path fill="#939191" stroke="#000000" stroke-width="0.25" stroke-linejoin="round" stroke-miterlimit="10" d="M17.208,5.253
		L16.62,5.338c0,0-0.042-0.205,0.084-1.088c0.098-0.675,0.139-0.895,0.188-0.901c0.048-0.006,0.088,0.073,0.201,0.082
		c0.188,0.015,0.283-0.133,0.309-0.082C17.426,3.4,17.336,3.46,17.24,4.301C17.146,5.12,17.208,5.253,17.208,5.253z"/>
	<path fill="#727172" stroke="#000000" stroke-width="0.25" stroke-linejoin="round" stroke-miterlimit="10" d="M16.518,3.06
		c0,0.246,0.28,0.366,0.663,0.366c0.433,0,0.688-0.17,0.688-0.4c0-0.341-0.385-0.701-0.713-0.701S16.518,2.72,16.518,3.06z"/>
	<path fill="#595859" stroke="#000000" stroke-width="0.25" stroke-linejoin="round" stroke-miterlimit="10" d="M20.186,12.846
		c-0.041,0.764,0.033,1.629,0.114,1.986c0.024,0.107,0.087,0.07,0.192,0.064c0.108-0.006,0.185,0.046,0.205-0.055
		c0.072-0.362,0.218-1.218,0.258-1.956c0.06-1.124-0.063-2.043-0.276-2.055S20.246,11.721,20.186,12.846z"/>
	<path fill="#595859" stroke="#000000" stroke-width="0.25" stroke-linejoin="round" stroke-miterlimit="10" d="M22.931,13.187
		c-0.844,0.596-1.688,1.324-2,1.7c-0.081,0.099-0.038,0.157,0.039,0.252c0.077,0.097,0.074,0.217,0.196,0.151
		c0.438-0.237,1.456-0.816,2.269-1.39c1.241-0.875,2.134-1.746,1.995-1.943C25.292,11.76,24.172,12.311,22.931,13.187z"/>
	<polygon stroke="#000000" stroke-width="0.25" stroke-miterlimit="10" points="5.467,6.097 5.244,6.384 2.688,4.83 3.241,4.118 	
		"/>
	<polygon stroke="#000000" stroke-width="0.25" stroke-miterlimit="10" points="4.407,10.229 4.327,10.398 1.761,9.656 2.107,8.926 
			"/>
	<polygon stroke="#000000" stroke-width="0.25" stroke-miterlimit="10" points="26.798,3.253 27.087,3.475 29.163,1.32 
		28.447,0.772 	"/>
	<polygon stroke="#000000" stroke-width="0.25" stroke-miterlimit="10" points="29.043,7.067 29.138,7.229 31.63,6.27 31.223,5.572 
			"/>
	<path fill="#939191" stroke="#000000" stroke-width="0.25" stroke-linejoin="round" stroke-miterlimit="10" d="M14.066,23.766
		c-0.583-0.186-1.13-0.097-1.224,0.197l-1.549,3.181c0.163-0.191,0.492-0.18,0.735,0.028c0.208,0.177,0.284,0.439,0.199,0.63
		l0.001,0.002l2.61-3.016c0.054-0.043,0.093-0.094,0.112-0.154C15.044,24.34,14.648,23.952,14.066,23.766z"/>
	<path fill="#939191" stroke="#000000" stroke-width="0.25" stroke-linejoin="round" stroke-miterlimit="10" d="M25.781,22.936
		c-0.564,0.573-1.182,1.02-1.82,1.363l2.405,1.203l0.001-0.002c0.213,0.104,0.55-0.016,0.799-0.301
		c0.279-0.318,0.341-0.72,0.138-0.896L25.781,22.936z"/>
	<path fill="#595859" stroke="#000000" stroke-width="0.25" stroke-linejoin="round" stroke-miterlimit="10" d="M10.98,4.26
		c0.119,0.204,0.001,0.382-0.17,0.453c-0.153,0.063-0.408,0.094-0.505-0.125c-0.137-0.311-0.317-0.923-0.09-1.035
		C10.442,3.442,10.81,3.966,10.98,4.26z"/>
	<path fill="#595859" stroke="#000000" stroke-width="0.25" stroke-linejoin="round" stroke-miterlimit="10" d="M23.511,3.023
		c-0.047,0.217-0.242,0.266-0.405,0.205c-0.146-0.053-0.342-0.193-0.27-0.407c0.102-0.302,0.365-0.839,0.594-0.772
		S23.58,2.711,23.511,3.023z"/>
</g>
<g id="Layer_3">
	<path opacity="0.3" fill="#61564A" stroke="#000000" stroke-width="0.25" stroke-miterlimit="10" d="M18.44,6.537
		c4.669-0.824,9.246,4.266,8.643,9.597c-0.493,4.362-3.456,6.97-7.14,7.206c-2.788,0.18-7.193-2.896-7.193-7.738
		c0,4.842,3.728,8.163,6.514,8.359c2.863,0.2,7.894-0.867,8.395-8.381C28.015,10.226,23.109,5.713,18.44,6.537z"/>
	<path fill="#727172" stroke="#000000" stroke-width="0.25" stroke-linejoin="round" stroke-miterlimit="10" d="M14.22,23.822
		l-1.998,3.62l0.037,0.146l-0.03,0.216l2.667-3.072c0,0,0.35-0.326-0.359-0.749C14.36,23.878,14.22,23.822,14.22,23.822z"/>
	<path fill="#727172" stroke="#000000" stroke-width="0.25" stroke-linejoin="round" stroke-miterlimit="10" d="M25.216,23.429
		c-0.635,0.491-0.616,0.526-1.254,0.87l2.405,1.203l0.001-0.002c0.213,0.104,0.411,0.021,0.564-0.096
		c0.12-0.09-0.006-0.278-0.208-0.455L25.216,23.429z"/>
	<path fill="#F7DC96" stroke="#000000" stroke-width="0.25" stroke-linejoin="round" stroke-miterlimit="10" d="M10.306,4.879
		c0,0-1.405,0.719-0.748,3.462l0.53-0.386c0,0-0.542-1.346,0.199-2.996L10.306,4.879z"/>
	<path fill="#F7DC96" stroke="#000000" stroke-width="0.25" stroke-linejoin="round" stroke-miterlimit="10" d="M23.704,3.226
		c0,0,1.371,0.311,1.736,2.545l-0.612,0.357c0,0,0.085-1.997-1.079-2.834L23.704,3.226z"/>
	
		<ellipse transform="matrix(0.6486 -0.7611 0.7611 0.6486 -16.8228 18.6011)" fill="#595859" stroke="#000000" stroke-width="0.25" stroke-linejoin="round" stroke-miterlimit="10" cx="11.733" cy="27.519" rx="0.455" ry="0.578"/>
</g>
<g id="Layer_5">
	<text transform="matrix(0.8169 0 0 1 32.3594 21.8101)" font-family="'MyriadPro-Bold'" font-size="18.5487">TimeTaskIt!</text>
</g>
</svg>
